<svg xmlns="http://www.w3.org/2000/svg" width="166" height="166" viewBox="0 0 166 166">
  <g id="Grupo_138465" data-name="Grupo 138465" transform="translate(-285 -8142)">
    <g id="Grupo_137411" data-name="Grupo 137411" transform="translate(0.078 2538)">
      <g id="Elipse_5528" data-name="Elipse 5528" transform="translate(284.922 5604)" fill="#fff" stroke="#aab2d3" stroke-width="3">
        <circle cx="83" cy="83" r="83" stroke="none"/>
        <circle cx="83" cy="83" r="81.5" fill="none"/>
      </g>
    </g>
    <g id="Grupo_138321" data-name="Grupo 138321" transform="translate(289.917 8121.42)">
      <path id="Trazado_194851" data-name="Trazado 194851" d="M98.421,63.92H46.92a4.313,4.313,0,0,0-4.309,4.309V72.39H35.549a1.239,1.239,0,1,0,0,2.478H42.61v7.505H35.549a1.239,1.239,0,1,0,0,2.478H42.61v7.505H35.549a1.239,1.239,0,1,0,0,2.478H42.61v7.508H35.549a1.239,1.239,0,1,0,0,2.478H42.61v7.508H35.549a1.239,1.239,0,1,0,0,2.478H42.61v7.505H35.549a1.239,1.239,0,1,0,0,2.478H42.61v7.505H35.549a1.239,1.239,0,1,0,0,2.478H42.61v4.158a4.314,4.314,0,0,0,4.309,4.311h51.5a4.311,4.311,0,0,0,4.311-4.311v-70.7A4.317,4.317,0,0,0,98.421,63.92Zm0,76.843H46.92a1.834,1.834,0,0,1-1.831-1.831v-70.7A1.834,1.834,0,0,1,46.92,66.4h51.5a1.834,1.834,0,0,1,1.831,1.831l0,70.7A1.836,1.836,0,0,1,98.421,140.763Z" fill="#0d2380"/>
      <path id="Trazado_194852" data-name="Trazado 194852" d="M141.674,77.751a1.834,1.834,0,0,0-1.831-1.831h-51.5a1.834,1.834,0,0,0-1.831,1.831v70.7a1.834,1.834,0,0,0,1.831,1.831h51.5a1.836,1.836,0,0,0,1.834-1.831Zm-8.893,64.5H95.405a1.239,1.239,0,0,1,0-2.478h37.376a1.239,1.239,0,1,1,0,2.478Zm0-6.913H95.405a1.239,1.239,0,0,1,0-2.478h37.376a1.239,1.239,0,0,1,0,2.478Zm0-6.913H95.405a1.239,1.239,0,0,1,0-2.478h37.376a1.239,1.239,0,0,1,0,2.478Zm-27.608-8.15a1.239,1.239,0,0,1,1.239-1.239h15.36a1.239,1.239,0,1,1,0,2.478h-15.36A1.24,1.24,0,0,1,105.173,120.271Zm28.847-9.729a1.24,1.24,0,0,1-1.239,1.239H95.405a1.239,1.239,0,0,1-1.239-1.239V86.477a1.239,1.239,0,0,1,1.239-1.239h37.376a1.24,1.24,0,0,1,1.239,1.239Z" transform="translate(-41.422 -9.522)" fill="#fff"/>
      <path id="Trazado_194853" data-name="Trazado 194853" d="M162.205,121.05H124.829a1.239,1.239,0,0,0-1.239,1.239v24.065a1.239,1.239,0,0,0,1.239,1.239h37.376a1.24,1.24,0,0,0,1.239-1.239V122.289A1.24,1.24,0,0,0,162.205,121.05Zm-1.239,24.065h-34.9V123.528h34.9Z" transform="translate(-70.846 -45.334)" fill="#0d2380"/>
      <rect id="Rectángulo_83299" data-name="Rectángulo 83299" width="34.899" height="21.587" transform="translate(55.222 78.194)" fill="#fff"/>
      <path id="Trazado_194854" data-name="Trazado 194854" d="M194.738,285.959A1.24,1.24,0,0,1,193.5,287.2h-15.36a1.239,1.239,0,0,1,0-2.478H193.5A1.239,1.239,0,0,1,194.738,285.959Z" transform="translate(-113.148 -175.21)" fill="#0d2380"/>
      <path id="Trazado_194855" data-name="Trazado 194855" d="M163.444,319.429a1.239,1.239,0,0,1-1.239,1.239H124.829a1.239,1.239,0,0,1,0-2.478h37.376A1.24,1.24,0,0,1,163.444,319.429Z" transform="translate(-70.846 -201.769)" fill="#0d2380"/>
      <path id="Trazado_194856" data-name="Trazado 194856" d="M163.444,352.909a1.24,1.24,0,0,1-1.239,1.239H124.829a1.239,1.239,0,0,1,0-2.478h37.376A1.24,1.24,0,0,1,163.444,352.909Z" transform="translate(-70.846 -228.336)" fill="#0d2380"/>
      <path id="Trazado_194857" data-name="Trazado 194857" d="M163.444,386.389a1.24,1.24,0,0,1-1.239,1.239H124.829a1.239,1.239,0,1,1,0-2.478h37.376A1.239,1.239,0,0,1,163.444,386.389Z" transform="translate(-70.846 -254.903)" fill="#0d2380"/>
      <path id="Trazado_194858" data-name="Trazado 194858" d="M413.666,68.72h-8.259a3.72,3.72,0,0,0-3.717,3.717v2.581a3.714,3.714,0,0,0,1.652,3.087V136.57c0,.025,0,.05,0,.074s0,.033,0,.05.006.045.01.068.006.037.01.054.01.041.017.062.01.039.017.06.012.033.021.052l.025.064c.008.014.014.031.023.045a.639.639,0,0,0,.035.064.186.186,0,0,0,.01.021l4.949,8.263a.016.016,0,0,1,0,.008l0,0,0,0c.025.041.054.081.083.12l.025.031c.025.029.05.056.076.083a.388.388,0,0,0,.029.029,1.128,1.128,0,0,0,.107.091c.01.008.023.014.033.023a.835.835,0,0,0,.07.048l.014.006c.031.019.062.033.095.05l.056.027.087.029a.7.7,0,0,0,.07.023c.025.006.05.01.074.014s.056.012.083.017.064,0,.1.006a.58.58,0,0,0,.06,0h0c.021,0,.041,0,.062,0s.064,0,.095-.006.058-.01.087-.017.048-.008.07-.014.05-.017.074-.025.054-.017.081-.027.041-.021.06-.029.062-.029.091-.045a.042.042,0,0,1,.017-.008l.072-.05a.148.148,0,0,0,.029-.021,1.21,1.21,0,0,0,.109-.091.336.336,0,0,0,.027-.029,1.026,1.026,0,0,0,.078-.085l.025-.029c.029-.039.058-.078.083-.12,0,0,0,0,0,0l0,0s0,0,0-.006l4.951-8.263a.2.2,0,0,1,.01-.021c.012-.021.025-.043.035-.064s.014-.031.021-.045.019-.043.027-.066a.387.387,0,0,0,.021-.052c.006-.019.01-.039.017-.06s.01-.039.016-.06.006-.035.01-.054.006-.045.01-.07,0-.033,0-.05,0-.05,0-.074V78.1a3.711,3.711,0,0,0,1.652-3.087V72.437A3.718,3.718,0,0,0,413.666,68.72Zm-4.13,73.69-2.771-4.623h5.54Zm3.717-7.1H405.82V122.094h7.433Zm0-15.692H405.82V102.025h7.433Zm0-20.07H405.82V78.734h7.433ZM414.9,75.018a1.241,1.241,0,0,1-1.239,1.239h-8.259a1.24,1.24,0,0,1-1.239-1.239V72.437a1.24,1.24,0,0,1,1.239-1.239h8.259a1.241,1.241,0,0,1,1.239,1.239Z" transform="translate(-291.524 -3.809)" fill="#0d2380"/>
      <path id="Trazado_194859" data-name="Trazado 194859" d="M424.427,81.959V84.54a1.241,1.241,0,0,1-1.239,1.239h-8.259a1.24,1.24,0,0,1-1.239-1.239V81.959a1.24,1.24,0,0,1,1.239-1.239h8.259A1.241,1.241,0,0,1,424.427,81.959Z" transform="translate(-301.047 -13.331)" fill="#fff"/>
      <rect id="Rectángulo_83300" data-name="Rectángulo 83300" width="7.433" height="17.592" transform="translate(114.295 98.216)" fill="#fff"/>
      <rect id="Rectángulo_83301" data-name="Rectángulo 83301" width="7.433" height="20.813" transform="translate(114.295 74.925)" fill="#fff"/>
      <rect id="Rectángulo_83302" data-name="Rectángulo 83302" width="7.433" height="13.215" transform="translate(114.295 118.285)" fill="#fff"/>
    </g>
  </g>
</svg>
