<svg xmlns="http://www.w3.org/2000/svg" width="166" height="166" viewBox="0 0 166 166">
  <g id="Grupo_138467" data-name="Grupo 138467" transform="translate(-285 -8594)">
    <g id="Grupo_137415" data-name="Grupo 137415" transform="translate(1891 14030)">
      <g id="Elipse_5327" data-name="Elipse 5327" transform="translate(-1606 -5436)" fill="#fff" stroke="#aab2d3" stroke-width="3">
        <circle cx="83" cy="83" r="83" stroke="none"/>
        <circle cx="83" cy="83" r="81.5" fill="none"/>
      </g>
    </g>
    <g id="Grupo_138325" data-name="Grupo 138325" transform="translate(326.528 8640.545)">
      <g id="Grupo_138324" data-name="Grupo 138324" transform="translate(0.805 2.146)">
        <g id="Grupo_138323" data-name="Grupo 138323">
          <g id="Grupo_138322" data-name="Grupo 138322" transform="translate(4.401)">
            <path id="Trazado_194867" data-name="Trazado 194867" d="M75.987,55.871a7.273,7.273,0,0,1-7.271,7.269H8.156V4.658H75.987V55.871Z" transform="translate(-5.87 -2.373)" fill="#fff"/>
            <path id="Trazado_194868" data-name="Trazado 194868" d="M68.489,65.2H7.929a2.286,2.286,0,0,1-2.286-2.286V4.431A2.286,2.286,0,0,1,7.929,2.146H75.76a2.286,2.286,0,0,1,2.286,2.285V55.645A9.568,9.568,0,0,1,68.489,65.2ZM10.215,60.628H68.489a4.99,4.99,0,0,0,4.984-4.984V6.718H10.215Z" transform="translate(-5.643 -2.146)" fill="#0d2380"/>
          </g>
          <path id="Trazado_194869" data-name="Trazado 194869" d="M79.853,6.718H3.091a2.286,2.286,0,0,1,0-4.572H79.853a2.286,2.286,0,0,1,0,4.572Z" transform="translate(-0.805 -2.146)" fill="#0d2380"/>
          <path id="Trazado_194870" data-name="Trazado 194870" d="M25.6,87.753a2.285,2.285,0,0,1-1.858-3.614L35.711,67.385a2.286,2.286,0,1,1,3.719,2.658L27.462,86.8A2.281,2.281,0,0,1,25.6,87.753Z" transform="translate(-2.837 -7.949)" fill="#0d2380"/>
          <path id="Trazado_194871" data-name="Trazado 194871" d="M63.635,87.753a2.28,2.28,0,0,1-1.861-.957L49.8,70.043a2.286,2.286,0,1,1,3.719-2.658l11.97,16.754a2.285,2.285,0,0,1-1.858,3.614Z" transform="translate(-5.19 -7.949)" fill="#0d2380"/>
          <path id="Trazado_194872" data-name="Trazado 194872" d="M28.422,57.088A2.286,2.286,0,0,1,26.136,54.8V41.551a2.286,2.286,0,0,1,4.572,0V54.8A2.286,2.286,0,0,1,28.422,57.088Z" transform="translate(-3.092 -5.497)" fill="#0d2380"/>
          <path id="Trazado_194873" data-name="Trazado 194873" d="M44.385,56.281A2.286,2.286,0,0,1,42.1,54V32.625a2.286,2.286,0,1,1,4.572,0V54A2.286,2.286,0,0,1,44.385,56.281Z" transform="translate(-4.533 -4.691)" fill="#0d2380"/>
          <path id="Trazado_194874" data-name="Trazado 194874" d="M62.461,56.917a2.286,2.286,0,0,1-2.286-2.285V39.671a2.286,2.286,0,0,1,4.572,0V54.632A2.286,2.286,0,0,1,62.461,56.917Z" transform="translate(-6.164 -5.327)" fill="#0d2380"/>
          <path id="Trazado_194875" data-name="Trazado 194875" d="M19.134,34.922a2.286,2.286,0,0,1-1.415-4.083L35.673,16.729a2.287,2.287,0,0,1,2.5-.214L55.7,25.977l9.285-9.085a2.286,2.286,0,1,1,3.2,3.268L57.694,30.422a2.285,2.285,0,0,1-2.684.378l-17.69-9.55L20.545,34.434A2.275,2.275,0,0,1,19.134,34.922Z" transform="translate(-2.253 -3.418)" fill="#0d2380"/>
        </g>
      </g>
    </g>
  </g>
</svg>
