<svg xmlns="http://www.w3.org/2000/svg" xmlns:xlink="http://www.w3.org/1999/xlink" width="405.657" height="207.264" viewBox="0 0 405.657 207.264">
  <defs>
    <clipPath id="clip-path">
      <rect id="Rectángulo_82938" data-name="Rectángulo 82938" width="304.087" height="186" fill="#fff2bf"/>
    </clipPath>
    <clipPath id="clip-path-2">
      <path id="Trazado_193778" data-name="Trazado 193778" d="M27.763,23.826a11.247,11.247,0,0,1,1.3,5.722c-.117,2.22-2.22,3.557-3.8,4.713,1.346,1.763,4.376,4.465,10.291,4.465s8.945-2.7,10.294-4.465c-1.576-1.156-3.68-2.493-3.8-4.713a11.247,11.247,0,0,1,1.3-5.722Z" transform="translate(-25.264 -23.826)" fill="none"/>
    </clipPath>
    <linearGradient id="linear-gradient" x1="-3.763" y1="10.891" x2="-3.614" y2="10.891" gradientUnits="objectBoundingBox">
      <stop offset="0" stop-color="#fff2bf"/>
      <stop offset="1" stop-color="#ffffcd"/>
    </linearGradient>
    <clipPath id="clip-path-3">
      <path id="Trazado_193779" data-name="Trazado 193779" d="M24.727,30.249c0,7.163,5.345,12.968,11.938,12.968S48.6,37.412,48.6,30.249,43.26,17.281,36.665,17.281,24.727,23.089,24.727,30.249" transform="translate(-24.727 -17.281)" fill="none"/>
    </clipPath>
    <linearGradient id="linear-gradient-2" x1="-3.176" y1="7.031" x2="-3.047" y2="7.031" xlink:href="#linear-gradient"/>
  </defs>
  <g id="Grupo_137685" data-name="Grupo 137685" transform="translate(6077 8760)">
    <g id="Grupo_137678" data-name="Grupo 137678" transform="translate(-5975.431 -8760)" opacity="0.8">
      <g id="Grupo_137677" data-name="Grupo 137677">
        <g id="Grupo_137676" data-name="Grupo 137676" clip-path="url(#clip-path)">
          <path id="Trazado_193748" data-name="Trazado 193748" d="M332.47,186H45.378a8.989,8.989,0,0,1-6.009-2.229,7.234,7.234,0,0,1-2.487-5.389V7.612a7.215,7.215,0,0,1,2.487-5.384A8.989,8.989,0,0,1,45.378,0H332.47a8.989,8.989,0,0,1,6.009,2.229,7.215,7.215,0,0,1,2.487,5.384V178.381a7.234,7.234,0,0,1-2.487,5.389A8.989,8.989,0,0,1,332.47,186" transform="translate(-36.879 0)" fill="#fff2bf"/>
        </g>
      </g>
    </g>
    <path id="Trazado_193749" data-name="Trazado 193749" d="M91.472,10.134A53.253,53.253,0,1,0,141.3,86.527L91.472,64.571Z" transform="translate(-5963.754 -8714.34)" fill="#23378b"/>
    <path id="Trazado_193750" data-name="Trazado 193750" d="M100.118,75.548A53.3,53.3,0,0,0,81.655,12.5l-28.22,42.48Z" transform="translate(-5921.065 -8706.783)" fill="#fc502d"/>
    <path id="Trazado_193751" data-name="Trazado 193751" d="M79.238,17.984a52.938,52.938,0,0,0-26.02-7.85V57.161Z" transform="translate(-5921.76 -8714.34)" fill="#fc502d"/>
    <path id="Trazado_193752" data-name="Trazado 193752" d="M57.117,22.606a1.05,1.05,0,0,1-1.05-1.05V5.86a1.05,1.05,0,0,1,1.05-1.05h67.589a1.05,1.05,0,1,1,0,2.1H58.166V21.556a1.05,1.05,0,0,1-1.05,1.05" transform="translate(-5912.648 -8731.367)" fill="#fc502d"/>
    <path id="Trazado_193753" data-name="Trazado 193753" d="M81.473,8.973A5.141,5.141,0,1,1,76.33,3.835a5.142,5.142,0,0,1,5.143,5.138" transform="translate(-5864.277 -8734.484)" fill="#fc502d"/>
    <path id="Trazado_193754" data-name="Trazado 193754" d="M95.471,19.728H66.257a1.05,1.05,0,1,1,0-2.1H95.471a1.05,1.05,0,0,1,0,2.1" transform="translate(-5883.418 -8690.369)" fill="#fc502d"/>
    <path id="Trazado_193755" data-name="Trazado 193755" d="M81.473,21.793a5.141,5.141,0,1,1-5.143-5.138,5.142,5.142,0,0,1,5.143,5.138" transform="translate(-5864.277 -8693.485)" fill="#fc502d"/>
    <path id="Trazado_193756" data-name="Trazado 193756" d="M95.471,32.549H66.257a1.05,1.05,0,1,1,0-2.1H95.471a1.05,1.05,0,0,1,0,2.1" transform="translate(-5883.418 -8649.368)" fill="#23378b"/>
    <path id="Trazado_193757" data-name="Trazado 193757" d="M81.473,34.613a5.141,5.141,0,1,1-5.143-5.138,5.142,5.142,0,0,1,5.143,5.138" transform="translate(-5864.277 -8652.486)" fill="#23378b"/>
    <path id="Trazado_193758" data-name="Trazado 193758" d="M84.747,19.774a.677.677,0,0,1-.206.487.667.667,0,0,1-.483.206h-1.05a.7.7,0,0,1-.693-.693V5.681L78.177,8.826a.583.583,0,0,1-.512.155.841.841,0,0,1-.466-.256l-.609-.793a.654.654,0,0,1-.143-.512.678.678,0,0,1,.269-.462L82.19,2.764a.873.873,0,0,1,.407-.181,3.382,3.382,0,0,1,.411-.025h1.05a.651.651,0,0,1,.483.206.67.67,0,0,1,.206.487Z" transform="translate(-5847.492 -8738.567)" fill="#fc502d"/>
    <path id="Trazado_193759" data-name="Trazado 193759" d="M92.312,9.558c.017.768.025,1.49.025,2.162s-.008,1.394-.025,2.162a9.976,9.976,0,0,1-.42,2.775A6.326,6.326,0,0,1,90.7,18.895a5.446,5.446,0,0,1-2.007,1.486,8.11,8.11,0,0,1-5.806,0,5.445,5.445,0,0,1-2.007-1.486,6.327,6.327,0,0,1-1.192-2.238,9.975,9.975,0,0,1-.42-2.775c-.017-.768-.025-1.49-.025-2.162s.008-1.394.025-2.162a10,10,0,0,1,.42-2.775A6.327,6.327,0,0,1,80.88,4.546a5.568,5.568,0,0,1,2.007-1.5,7.937,7.937,0,0,1,5.806,0,5.569,5.569,0,0,1,2.007,1.5,6.326,6.326,0,0,1,1.192,2.238,10,10,0,0,1,.42,2.775M81.67,13.882a5.425,5.425,0,0,0,1.092,3.581,4.563,4.563,0,0,0,6.058,0,5.425,5.425,0,0,0,1.091-3.581c.017-.768.025-1.49.025-2.162s-.008-1.394-.025-2.162a5.479,5.479,0,0,0-1.091-3.594,4.526,4.526,0,0,0-6.058,0A5.479,5.479,0,0,0,81.67,9.558c-.017.768-.025,1.49-.025,2.162s.008,1.394.025,2.162" transform="translate(-5838.529 -8738.764)" fill="#fc502d"/>
    <path id="Trazado_193760" data-name="Trazado 193760" d="M86.786,2.528A3.512,3.512,0,0,1,89.519,3.54a3.913,3.913,0,0,1,1,2.544c.017.239.025.445.025.613v.949c0,.151-.008.34-.025.563a3.862,3.862,0,0,1-1,2.531,4.249,4.249,0,0,1-5.474,0,3.88,3.88,0,0,1-.995-2.531c-.017-.222-.034-.411-.042-.563S83,7.335,83,7.184s0-.315.013-.487.025-.374.042-.613a3.931,3.931,0,0,1,.995-2.544,3.537,3.537,0,0,1,2.741-1.012m10.336.613a1.548,1.548,0,0,1,.369-.357.956.956,0,0,1,.546-.126h.974a.664.664,0,0,1,.445.139.454.454,0,0,1,.168.369.773.773,0,0,1-.025.13.51.51,0,0,1-.076.151L86.887,20.076a1.584,1.584,0,0,1-.374.361,1,1,0,0,1-.55.126h-.97a.645.645,0,0,1-.445-.143.458.458,0,0,1-.172-.369.861.861,0,0,1,.025-.13.879.879,0,0,1,.08-.151ZM88.549,6.159a2.272,2.272,0,0,0-.462-1.251,1.85,1.85,0,0,0-2.607,0,2.3,2.3,0,0,0-.462,1.251q-.025.334-.038.554c-.008.143-.013.277-.013.407s0,.269.013.42.021.353.038.588a2.253,2.253,0,0,0,.462,1.243,1.881,1.881,0,0,0,2.607,0,2.222,2.222,0,0,0,.462-1.243c.017-.235.025-.432.025-.588V6.713q0-.22-.025-.554m8.85,5.323a3.513,3.513,0,0,1,2.737,1.012,3.913,3.913,0,0,1,1,2.544c.017.235.025.441.025.613V16.6c0,.151-.008.336-.025.558a3.881,3.881,0,0,1-1,2.536,4.257,4.257,0,0,1-5.47,0,3.906,3.906,0,0,1-1-2.536c-.017-.222-.025-.407-.034-.558s-.013-.311-.013-.462,0-.319.013-.487.017-.378.034-.613a3.938,3.938,0,0,1,1-2.544A3.5,3.5,0,0,1,97.4,11.483m1.767,3.631a2.331,2.331,0,0,0-.462-1.255,1.855,1.855,0,0,0-2.611,0,2.294,2.294,0,0,0-.458,1.255c-.021.222-.034.407-.042.55s-.013.281-.013.411,0,.264.013.42.021.348.042.588a2.218,2.218,0,0,0,.458,1.243,1.887,1.887,0,0,0,2.611,0,2.253,2.253,0,0,0,.462-1.243c.017-.239.025-.432.025-.588v-.831c0-.143-.008-.327-.025-.55" transform="translate(-5826.53 -8738.665)" fill="#fc502d"/>
    <path id="Trazado_193761" data-name="Trazado 193761" d="M78.426,28.96a4.1,4.1,0,0,0,.361.819,2.214,2.214,0,0,0,.689.73,4.075,4.075,0,0,0,1.217.525,7.748,7.748,0,0,0,1.956.2,5.681,5.681,0,0,0,1.507-.193,3.62,3.62,0,0,0,1.255-.6,3.156,3.156,0,0,0,.856-1.012,3.037,3.037,0,0,0,.319-1.448,2.933,2.933,0,0,0-.306-1.394,2.51,2.51,0,0,0-.831-.919,3.558,3.558,0,0,0-1.243-.5,7.5,7.5,0,0,0-1.557-.155H80.525a.673.673,0,0,1-.487-.2.656.656,0,0,1-.2-.487V23.41a.712.712,0,0,1,.139-.424c.1-.126.181-.239.269-.344l4.6-4.962H77.478a.651.651,0,0,1-.483-.206.677.677,0,0,1-.206-.487v-.919a.677.677,0,0,1,.206-.487.663.663,0,0,1,.483-.2H87.561a.7.7,0,0,1,.688.688v.919a.843.843,0,0,1-.13.449,1.993,1.993,0,0,1-.332.42l-4.526,4.891a7.4,7.4,0,0,1,2.343.395,5.354,5.354,0,0,1,1.818,1.05A4.8,4.8,0,0,1,88.6,25.824a5.411,5.411,0,0,1,.42,2.162,5.146,5.146,0,0,1-1.881,4.081,6.222,6.222,0,0,1-2.019,1.087,7.834,7.834,0,0,1-2.468.386,9.736,9.736,0,0,1-2.955-.4,6.183,6.183,0,0,1-2.049-1.05,4.33,4.33,0,0,1-1.2-1.457,3.968,3.968,0,0,1-.42-1.65.566.566,0,0,1,.558-.563h1.18a.585.585,0,0,1,.445.168.768.768,0,0,1,.218.369" transform="translate(-5848.82 -8697.565)" fill="#fc502d"/>
    <path id="Trazado_193762" data-name="Trazado 193762" d="M92.841,22.375c.017.768.025,1.49.025,2.162s-.008,1.394-.025,2.162a9.977,9.977,0,0,1-.42,2.775,6.326,6.326,0,0,1-1.192,2.238A5.446,5.446,0,0,1,89.222,33.2a8.11,8.11,0,0,1-5.806,0,5.5,5.5,0,0,1-2.011-1.486,6.387,6.387,0,0,1-1.188-2.238A9.976,9.976,0,0,1,79.8,26.7c-.017-.768-.025-1.486-.025-2.162s.008-1.394.025-2.162a10,10,0,0,1,.42-2.775,6.387,6.387,0,0,1,1.188-2.238,5.669,5.669,0,0,1,2.011-1.5,7.994,7.994,0,0,1,5.806,0,5.617,5.617,0,0,1,2.007,1.5A6.326,6.326,0,0,1,92.421,19.6a10,10,0,0,1,.42,2.775M82.2,26.7A5.425,5.425,0,0,0,83.29,30.28a4.563,4.563,0,0,0,6.058,0A5.425,5.425,0,0,0,90.439,26.7c.017-.768.025-1.486.025-2.162s-.008-1.394-.025-2.162a5.487,5.487,0,0,0-1.092-3.594,4.526,4.526,0,0,0-6.058,0A5.487,5.487,0,0,0,82.2,22.375c-.017.768-.025,1.49-.025,2.162s.008,1.394.025,2.162" transform="translate(-5836.838 -8697.762)" fill="#fc502d"/>
    <path id="Trazado_193763" data-name="Trazado 193763" d="M87.316,15.348a3.512,3.512,0,0,1,2.733,1.012,3.921,3.921,0,0,1,1,2.544c.017.239.025.445.025.613v.949c0,.151-.008.34-.025.563a3.862,3.862,0,0,1-1,2.531,4.249,4.249,0,0,1-5.474,0,3.88,3.88,0,0,1-.995-2.531c-.017-.222-.034-.411-.042-.563s-.013-.306-.013-.462,0-.315.013-.487.025-.374.042-.613a3.94,3.94,0,0,1,.995-2.544,3.537,3.537,0,0,1,2.741-1.012m10.336.613a1.633,1.633,0,0,1,.369-.357.99.99,0,0,1,.546-.126h.974a.664.664,0,0,1,.445.139.454.454,0,0,1,.168.369,1.194,1.194,0,0,1-.021.13.657.657,0,0,1-.08.151L87.417,32.9a1.583,1.583,0,0,1-.374.361,1,1,0,0,1-.55.126h-.97a.645.645,0,0,1-.445-.143.458.458,0,0,1-.172-.369.762.762,0,0,1,.025-.126.778.778,0,0,1,.08-.155Zm-8.573,3.018a2.272,2.272,0,0,0-.462-1.251,1.85,1.85,0,0,0-2.607,0,2.3,2.3,0,0,0-.462,1.251q-.025.334-.038.554c-.008.143-.013.277-.013.407s0,.269.013.42.021.353.038.588a2.253,2.253,0,0,0,.462,1.243,1.881,1.881,0,0,0,2.607,0,2.222,2.222,0,0,0,.462-1.243c.017-.235.025-.432.025-.588v-.827q0-.22-.025-.554m8.85,5.323a3.513,3.513,0,0,1,2.737,1.012,3.913,3.913,0,0,1,1,2.544c.017.239.025.441.025.613v.949c0,.151-.008.34-.025.558a3.881,3.881,0,0,1-1,2.536,4.257,4.257,0,0,1-5.47,0,3.906,3.906,0,0,1-1-2.536c-.013-.218-.025-.407-.034-.558s-.013-.311-.013-.462,0-.319.013-.487.021-.374.034-.613a3.938,3.938,0,0,1,1-2.544A3.5,3.5,0,0,1,97.929,24.3M99.7,27.934a2.331,2.331,0,0,0-.462-1.255,1.855,1.855,0,0,0-2.611,0,2.294,2.294,0,0,0-.458,1.255c-.021.222-.034.407-.042.55s-.013.281-.013.411,0,.269.013.42.021.348.042.588a2.218,2.218,0,0,0,.458,1.243,1.887,1.887,0,0,0,2.611,0A2.253,2.253,0,0,0,99.7,29.9c.017-.239.025-.432.025-.588v-.831c0-.143-.008-.327-.025-.55" transform="translate(-5824.835 -8697.665)" fill="#fc502d"/>
    <path id="Trazado_193764" data-name="Trazado 193764" d="M81.742,34.156a3.7,3.7,0,0,1,.449-.088,3.455,3.455,0,0,1,.474-.038,7.16,7.16,0,0,1,2.649.474,6.424,6.424,0,0,1,2.095,1.3,6.03,6.03,0,0,1,0,8.774,6.433,6.433,0,0,1-2.095,1.306,7.633,7.633,0,0,1-5.3,0,6.453,6.453,0,0,1-2.1-1.306,6.106,6.106,0,0,1-1.381-1.956,5.937,5.937,0,0,1-.5-2.431,5.56,5.56,0,0,1,.164-1.381,6.779,6.779,0,0,1,.432-1.2,9.562,9.562,0,0,1,.6-1.075c.222-.344.445-.667.663-.97l4.66-6.86a3.344,3.344,0,0,0,.281-.319.607.607,0,0,1,.508-.189h1.461a.463.463,0,0,1,.369.164.608.608,0,0,1,.143.395.406.406,0,0,1-.042.206.5.5,0,0,1-.084.126Zm-3.27,6.037a3.674,3.674,0,0,0,.29,1.461,3.889,3.889,0,0,0,2.149,2.082,4.913,4.913,0,0,0,3.505,0,3.853,3.853,0,0,0,2.149-2.082,3.768,3.768,0,0,0,0-2.918,3.93,3.93,0,0,0-.831-1.23,3.979,3.979,0,0,0-1.318-.856,4.974,4.974,0,0,0-3.505,0,3.878,3.878,0,0,0-2.149,2.086,3.668,3.668,0,0,0-.29,1.457" transform="translate(-5848.769 -8656.565)" fill="#23378b"/>
    <path id="Trazado_193765" data-name="Trazado 193765" d="M92.851,35.195c.017.768.025,1.49.025,2.162s-.008,1.394-.025,2.162a9.822,9.822,0,0,1-.424,2.775,6.252,6.252,0,0,1-1.188,2.238,5.446,5.446,0,0,1-2.007,1.486,8.11,8.11,0,0,1-5.806,0,5.5,5.5,0,0,1-2.011-1.486,6.386,6.386,0,0,1-1.188-2.238,9.975,9.975,0,0,1-.42-2.775c-.017-.768-.025-1.486-.025-2.162s.008-1.394.025-2.162a10,10,0,0,1,.42-2.775,6.386,6.386,0,0,1,1.188-2.238,5.67,5.67,0,0,1,2.011-1.5,7.994,7.994,0,0,1,5.806,0,5.617,5.617,0,0,1,2.007,1.5,6.252,6.252,0,0,1,1.188,2.238,9.845,9.845,0,0,1,.424,2.775M82.209,39.519A5.425,5.425,0,0,0,83.3,43.1a4.551,4.551,0,0,0,6.058,0,5.425,5.425,0,0,0,1.091-3.581c.017-.768.025-1.486.025-2.162s-.008-1.394-.025-2.162A5.487,5.487,0,0,0,89.358,31.6a4.526,4.526,0,0,0-6.058,0,5.487,5.487,0,0,0-1.092,3.594c-.017.768-.025,1.49-.025,2.162s.008,1.394.025,2.162" transform="translate(-5836.805 -8656.762)" fill="#23378b"/>
    <path id="Trazado_193766" data-name="Trazado 193766" d="M87.322,28.168a3.5,3.5,0,0,1,2.733,1.012,3.938,3.938,0,0,1,1,2.544c.013.239.021.445.021.613v.949c0,.151-.008.34-.021.563a3.886,3.886,0,0,1-1,2.531,4.243,4.243,0,0,1-5.47,0,3.861,3.861,0,0,1-1-2.531c-.017-.222-.034-.411-.042-.563s-.008-.311-.008-.462,0-.315.008-.487.025-.374.042-.613a3.912,3.912,0,0,1,1-2.544,3.507,3.507,0,0,1,2.737-1.012m10.336.613a1.547,1.547,0,0,1,.369-.357.961.961,0,0,1,.55-.126h.97a.664.664,0,0,1,.445.139.454.454,0,0,1,.168.369.62.62,0,0,1-.021.13.658.658,0,0,1-.08.151L87.422,45.716a1.585,1.585,0,0,1-.374.361,1,1,0,0,1-.55.126h-.97a.645.645,0,0,1-.445-.143.454.454,0,0,1-.168-.369s.008-.076.021-.13a.873.873,0,0,1,.08-.151ZM89.085,31.8a2.273,2.273,0,0,0-.462-1.251,1.85,1.85,0,0,0-2.607,0,2.305,2.305,0,0,0-.462,1.251c-.017.222-.029.407-.038.55s-.013.281-.013.411,0,.269.013.42.021.353.038.588a2.254,2.254,0,0,0,.462,1.243,1.881,1.881,0,0,0,2.607,0,2.223,2.223,0,0,0,.462-1.243c.017-.235.029-.432.029-.588v-.831c0-.143-.013-.327-.029-.55m8.85,5.323a3.542,3.542,0,0,1,2.741,1.008,3.952,3.952,0,0,1,.995,2.548c.017.239.025.441.025.613v.949c0,.151-.008.34-.025.558a3.9,3.9,0,0,1-.995,2.536,4.263,4.263,0,0,1-5.474,0,3.906,3.906,0,0,1-1-2.536c-.013-.218-.025-.407-.034-.558s-.013-.311-.013-.462,0-.319.013-.487.021-.374.034-.613a3.958,3.958,0,0,1,1-2.548,3.51,3.51,0,0,1,2.733-1.008M99.7,40.754A2.331,2.331,0,0,0,99.24,39.5a1.85,1.85,0,0,0-2.607,0,2.266,2.266,0,0,0-.462,1.255c-.021.222-.034.407-.038.55s-.017.281-.017.411.008.264.017.42.017.348.038.588a2.192,2.192,0,0,0,.462,1.243,1.881,1.881,0,0,0,2.607,0,2.253,2.253,0,0,0,.462-1.243c.017-.239.025-.432.025-.588V41.3c0-.143-.008-.327-.025-.55" transform="translate(-5824.803 -8656.665)" fill="#23378b"/>
    <path id="Trazado_193767" data-name="Trazado 193767" d="M2.064,66.017H34.184a2.062,2.062,0,0,0,2.064-2.064V31.833a2.062,2.062,0,0,0-2.064-2.064H2.064A2.062,2.062,0,0,0,0,31.833V63.953a2.062,2.062,0,0,0,2.064,2.064" transform="translate(-6077 -8726.555)" fill="#fff"/>
    <path id="Trazado_193768" data-name="Trazado 193768" d="M19.084,50.917a2.064,2.064,0,0,0,1.46-3.523L6.466,33.316a2.064,2.064,0,0,0-2.919,2.919L17.624,50.313a2.062,2.062,0,0,0,1.46.6" transform="translate(-6070.921 -8720.477)" fill="#fc502d"/>
    <path id="Trazado_193769" data-name="Trazado 193769" d="M5.006,50.917a2.062,2.062,0,0,0,1.46-.6L20.544,36.235a2.064,2.064,0,0,0-2.919-2.919L3.547,47.393a2.064,2.064,0,0,0,1.46,3.523" transform="translate(-6070.921 -8720.477)" fill="#fc502d"/>
    <path id="Trazado_193770" data-name="Trazado 193770" d="M2.064,51.872H34.184a2.062,2.062,0,0,0,2.064-2.064V17.688a2.062,2.062,0,0,0-2.064-2.064H2.064A2.062,2.062,0,0,0,0,17.688V49.808a2.062,2.062,0,0,0,2.064,2.064" transform="translate(-6077 -8755.783)" fill="#fff"/>
    <path id="Trazado_193771" data-name="Trazado 193771" d="M11.923,37.731a2.056,2.056,0,0,1-1.46-.6L2.543,29.206a2.064,2.064,0,0,1,2.919-2.919l6.3,6.3,10.877-13.44a2.065,2.065,0,1,1,3.211,2.6L13.526,36.964a2.055,2.055,0,0,1-1.5.764Z" transform="translate(-6072.997 -8750.092)" fill="#0d2380"/>
    <path id="Trazado_193772" data-name="Trazado 193772" d="M11.032,33.326V47.757l14.431-7.215Z" transform="translate(-6054.205 -8719.205)" fill="#fff"/>
    <path id="Trazado_193773" data-name="Trazado 193773" d="M11.032,19.306V33.737l14.431-7.215Z" transform="translate(-6054.205 -8748.176)" fill="#fff"/>
    <path id="Trazado_193774" data-name="Trazado 193774" d="M31.464,56.292v-11.6a21.387,21.387,0,0,0-6.09-15.163c-5.854,8.561-4.3,21.581-2.039,28.91C26.485,68.671,33.09,70.98,43.724,70.98c-5.526,0-12.259-5.921-12.259-14.688" transform="translate(-6032.963 -8727.053)" fill="#fc502d"/>
    <path id="Trazado_193775" data-name="Trazado 193775" d="M40.88,56.292v-11.6a21.387,21.387,0,0,1,6.09-15.163c5.854,8.561,4.3,21.581,2.039,28.91C45.859,68.671,39.254,70.98,28.62,70.98c5.526,0,12.26-5.921,12.26-14.688" transform="translate(-6017.86 -8727.053)" fill="#fc502d"/>
    <path id="Trazado_193776" data-name="Trazado 193776" d="M53.612,35.8a14.93,14.93,0,1,1-14.93-14.93A14.931,14.931,0,0,1,53.612,35.8" transform="translate(-6027.921 -8744.941)" fill="#0d2380"/>
    <path id="Trazado_193777" data-name="Trazado 193777" d="M53.9,28.906c-.852-.58-1.772-1.1-2.619-1.677-1.346,1.628-4.376,4.124-10.291,4.124s-8.948-2.5-10.294-4.124c-.846.573-1.766,1.1-2.619,1.677a20.338,20.338,0,0,0-5.437,5.372,21.389,21.389,0,0,1,6.09,15.166v11.6c0,8.77,6.731,14.688,12.26,14.688s12.256-5.918,12.256-14.688v-11.6a21.389,21.389,0,0,1,6.09-15.166A20.337,20.337,0,0,0,53.9,28.906" transform="translate(-6030.223 -8731.803)" fill="#fc502d"/>
    <g id="Grupo_137682" data-name="Grupo 137682" transform="translate(-5999.531 -8715.01)">
      <g id="Grupo_137681" data-name="Grupo 137681" clip-path="url(#clip-path-2)">
        <rect id="Rectángulo_82940" data-name="Rectángulo 82940" width="20.585" height="14.9" transform="translate(0 0.001)" fill="url(#linear-gradient)"/>
      </g>
    </g>
    <g id="Grupo_137684" data-name="Grupo 137684" transform="translate(-6001.177 -8735.08)">
      <g id="Grupo_137683" data-name="Grupo 137683" clip-path="url(#clip-path-3)">
        <rect id="Rectángulo_82941" data-name="Rectángulo 82941" width="23.875" height="25.936" transform="translate(0 0.001)" fill="url(#linear-gradient-2)"/>
      </g>
    </g>
    <path id="Trazado_193780" data-name="Trazado 193780" d="M45.733,29.253c-2.7,3.005-4.5,6.5-1.935,13.55,1.061,2.925-.69,7.292-2.6,9.662-5.038,6.249-9.779,10.441-10.625,24.166,0,0-9.9-5.182-13.3-15.2-3.612-10.65,19.318-16.421,17.9-24.6C33.3,26.036,37.941,14.6,45.705,15.773c4.658.705,6.065,6.771.028,13.48" transform="translate(-6042.112 -8755.648)" fill="#0d2380"/>
    <path id="Trazado_193781" data-name="Trazado 193781" d="M22.451,63.7a.342.342,0,0,1-.178-.052A9.2,9.2,0,0,1,19.339,51.87a12.962,12.962,0,0,1,3.4-3.8c1.07-.859,2.223-1.641,3.339-2.395s2.248-1.518,3.3-2.361a12.168,12.168,0,0,0,4.566-6.344,16.264,16.264,0,0,0-.083-6.117c-.126-.938-.261-1.91-.319-2.867a12.362,12.362,0,0,1,2.373-8.62,7.5,7.5,0,0,1,8.334-2.514.325.325,0,0,1-.245.6,6.84,6.84,0,0,0-7.586,2.324,11.72,11.72,0,0,0-2.226,8.169c.055.932.187,1.892.316,2.818a17,17,0,0,1,.067,6.36,12.78,12.78,0,0,1-4.79,6.7c-1.073.862-2.226,1.641-3.342,2.395s-2.248,1.521-3.3,2.364a12.286,12.286,0,0,0-3.238,3.6,8.632,8.632,0,0,0,2.72,10.919.325.325,0,0,1-.178.6" transform="translate(-6039.181 -8754.15)" fill="#47589e"/>
    <path id="Trazado_193782" data-name="Trazado 193782" d="M21.866,60.13a.326.326,0,0,1-.285-.169,10.108,10.108,0,0,1-.264-9.126,19.933,19.933,0,0,1,4.9-5.771c2.042-1.861,3.968-3.621,4.94-6.041,1.1-2.738.745-5.832.4-8.822-.377-3.238-.61-6.375.635-9.126a7.373,7.373,0,0,1,4-3.747,4.864,4.864,0,0,1,3.812.071.325.325,0,0,1,.156.432.329.329,0,0,1-.432.159,4.223,4.223,0,0,0-3.312-.052,6.7,6.7,0,0,0-3.628,3.407c-1.178,2.6-.944,5.636-.58,8.782.359,3.069.727,6.246-.438,9.141-1.03,2.554-3.1,4.446-5.1,6.277A19.4,19.4,0,0,0,21.9,51.118a9.462,9.462,0,0,0,.248,8.531.328.328,0,0,1-.129.442.321.321,0,0,1-.156.04" transform="translate(-6034.938 -8752.99)" fill="#47589e"/>
    <path id="Trazado_193783" data-name="Trazado 193783" d="M22.6,52.479a.32.32,0,0,1-.15-.037A.328.328,0,0,1,22.309,52a22.249,22.249,0,0,1,3.41-4.431c1.821-2,3.542-3.888,4-6.387A13.711,13.711,0,0,0,29.334,36a25.5,25.5,0,0,1-.494-3.106,12.88,12.88,0,0,1,3.511-9.77c.368-.383.773-.757,1.162-1.119,1.337-1.245,2.6-2.419,2.824-4.057a.321.321,0,0,1,.365-.276.326.326,0,0,1,.279.368c-.258,1.864-1.665,3.174-3.027,4.44-.383.356-.779.724-1.135,1.095a12.223,12.223,0,0,0-3.333,9.27,24.86,24.86,0,0,0,.485,3.027,14.422,14.422,0,0,1,.389,5.434c-.494,2.68-2.358,4.725-4.164,6.706a21.817,21.817,0,0,0-3.312,4.3.327.327,0,0,1-.288.175" transform="translate(-6030.978 -8751.564)" fill="#47589e"/>
    <path id="Trazado_193784" data-name="Trazado 193784" d="M27.818,24.106c4.449,7.074,10.775,3.621,12.845,10.941,1.539,5.437-1.407,8.844.031,12.968,1.04,2.977,3.287,2.993,3.649,7.77.392,5.136,5.237,8.2,7.838,12.428C55.1,72.957,54.1,81.724,54.1,81.724,60,76.346,66.651,66.469,67.319,58.156c.767-9.586-12.867-12.072-16.93-16.053-3.263-3.2,1.889-19.355-10.778-26.135-9.3-4.977-14.875,3.238-11.793,8.138" transform="translate(-6021.28 -8758.266)" fill="#0d2380"/>
    <path id="Trazado_193785" data-name="Trazado 193785" d="M54.324,65.529A.325.325,0,0,1,54,65.207a10.589,10.589,0,0,0-3.511-7.73c-.561-.5-1.2-.963-1.821-1.414-1.591-1.153-3.235-2.346-3.827-4.253a9.221,9.221,0,0,1-.255-3,6.692,6.692,0,0,0-.442-3.281,6.716,6.716,0,0,0-1-1.343,10.482,10.482,0,0,1-.8-.981c-1.4-2.033-1.211-4.554-1.024-6.991a28.42,28.42,0,0,0,.123-2.962,12.251,12.251,0,0,0-5.952-9.972c-.721-.42-1.53-.8-2.315-1.171C30.8,21,28.348,19.839,27.575,17.34a.324.324,0,0,1,.619-.19c.69,2.223,2.91,3.269,5.259,4.376.794.374,1.619.76,2.364,1.2a12.9,12.9,0,0,1,6.274,10.512,28.729,28.729,0,0,1-.126,3.033c-.184,2.432-.359,4.728.911,6.574a10.184,10.184,0,0,0,.751.92,7.311,7.311,0,0,1,1.095,1.475,7.3,7.3,0,0,1,.512,3.594,8.844,8.844,0,0,0,.224,2.787c.53,1.7,2.015,2.781,3.588,3.922.635.457,1.288.932,1.874,1.45A11.25,11.25,0,0,1,54.649,65.2a.326.326,0,0,1-.325.328" transform="translate(-6020.05 -8753.105)" fill="#47589e"/>
    <path id="Trazado_193786" data-name="Trazado 193786" d="M59.179,67.436a.327.327,0,0,1-.159-.043.323.323,0,0,1-.123-.442c3.618-6.406,6-12.9-1.04-17.049a35.265,35.265,0,0,0-3.83-1.849c-3.8-1.65-7.73-3.355-8.794-8.414a50.671,50.671,0,0,1-.782-6.292c-.429-5.234-.834-10.18-5.069-14.2-3.091-2.931-7.519-4.075-11.015-2.839a.33.33,0,0,1-.417-.2.326.326,0,0,1,.2-.414c3.723-1.315,8.417-.117,11.68,2.981,4.416,4.192,4.851,9.494,5.268,14.618a50.556,50.556,0,0,0,.77,6.213c1,4.731,4.6,6.3,8.417,7.951a35.414,35.414,0,0,1,3.9,1.886c7.546,4.443,4.879,11.557,1.276,17.929a.319.319,0,0,1-.282.166" transform="translate(-6019.279 -8756.73)" fill="#47589e"/>
    <path id="Trazado_193787" data-name="Trazado 193787" d="M53.961,73.146a.32.32,0,0,1-.15-.037.328.328,0,0,1-.138-.442c4.489-8.531,4.321-14.826-.5-18.711a12.338,12.338,0,0,0-1.871-1.162A7.186,7.186,0,0,1,48.3,50.378a7.584,7.584,0,0,1-.773-2.288,7.427,7.427,0,0,0-.638-2,7.453,7.453,0,0,0-1.622-1.831,10.285,10.285,0,0,1-1.46-1.527c-1.294-1.794-1.285-4.069-1.279-6.268,0-.347,0-.687,0-1.024A21.369,21.369,0,0,0,38.5,22.792a15.56,15.56,0,0,0-10.085-6.05.324.324,0,0,1-.282-.362A.331.331,0,0,1,28.5,16.1a15.983,15.983,0,0,1,10.518,6.3,22,22,0,0,1,4.164,13.035c0,.343,0,.687,0,1.036-.006,2.094-.015,4.259,1.156,5.884a9.352,9.352,0,0,0,1.371,1.426,8.013,8.013,0,0,1,1.754,2,8.112,8.112,0,0,1,.7,2.168,6.933,6.933,0,0,0,.7,2.094,6.638,6.638,0,0,0,2.757,2.177,12.874,12.874,0,0,1,1.969,1.23c5.1,4.106,5.32,10.674.665,19.521a.327.327,0,0,1-.288.175" transform="translate(-6018.872 -8754.809)" fill="#47589e"/>
    <path id="Trazado_193788" data-name="Trazado 193788" d="M34.305,74.738c.714,1.187-7.022,9.613-9.4,5.667s8.687-6.853,9.4-5.667" transform="translate(-6026.231 -8634.186)" fill="#0d2380"/>
    <path id="Trazado_193789" data-name="Trazado 193789" d="M42.856,43.046s.84,96.626-2.689,96.626S23.841,80.941,22.047,67.234c-2.113-16.126,7.034-24.188,7.034-24.188Z" transform="translate(-6032.096 -8699.119)" fill="#fc502d"/>
    <path id="Trazado_193790" data-name="Trazado 193790" d="M29.424,74.738c-.714,1.187,7.022,9.613,9.4,5.667s-8.687-6.853-9.4-5.667" transform="translate(-6016.294 -8634.186)" fill="#0d2380"/>
    <path id="Trazado_193791" data-name="Trazado 193791" d="M28.576,43.046s-.84,96.626,2.686,96.626S47.591,80.941,49.385,67.234C51.5,51.108,42.35,43.046,42.35,43.046Z" transform="translate(-6018.132 -8699.119)" fill="#fc502d"/>
    <path id="Trazado_193792" data-name="Trazado 193792" d="M65.611,61.44H27.661a2.393,2.393,0,0,1-2.312-1.772L19.986,39.831A2.4,2.4,0,0,1,22.3,36.808H70.974a2.4,2.4,0,0,1,2.315,3.023L67.926,59.668a2.4,2.4,0,0,1-2.315,1.772" transform="translate(-6035.875 -8712.01)" fill="#0d2380"/>
  </g>
</svg>
