<svg xmlns="http://www.w3.org/2000/svg" xmlns:xlink="http://www.w3.org/1999/xlink" width="405.66" height="226.667" viewBox="0 0 405.66 226.667">
  <defs>
    <clipPath id="clip-path">
      <rect id="Rectángulo_82955" data-name="Rectángulo 82955" width="244.02" height="226.667" fill="none"/>
    </clipPath>
    <clipPath id="clip-path-2">
      <rect id="Rectángulo_82954" data-name="Rectángulo 82954" width="244.018" height="226.666" fill="none"/>
    </clipPath>
    <clipPath id="clip-path-3">
      <rect id="Rectángulo_82953" data-name="Rectángulo 82953" width="83.992" height="52.337" fill="none"/>
    </clipPath>
  </defs>
  <g id="Grupo_137693" data-name="Grupo 137693" transform="translate(6077 7940)">
    <path id="Trazado_193799" data-name="Trazado 193799" d="M133.234,57.476a62.453,62.453,0,0,0-9.631-14.11l11.959-9.273a76.763,76.763,0,0,0-34.335-22.566L97.259,26.089a62.462,62.462,0,0,0-13.684-2.978c-1.115-.112-2.2-.108-3.309-.159L81.721,7.887a76.783,76.783,0,0,0-39.206,8.2l7.44,13.159a62.689,62.689,0,0,0-14.209,9.622L26.132,27.195a76.786,76.786,0,0,0-22.179,33.6L18.52,64.835a62.552,62.552,0,0,0-3.163,14.188c-.086.917-.082,1.82-.133,2.733L.158,80.3A76.825,76.825,0,0,0,8.3,120.019l13.163-7.444a62.277,62.277,0,0,0,9.708,14.338L19.5,136.53a76.8,76.8,0,0,0,34.1,22.286l4.036-14.536a62.306,62.306,0,0,0,13.641,2.956c1.067.108,2.126.108,3.2.155l-1.5,15.061a76.838,76.838,0,0,0,39.542-8.3L105.113,141a62.776,62.776,0,0,0,14.226-9.734l9.579,11.692A76.713,76.713,0,0,0,151.01,109.14l-14.519-4.075a62.384,62.384,0,0,0,2.991-13.736c.108-1.054.1-2.1.159-3.141l15.035,1.67A76.834,76.834,0,0,0,146.4,50.079ZM72.989,129.907a44.951,44.951,0,1,1,49.164-40.3,44.951,44.951,0,0,1-49.164,40.3" transform="translate(-6077 -7910.36)" fill="#fc502d"/>
    <path id="Trazado_193800" data-name="Trazado 193800" d="M150.565,56.011,135.41,57.367a46.569,46.569,0,0,0-4.939-17.388l13.787-6.289A61.609,61.609,0,0,0,129.233,14.4l-9.649,11.672a41.724,41.724,0,0,0-15.973-8.837l5.02-14.348A61.465,61.465,0,0,0,85.141.19l1.5,15.143A46.244,46.244,0,0,0,69,20.225L62.412,6.437a59.7,59.7,0,0,0-13.4,9.024A58.862,58.862,0,0,0,43.575,21.1l11.736,9.836a45.663,45.663,0,0,0-8.779,15.9L32,41.68a62.32,62.32,0,0,0-3,23.9L44.34,64.211a45.086,45.086,0,0,0,3.279,14.062c.5,1.2,1.163,2.291,1.753,3.425L35.3,88.425a60.867,60.867,0,0,0,15.1,18.989l9.9-11.888A46.638,46.638,0,0,0,76.1,104.2l-5.19,14.687A60.131,60.131,0,0,0,93.265,121.9c.491-.029.97-.105,1.455-.146l-1.373-15.441a45.256,45.256,0,0,0,17.353-5.026l6.721,13.957A62.268,62.268,0,0,0,136.2,100.43l-11.952-9.72a45.451,45.451,0,0,0,9.1-15.938L147.783,80c.21-.625.45-1.233.631-1.864a59.579,59.579,0,0,0,2.151-22.122m-93.343.158a32.972,32.972,0,1,1,58.235,25.395A32.975,32.975,0,0,1,57.222,56.169" transform="translate(-5822.144 -7935.997)" fill="#283b8e"/>
    <g id="Grupo_137692" data-name="Grupo 137692" transform="translate(-5982.476 -7940)">
      <g id="Grupo_137691" data-name="Grupo 137691" clip-path="url(#clip-path)">
        <path id="Trazado_193793" data-name="Trazado 193793" d="M0,87.25V196.777H244.018V87.25L122.009,1.575Z" transform="translate(0 4.292)" fill="#fc502d"/>
        <rect id="Rectángulo_82942" data-name="Rectángulo 82942" width="197.378" height="176.761" transform="translate(18.076 0.001)" fill="#fc502d"/>
        <rect id="Rectángulo_82943" data-name="Rectángulo 82943" width="190.958" height="170.341" transform="translate(21.288 3.209)" fill="#fff2bf"/>
        <rect id="Rectángulo_82944" data-name="Rectángulo 82944" width="44.088" height="52.338" transform="translate(143.163 17.469)" fill="#0d2380"/>
        <g id="Grupo_137690" data-name="Grupo 137690" transform="translate(0 0.001)">
          <g id="Grupo_137689" data-name="Grupo 137689" clip-path="url(#clip-path-2)">
            <path id="Trazado_193794" data-name="Trazado 193794" d="M74.474,21.678c-1.658,1.069-3.041,2.541-4.747,3.532A10.353,10.353,0,0,1,58.9,24.8c-3.033-2.09-4.687-5.634-7.244-8.283a13.794,13.794,0,0,0-11.667-4.289,10.327,10.327,0,0,0-1.572.358V36.8H82.508V20.076a11.051,11.051,0,0,0-8.034,1.6" transform="translate(104.739 33.002)" fill="#fc502d"/>
            <rect id="Rectángulo_82945" data-name="Rectángulo 82945" width="140.964" height="6.875" transform="translate(46.286 122.546)" fill="#0d2380"/>
            <rect id="Rectángulo_82946" data-name="Rectángulo 82946" width="140.964" height="6.875" transform="translate(46.286 107.392)" fill="#0d2380"/>
            <rect id="Rectángulo_82947" data-name="Rectángulo 82947" width="140.964" height="6.875" transform="translate(46.286 92.237)" fill="#0d2380"/>
            <rect id="Rectángulo_82948" data-name="Rectángulo 82948" width="140.964" height="6.875" transform="translate(46.286 77.083)" fill="#0d2380"/>
            <g id="Grupo_137688" data-name="Grupo 137688" transform="translate(46.284 17.469)" style="mix-blend-mode: multiply;isolation: isolate">
              <g id="Grupo_137687" data-name="Grupo 137687">
                <g id="Grupo_137686" data-name="Grupo 137686" clip-path="url(#clip-path-3)">
                  <rect id="Rectángulo_82949" data-name="Rectángulo 82949" width="83.991" height="6.875" transform="translate(0.003 45.462)" fill="#0d2380"/>
                  <rect id="Rectángulo_82950" data-name="Rectángulo 82950" width="83.991" height="6.875" transform="translate(0.003 30.308)" fill="#0d2380"/>
                  <rect id="Rectángulo_82951" data-name="Rectángulo 82951" width="83.991" height="6.875" transform="translate(0.003 15.154)" fill="#0d2380"/>
                  <rect id="Rectángulo_82952" data-name="Rectángulo 82952" width="83.991" height="6.875" transform="translate(0.003 -0.001)" fill="#0d2380"/>
                </g>
              </g>
            </g>
            <path id="Trazado_193795" data-name="Trazado 193795" d="M0,24.568V134.094H244.018V24.568L122.009,110.247Z" transform="translate(0 66.974)" fill="#0d2380"/>
            <path id="Trazado_193796" data-name="Trazado 193796" d="M142.446,165.832H26.026a13.549,13.549,0,0,1-12.117-19.607L72.119,29.8a13.547,13.547,0,0,1,24.235,0l58.21,116.42a13.549,13.549,0,0,1-12.117,19.607" transform="translate(33.987 60.833)" fill="#fc502d"/>
            <path id="Trazado_193797" data-name="Trazado 193797" d="M43.116,58.128a6.577,6.577,0,1,1-6.577-6.577,6.576,6.576,0,0,1,6.577,6.577" transform="translate(81.684 140.535)" fill="#fff2bf"/>
            <path id="Trazado_193798" data-name="Trazado 193798" d="M37.979,34.783a8.537,8.537,0,0,0-8.458,9.74l3.193,41.241a5.265,5.265,0,1,0,10.53,0l3.193-41.241a8.537,8.537,0,0,0-8.458-9.74" transform="translate(80.245 94.823)" fill="#fff2bf"/>
          </g>
        </g>
      </g>
    </g>
  </g>
</svg>
