<svg xmlns="http://www.w3.org/2000/svg" xmlns:xlink="http://www.w3.org/1999/xlink" width="59.325" height="105.084" viewBox="0 0 59.325 105.084">
  <defs>
    <linearGradient id="linear-gradient" x1="0.5" x2="0.5" y2="1" gradientUnits="objectBoundingBox">
      <stop offset="0" stop-color="#fff2bf"/>
      <stop offset="1" stop-color="#ffda4d"/>
    </linearGradient>
  </defs>
  <g id="Grupo_138285" data-name="Grupo 138285" transform="translate(-0.001)">
    <path id="Trazado_194441" data-name="Trazado 194441" d="M224.77,131.358h0a1.4,1.4,0,0,1-1.469-1.306V75.658a1.479,1.479,0,0,1,2.938,0v54.394a1.4,1.4,0,0,1-1.469,1.306" transform="translate(-186.432 -40.168)" fill="url(#linear-gradient)"/>
    <path id="Trazado_194442" data-name="Trazado 194442" d="M224.77,66.464h0a1.4,1.4,0,0,1-1.469-1.305V57.385a1.479,1.479,0,0,1,2.938,0v7.774a1.4,1.4,0,0,1-1.469,1.305" transform="translate(-186.432 -36.142)" fill="url(#linear-gradient)"/>
    <path id="Trazado_194443" data-name="Trazado 194443" d="M210.483,105.969h0a1.4,1.4,0,0,1-1.469-1.305V60.117a1.479,1.479,0,0,1,2.938,0v44.547a1.4,1.4,0,0,1-1.469,1.305" transform="translate(-184.679 -36.744)" fill="url(#linear-gradient)"/>
    <path id="Trazado_194444" data-name="Trazado 194444" d="M210.483,50.924h0a1.4,1.4,0,0,1-1.469-1.305V41.845a1.479,1.479,0,0,1,2.938,0v7.774a1.4,1.4,0,0,1-1.469,1.305" transform="translate(-184.679 -32.718)" fill="url(#linear-gradient)"/>
    <path id="Trazado_194445" data-name="Trazado 194445" d="M217.708,84.212h0a1.4,1.4,0,0,1-1.469-1.305V53.457a1.479,1.479,0,0,1,2.938,0v29.45a1.4,1.4,0,0,1-1.469,1.305" transform="translate(-185.565 -35.277)" fill="url(#linear-gradient)"/>
    <path id="Trazado_194446" data-name="Trazado 194446" d="M217.708,156.227h0a1.4,1.4,0,0,1-1.469-1.305v-29.45a1.479,1.479,0,0,1,2.938,0v29.45a1.4,1.4,0,0,1-1.469,1.305" transform="translate(-185.565 -51.143)" fill="url(#linear-gradient)"/>
    <path id="Trazado_194447" data-name="Trazado 194447" d="M217.708,44.264h0a1.4,1.4,0,0,1-1.469-1.305V35.185a1.479,1.479,0,0,1,2.938,0v7.774a1.4,1.4,0,0,1-1.469,1.305" transform="translate(-185.565 -31.251)" fill="url(#linear-gradient)"/>
    <path id="Trazado_194448" data-name="Trazado 194448" d="M217.708,116.36h0a1.4,1.4,0,0,1-1.469-1.305v-7.774a1.479,1.479,0,0,1,2.938,0v7.774a1.4,1.4,0,0,1-1.469,1.305" transform="translate(-185.565 -47.135)" fill="url(#linear-gradient)"/>
    <path id="Trazado_194449" data-name="Trazado 194449" d="M210.483,139.143h0a1.4,1.4,0,0,1-1.469-1.305V123.613a1.479,1.479,0,0,1,2.938,0v14.224a1.4,1.4,0,0,1-1.469,1.305" transform="translate(-184.679 -50.733)" fill="url(#linear-gradient)"/>
    <path id="Trazado_194450" data-name="Trazado 194450" d="M217.708,101.927h0a1.4,1.4,0,0,1-1.469-1.306V99.193a1.479,1.479,0,0,1,2.938,0v1.428a1.4,1.4,0,0,1-1.469,1.306" transform="translate(-185.565 -45.353)" fill="url(#linear-gradient)"/>
    <path id="Trazado_194451" data-name="Trazado 194451" d="M189.805,127.986h0a1.4,1.4,0,0,1-1.469-1.305V72.286a1.48,1.48,0,0,1,2.939,0v54.395a1.4,1.4,0,0,1-1.469,1.305" transform="translate(-182.141 -39.425)" fill="url(#linear-gradient)"/>
    <path id="Trazado_194452" data-name="Trazado 194452" d="M189.805,63.092h0a1.4,1.4,0,0,1-1.469-1.306V54.013a1.48,1.48,0,0,1,2.939,0v7.773a1.4,1.4,0,0,1-1.469,1.306" transform="translate(-182.141 -35.399)" fill="url(#linear-gradient)"/>
    <path id="Trazado_194453" data-name="Trazado 194453" d="M182.744,80.841h0a1.4,1.4,0,0,1-1.469-1.305V50.087a1.479,1.479,0,0,1,2.938,0V79.536a1.4,1.4,0,0,1-1.469,1.305" transform="translate(-181.275 -34.534)" fill="url(#linear-gradient)"/>
    <path id="Trazado_194454" data-name="Trazado 194454" d="M182.744,152.856h0a1.4,1.4,0,0,1-1.469-1.306V122.1a1.479,1.479,0,0,1,2.938,0V151.55a1.4,1.4,0,0,1-1.469,1.306" transform="translate(-181.275 -50.4)" fill="url(#linear-gradient)"/>
    <path id="Trazado_194455" data-name="Trazado 194455" d="M182.744,112.989h0a1.4,1.4,0,0,1-1.469-1.306V103.91a1.479,1.479,0,0,1,2.938,0v7.773a1.4,1.4,0,0,1-1.469,1.306" transform="translate(-181.275 -46.392)" fill="url(#linear-gradient)"/>
    <path id="Trazado_194456" data-name="Trazado 194456" d="M189.805,46.854h0a1.4,1.4,0,0,1-1.469-1.305V37.775a1.48,1.48,0,0,1,2.939,0v7.774a1.4,1.4,0,0,1-1.469,1.305" transform="translate(-182.141 -31.821)" fill="url(#linear-gradient)"/>
    <path id="Trazado_194457" data-name="Trazado 194457" d="M182.744,98.555h0a1.4,1.4,0,0,1-1.469-1.306V95.822a1.479,1.479,0,0,1,2.938,0v1.427a1.4,1.4,0,0,1-1.469,1.306" transform="translate(-181.275 -44.61)" fill="url(#linear-gradient)"/>
    <path id="Trazado_194458" data-name="Trazado 194458" d="M196.29,106.782h0a1.4,1.4,0,0,1-1.469-1.305V76.028a1.479,1.479,0,0,1,2.938,0v29.449a1.4,1.4,0,0,1-1.469,1.305" transform="translate(-182.937 -40.249)" fill="url(#linear-gradient)"/>
    <path id="Trazado_194459" data-name="Trazado 194459" d="M196.29,66.915h0a1.4,1.4,0,0,1-1.469-1.306V57.836a1.479,1.479,0,0,1,2.938,0v7.773a1.4,1.4,0,0,1-1.469,1.306" transform="translate(-182.937 -36.241)" fill="url(#linear-gradient)"/>
    <path id="Trazado_194460" data-name="Trazado 194460" d="M196.29,52.481h0a1.4,1.4,0,0,1-1.469-1.306V49.748a1.479,1.479,0,0,1,2.938,0v1.427a1.4,1.4,0,0,1-1.469,1.306" transform="translate(-182.937 -34.459)" fill="url(#linear-gradient)"/>
    <path id="Trazado_194461" data-name="Trazado 194461" d="M202.724,62.568h0a1.4,1.4,0,0,1-1.469-1.306V31.813a1.479,1.479,0,0,1,2.938,0V61.262a1.4,1.4,0,0,1-1.469,1.306" transform="translate(-183.727 -30.508)" fill="url(#linear-gradient)"/>
    <path id="Trazado_194462" data-name="Trazado 194462" d="M202.724,130.8h0a1.4,1.4,0,0,1-1.469-1.306V100.04a1.479,1.479,0,0,1,2.938,0v29.449a1.4,1.4,0,0,1-1.469,1.306" transform="translate(-183.727 -45.54)" fill="url(#linear-gradient)"/>
    <path id="Trazado_194463" data-name="Trazado 194463" d="M202.724,92.527h0a1.4,1.4,0,0,1-1.469-1.305V83.448a1.479,1.479,0,0,1,2.938,0v7.774a1.4,1.4,0,0,1-1.469,1.305" transform="translate(-183.727 -41.884)" fill="url(#linear-gradient)"/>
    <path id="Trazado_194464" data-name="Trazado 194464" d="M202.724,78.093h0a1.4,1.4,0,0,1-1.469-1.306V75.36a1.479,1.479,0,0,1,2.938,0v1.427a1.4,1.4,0,0,1-1.469,1.306" transform="translate(-183.727 -40.102)" fill="url(#linear-gradient)"/>
    <path id="Trazado_194465" data-name="Trazado 194465" d="M239.793,125.286h0a1.4,1.4,0,0,1-1.469-1.306V79.434a1.479,1.479,0,0,1,2.938,0V123.98a1.4,1.4,0,0,1-1.469,1.306" transform="translate(-188.275 -41)" fill="url(#linear-gradient)"/>
    <path id="Trazado_194466" data-name="Trazado 194466" d="M239.793,70.241h0a1.4,1.4,0,0,1-1.469-1.305V61.162a1.479,1.479,0,0,1,2.938,0v7.774a1.4,1.4,0,0,1-1.469,1.305" transform="translate(-188.275 -36.974)" fill="url(#linear-gradient)"/>
    <path id="Trazado_194467" data-name="Trazado 194467" d="M247.019,103.529h0a1.4,1.4,0,0,1-1.469-1.306V72.774a1.479,1.479,0,0,1,2.938,0v29.449a1.4,1.4,0,0,1-1.469,1.306" transform="translate(-189.162 -39.532)" fill="url(#linear-gradient)"/>
    <path id="Trazado_194468" data-name="Trazado 194468" d="M247.019,63.581h0a1.4,1.4,0,0,1-1.469-1.305V54.5a1.479,1.479,0,0,1,2.938,0v7.774a1.4,1.4,0,0,1-1.469,1.305" transform="translate(-189.162 -35.507)" fill="url(#linear-gradient)"/>
    <path id="Trazado_194469" data-name="Trazado 194469" d="M247.019,135.677h0a1.4,1.4,0,0,1-1.469-1.306V126.6a1.479,1.479,0,0,1,2.938,0v7.773a1.4,1.4,0,0,1-1.469,1.306" transform="translate(-189.162 -51.391)" fill="url(#linear-gradient)"/>
    <path id="Trazado_194471" data-name="Trazado 194471" d="M247.019,121.244h0a1.4,1.4,0,0,1-1.469-1.306V118.51a1.479,1.479,0,0,1,2.938,0v1.428a1.4,1.4,0,0,1-1.469,1.306" transform="translate(-189.162 -49.609)" fill="url(#linear-gradient)"/>
    <path id="Trazado_194472" data-name="Trazado 194472" d="M232.033,45.773h0a1.4,1.4,0,0,1-1.469-1.306V43.04a1.48,1.48,0,0,1,2.939,0v1.427a1.4,1.4,0,0,1-1.469,1.306" transform="translate(-187.323 -32.981)" fill="url(#linear-gradient)"/>
    <path id="Trazado_194473" data-name="Trazado 194473" d="M239.793,145.779h0a1.4,1.4,0,0,1-1.469-1.306v-1.427a1.479,1.479,0,0,1,2.938,0v1.427a1.4,1.4,0,0,1-1.469,1.306" transform="translate(-188.275 -55.015)" fill="url(#linear-gradient)"/>
    <path id="Trazado_194474" data-name="Trazado 194474" d="M232.033,81.885h0a1.4,1.4,0,0,1-1.469-1.305V51.131a1.48,1.48,0,0,1,2.939,0V80.58a1.4,1.4,0,0,1-1.469,1.305" transform="translate(-187.323 -34.764)" fill="url(#linear-gradient)"/>
    <path id="Trazado_194475" data-name="Trazado 194475" d="M232.033,150.112h0a1.4,1.4,0,0,1-1.469-1.306V119.357a1.48,1.48,0,0,1,2.939,0v29.449a1.4,1.4,0,0,1-1.469,1.306" transform="translate(-187.323 -49.796)" fill="url(#linear-gradient)"/>
    <path id="Trazado_194476" data-name="Trazado 194476" d="M232.033,111.844h0a1.4,1.4,0,0,1-1.469-1.305v-7.774a1.48,1.48,0,0,1,2.939,0v7.774a1.4,1.4,0,0,1-1.469,1.305" transform="translate(-187.323 -46.14)" fill="url(#linear-gradient)"/>
    <path id="Trazado_194477" data-name="Trazado 194477" d="M247.019,152.873h0a1.4,1.4,0,0,1-1.469-1.305v-7.774a1.479,1.479,0,0,1,2.938,0v7.774a1.4,1.4,0,0,1-1.469,1.305" transform="translate(-189.162 -55.18)" fill="url(#linear-gradient)"/>
    <path id="Trazado_194478" data-name="Trazado 194478" d="M232.033,97.41h0a1.4,1.4,0,0,1-1.469-1.305V94.677a1.48,1.48,0,0,1,2.939,0V96.1a1.4,1.4,0,0,1-1.469,1.305" transform="translate(-187.323 -44.358)" fill="url(#linear-gradient)"/>
    <path id="Trazado_194479" data-name="Trazado 194479" d="M196.29,44.578h0a1.4,1.4,0,0,1-1.469-1.305V41.845a1.479,1.479,0,0,1,2.938,0v1.428a1.4,1.4,0,0,1-1.469,1.305" transform="translate(-182.937 -32.718)" fill="url(#linear-gradient)"/>
  </g>
</svg>
