<svg xmlns="http://www.w3.org/2000/svg" xmlns:xlink="http://www.w3.org/1999/xlink" width="348.991" height="371.255" viewBox="0 0 348.991 371.255">
  <defs>
    <linearGradient id="linear-gradient" x1="0.247" y1="0.591" x2="1.153" y2="0.66" gradientUnits="objectBoundingBox">
      <stop offset="0" stop-color="#8cb1ff"/>
      <stop offset="1" stop-color="#fff"/>
    </linearGradient>
    <linearGradient id="linear-gradient-2" x1="0.619" y1="1.032" x2="0.224" y2="-0.841" xlink:href="#linear-gradient"/>
    <linearGradient id="linear-gradient-4" x1="0.753" y1="1" x2="-1.082" y2="-0.315" xlink:href="#linear-gradient"/>
    <linearGradient id="linear-gradient-5" x1="0.722" y1="0.031" x2="0.427" y2="1" xlink:href="#linear-gradient"/>
    <linearGradient id="linear-gradient-6" x1="0.847" x2="0.204" y2="0.983" gradientUnits="objectBoundingBox">
      <stop offset="0" stop-color="#01b3f9"/>
      <stop offset="1" stop-color="#015a7d"/>
    </linearGradient>
    <linearGradient id="linear-gradient-7" x1="-28.078" y1="14.573" x2="-27.993" y2="14.573" gradientUnits="objectBoundingBox">
      <stop offset="0" stop-color="#fff2bf"/>
      <stop offset="1" stop-color="#ffda4d"/>
    </linearGradient>
    <linearGradient id="linear-gradient-9" x1="0.522" y1="-0.08" x2="0.282" y2="0.988" gradientUnits="objectBoundingBox">
      <stop offset="0" stop-color="#ffda4d"/>
      <stop offset="1" stop-color="#806d27"/>
    </linearGradient>
    <linearGradient id="linear-gradient-10" x1="0.865" y1="0.333" x2="-0.67" y2="1.091" xlink:href="#linear-gradient-9"/>
    <linearGradient id="linear-gradient-11" x1="0.248" y1="0.877" x2="0.472" y2="0.383" xlink:href="#linear-gradient"/>
    <linearGradient id="linear-gradient-12" x1="0.785" y1="0.43" x2="0.195" y2="0.678" xlink:href="#linear-gradient-6"/>
    <linearGradient id="linear-gradient-13" x1="0.5" y1="0.528" x2="-0.658" y2="0.566" xlink:href="#linear-gradient-6"/>
    <clipPath id="clip-path">
      <rect id="Rectángulo_83253" data-name="Rectángulo 83253" width="92.799" height="94.404" fill="none"/>
    </clipPath>
    <linearGradient id="linear-gradient-14" x1="0.5" y1="0" x2="0.5" y2="1" xlink:href="#linear-gradient"/>
    <clipPath id="clip-path-2">
      <rect id="Rectángulo_83254" data-name="Rectángulo 83254" width="91.423" height="103.826" fill="none"/>
    </clipPath>
    <linearGradient id="linear-gradient-15" y1="0.589" x2="1.229" y2="-0.21" gradientUnits="objectBoundingBox">
      <stop offset="0" stop-color="#01b0f9"/>
      <stop offset="1" stop-color="#01587d"/>
    </linearGradient>
    <linearGradient id="linear-gradient-16" x1="0.5" y1="0" x2="0.5" y2="1" xlink:href="#linear-gradient-15"/>
    <linearGradient id="linear-gradient-17" x1="0.641" y1="0.312" x2="0.387" y2="0.025" gradientUnits="objectBoundingBox">
      <stop offset="0" stop-color="#fc502d"/>
      <stop offset="1" stop-color="#7e2817"/>
    </linearGradient>
    <linearGradient id="linear-gradient-18" x1="0.743" y1="0.212" x2="0.201" y2="0.705" xlink:href="#linear-gradient-17"/>
    <linearGradient id="linear-gradient-19" x1="0.5" y1="0" x2="0.5" y2="1" xlink:href="#linear-gradient-17"/>
    <linearGradient id="linear-gradient-20" x1="0.5" x2="0.5" y2="1" gradientUnits="objectBoundingBox">
      <stop offset="0" stop-color="#bd2506"/>
      <stop offset="1" stop-color="#fc502d"/>
    </linearGradient>
    <linearGradient id="linear-gradient-21" x1="0.84" y1="1.243" x2="0.171" y2="0.107" xlink:href="#linear-gradient-20"/>
    <linearGradient id="linear-gradient-23" x1="0.153" y1="0.589" x2="0.702" y2="0" xlink:href="#linear-gradient-20"/>
    <clipPath id="clip-path-3">
      <rect id="Rectángulo_83255" data-name="Rectángulo 83255" width="131.523" height="97.521" fill="none"/>
    </clipPath>
    <clipPath id="clip-path-4">
      <rect id="Rectángulo_83256" data-name="Rectángulo 83256" width="52.403" height="105.108" fill="url(#linear-gradient)"/>
    </clipPath>
    <clipPath id="clip-path-5">
      <rect id="Rectángulo_83257" data-name="Rectángulo 83257" width="28.138" height="32.367" fill="url(#linear-gradient-2)"/>
    </clipPath>
    <clipPath id="clip-path-6">
      <rect id="Rectángulo_83258" data-name="Rectángulo 83258" width="22.373" height="52.638" fill="url(#linear-gradient-2)"/>
    </clipPath>
    <clipPath id="clip-path-7">
      <rect id="Rectángulo_83259" data-name="Rectángulo 83259" width="30.067" height="13.809" fill="url(#linear-gradient-4)"/>
    </clipPath>
    <clipPath id="clip-path-8">
      <rect id="Rectángulo_83260" data-name="Rectángulo 83260" width="30.178" height="27.217" fill="url(#linear-gradient-5)"/>
    </clipPath>
    <linearGradient id="linear-gradient-37" x1="0.383" y1="0.564" x2="1.29" y2="0.836" xlink:href="#linear-gradient-6"/>
    <clipPath id="clip-path-9">
      <rect id="Rectángulo_83261" data-name="Rectángulo 83261" width="4.482" height="5.179" fill="none"/>
    </clipPath>
    <linearGradient id="linear-gradient-38" x1="0.106" y1="0.835" x2="0.337" y2="0" xlink:href="#linear-gradient"/>
    <linearGradient id="linear-gradient-39" x1="0.216" y1="0.5" x2="1.123" y2="0.884" xlink:href="#linear-gradient-6"/>
    <clipPath id="clip-path-10">
      <rect id="Rectángulo_83262" data-name="Rectángulo 83262" width="4.481" height="5.179" fill="none"/>
    </clipPath>
    <linearGradient id="linear-gradient-40" x1="0.38" y1="1" x2="0.788" y2="0" xlink:href="#linear-gradient"/>
    <linearGradient id="linear-gradient-41" x1="0.045" y1="0.014" x2="0.97" y2="1.228" xlink:href="#linear-gradient-6"/>
    <linearGradient id="linear-gradient-42" x1="0.056" y1="0.902" x2="1.2" y2="-0.269" xlink:href="#linear-gradient-6"/>
    <linearGradient id="linear-gradient-43" x1="0.208" y1="1.046" x2="1.535" y2="-0.277" xlink:href="#linear-gradient-6"/>
    <linearGradient id="linear-gradient-44" x1="0.377" y1="0.771" x2="0.584" y2="0.24" xlink:href="#linear-gradient"/>
    <linearGradient id="linear-gradient-45" x1="0.943" y1="0.324" x2="-0.106" y2="-0.598" xlink:href="#linear-gradient-15"/>
    <linearGradient id="linear-gradient-47" x1="0.272" y1="0.173" x2="1.879" y2="0.5" xlink:href="#linear-gradient-6"/>
    <linearGradient id="linear-gradient-50" x1="0.362" y1="1.03" x2="0.761" y2="-1.047" xlink:href="#linear-gradient-6"/>
    <clipPath id="clip-path-11">
      <rect id="Rectángulo_83263" data-name="Rectángulo 83263" width="20.76" height="26.426" fill="url(#linear-gradient-6)"/>
    </clipPath>
    <linearGradient id="linear-gradient-52" x1="0.5" y1="0" x2="1.804" y2="1.215" xlink:href="#linear-gradient-6"/>
    <linearGradient id="linear-gradient-54" x1="0.449" y1="0.309" x2="0.339" y2="0.678" xlink:href="#linear-gradient-6"/>
    <clipPath id="clip-path-12">
      <path id="Trazado_194755" data-name="Trazado 194755" d="M367.666,337.04l4.708,78.875a52.924,52.924,0,0,0,15.232-2.228l.565.474,4.835-2.541c.913-.429,1.818-.9,2.7-1.421l.1-.054,0,0a26.306,26.306,0,0,0,8.051-7.18c9.846-13.612,9.521-38.745,9.521-38.745a58.105,58.105,0,0,1-20.49-9.676c-10.259-7.575-20.519-19.975-20.519-19.975Z" transform="translate(-367.666 -334.565)" fill="url(#linear-gradient-9)"/>
    </clipPath>
    <linearGradient id="linear-gradient-57" x1="0.847" y1="0.405" x2="0.55" y2="0.97" gradientUnits="objectBoundingBox">
      <stop offset="0" stop-color="#fff2bf"/>
      <stop offset="1" stop-color="#ffda4e"/>
    </linearGradient>
    <linearGradient id="linear-gradient-58" x1="1.135" y1="0.36" x2="0" y2="0.416" xlink:href="#linear-gradient-57"/>
    <radialGradient id="radial-gradient" cx="0.5" cy="0.5" r="0.5" gradientTransform="translate(0.5 -0.207) rotate(45)" gradientUnits="objectBoundingBox">
      <stop offset="0" stop-color="#01b0f9"/>
      <stop offset="0.213" stop-color="#007db1" stop-opacity="0.714"/>
      <stop offset="0.423" stop-color="#005072" stop-opacity="0.459"/>
      <stop offset="0.613" stop-color="#002d41" stop-opacity="0.263"/>
      <stop offset="0.778" stop-color="#00141d" stop-opacity="0.118"/>
      <stop offset="0.913" stop-color="#000507" stop-opacity="0.031"/>
      <stop offset="1" stop-opacity="0"/>
    </radialGradient>
  </defs>
  <g id="Grupo_138294" data-name="Grupo 138294" transform="translate(-36.729)">
    <path id="Trazado_194439" data-name="Trazado 194439" d="M347.785,313.749c-64.408,0-116.621,24.478-116.621,54.673,0,9.723,5.437,18.845,14.928,26.756L136.589,450.6l4.738,2.4-21.77,10.737,29.527,14.931,21.77-10.736,6.1,3.084,110.33-55.84c17.639,5.027,38.349,7.924,60.5,7.924,64.408,0,116.621-24.478,116.621-54.673s-52.213-54.673-116.621-54.673" transform="translate(-82.825 -107.41)" fill="#000e3a"/>
    <rect id="Rectángulo_83249" data-name="Rectángulo 83249" width="344.85" height="164.915" transform="translate(36.73 206.339)" fill="none"/>
    <path id="Trazado_194523" data-name="Trazado 194523" d="M416.509,336.077s-33.282,29.8-58.827,43.312-86.242-18.022-98.587-50.012.149-73.713.149-73.713Z" transform="translate(-97.551 -94.612)" fill="url(#linear-gradient-11)"/>
    <path id="Trazado_194524" data-name="Trazado 194524" d="M453.207,236.825S440.253,218.346,406.17,204.1s-30.245,6.219-30.245,6.219l67.168,36.364Z" transform="translate(-110.965 -82.139)" fill="#e3e8ff"/>
    <path id="Trazado_194525" data-name="Trazado 194525" d="M447.859,232.655s-12.64-9.622-20.993-14.461,4.14-.693,4.14-.693,14.859,9.3,20.274,15.155-3.421,0-3.421,0" transform="translate(-116.257 -85.839)" fill="#e3e8ff"/>
    <path id="Trazado_194526" data-name="Trazado 194526" d="M353.616,174.641c5.587-13.021,66.278-28.216,66.278-28.216s-.41,6.549-.913,16.176l-12.919,8.576s-.365,36.175,1.758,57.095c.977,9.629,9.529,11.172,18.474,10.041.484.837.987,1.694,1.52,2.592,6.489,10.923,24.833,25.421,24.833,25.421s-44.406,25.637-64.9,27.033c-15.646,1.065-33.091-1.162-55.879-15.989s-28.059-49.1-28.059-49.1,44.22-40.61,49.807-53.631" transform="translate(-103.059 -70.544)" fill="url(#linear-gradient-12)"/>
    <path id="Trazado_194527" data-name="Trazado 194527" d="M420.431,232.843c-2.124-20.919-1.759-57.095-1.759-57.095l12.92-8.576c-.483,9.22-1.05,21.261-1.426,33.144-.719,22.668.84,28.931,8.738,42.568-8.944,1.131-17.5-.412-18.473-10.041" transform="translate(-115.67 -75.115)" fill="url(#linear-gradient-13)"/>
    <g id="Grupo_138231" data-name="Grupo 138231" transform="translate(206.546 100.503)" opacity="0.3" style="isolation: isolate">
      <g id="Grupo_138230" data-name="Grupo 138230" transform="translate(0 0)">
        <g id="Grupo_138229" data-name="Grupo 138229" clip-path="url(#clip-path)">
          <path id="Trazado_194528" data-name="Trazado 194528" d="M403.119,199.459s-.056,10.028-6.566,15.3-23.035,24.773-27.292,32.207c-6.524,11.391-7.769,23.61-8.463,25.333s-51.658-17.657-50.457-37.242,16.346-48.373,19.771-51.548,44.431-16.788,73.007,15.948" transform="translate(-310.32 -178.005)" fill="#000e3a"/>
        </g>
      </g>
    </g>
    <path id="Trazado_194529" data-name="Trazado 194529" d="M298.111,251.486c3.926-5.073,16.5-3.948,23.565-2.847-6.317,15.81-14.424,20.458,13.355,34.28a43.076,43.076,0,0,0,15.421,4.436c.516-.458,1.036-.909,1.528-1.413,2.021-2.072,4.612-4.583,7.391-7.215a40.248,40.248,0,0,0,21.136-11.3,211.858,211.858,0,0,1,35.972-27.786l11.434,8.255s-31.545,50.3-48.671,59.421-62.394-8.568-81.13-22.94-5.561-25.7,0-32.889" transform="translate(-101.368 -91.081)" fill="#e3e8ff"/>
    <path id="Trazado_194530" data-name="Trazado 194530" d="M353.792,289.9a43.075,43.075,0,0,1-15.421-4.435c-27.778-13.822-19.67-18.47-13.355-34.281,2.945.458,4.957.913,4.957.913s-6.63,16.03,7.342,24.321a36.947,36.947,0,0,0,25.394,4.853c-2.779,2.632-5.37,5.144-7.391,7.215-.491.5-1.011.956-1.528,1.413" transform="translate(-104.709 -93.625)" fill="#b3daf4"/>
    <path id="Trazado_194531" data-name="Trazado 194531" d="M353.792,289.9a43.075,43.075,0,0,1-15.421-4.435c-27.778-13.822-19.67-18.47-13.355-34.281,2.945.458,4.957.913,4.957.913s-6.63,16.03,7.342,24.321a36.947,36.947,0,0,0,25.394,4.853c-2.779,2.632-5.37,5.144-7.391,7.215-.491.5-1.011.956-1.528,1.413" transform="translate(-104.709 -93.625)" fill="#a1b3ff"/>
    <path id="Trazado_194532" data-name="Trazado 194532" d="M278.736,189.03c5.717-5.191,16.2-7.945,25.589-10.335l33.722,31.313c-7.364,6.307-16.143,15.329-20.088,25.2-6.316,15.811-14.424,20.458,13.355,34.281a42.265,42.265,0,0,0,51.026-9.875c8.2-9.727,41.867-38.363,46.532-38.536,6.869,4.2,17.352,14.25,29.026,26.6,9.545,10.1,21.18,24.083,25.262,33.542-5.626,2.16-20.216,12.682-35.919,21.783-27.259,15.8-50.837,31.127-50.837,31.127L254.567,261.865s10.285-60.227,24.169-72.834" transform="translate(-97.652 -77.654)" fill="url(#linear-gradient-14)"/>
    <g id="Grupo_138234" data-name="Grupo 138234" transform="translate(157.66 101.042)" opacity="0.3" style="isolation: isolate">
      <g id="Grupo_138233" data-name="Grupo 138233" transform="translate(0 0)">
        <g id="Grupo_138232" data-name="Grupo 138232" clip-path="url(#clip-path-2)">
          <path id="Trazado_194533" data-name="Trazado 194533" d="M278.828,189.03c6.368-4.572,16.2-7.945,25.589-10.335l33.722,31.313c-7.364,6.307-16.144,15.329-20.088,25.2-6.316,15.811-14.424,20.458,13.355,34.281a43.092,43.092,0,0,0,15.421,4.435c-11.153,9.87-27.831,9.152-35.476,7.849-15.713-2.679-47.061-18.692-55.947-24,3.583-16.871,10.417-59.407,23.425-68.746" transform="translate(-255.403 -178.696)" fill="#000e3a"/>
        </g>
      </g>
    </g>
    <path id="Trazado_194534" data-name="Trazado 194534" d="M355.577,287.4a48.978,48.978,0,0,0,16.906-3.018c7.152-2.712,19.992-14.616,30.309-24.181,2.395-2.22,4.575-4.242,6.391-5.869,9.013-8.076,27.4-20.813,27.555-20.926l-2.35-1.839c-3.375,1.742-15.169,9.093-27.561,20.747-1.782,1.676-4.022,3.672-6.431,5.9-9.577,8.88-22.693,21.039-29.222,23.514-5.121,1.942-23.169,7.29-40.374-5.483-13.15-9.762-12.474-17.328-7.416-25.679l-2.913-1.354c-5.021,8.295-7.5,17.576,8.2,29.234a44.39,44.39,0,0,0,26.908,8.949" transform="translate(-104.469 -89.301)" fill="url(#linear-gradient-15)"/>
    <path id="Trazado_194535" data-name="Trazado 194535" d="M495.893,310.047c3.441,4.054-35.919,36.335-35.919,36.335l-89.456,44.87S488.9,301.808,495.893,310.047" transform="translate(-110.386 -106.476)" fill="url(#linear-gradient-16)"/>
    <path id="Trazado_194536" data-name="Trazado 194536" d="M449.517,123.561c1.259-8.064-2.823-12.379-26.524-23.589s-36.1,30.97-24.616,40.825,31.475,11.085,38.2,5.633,12.938-22.869,12.938-22.869" transform="translate(-112.969 -59.895)" fill="#cfe9ff"/>
    <path id="Trazado_194537" data-name="Trazado 194537" d="M323.579,133.975c-2-1.269-2.088-.157-2.371-.259-3.188-1.151-10.872-5.29-12.268-7.983-1.911-3.687-1.724-6.98-1.093-10.523,1.888-4.455,5.168-7.713,8.679-8.773-1.025-3.145-2.663-10.583,7.129-14.348-1.91-4.811,1.91-14.224,9.788-15.938.6-6.118,4.661-9.521,11.831-9.592,2.98-3.965,7.757-5.01,12.427-2.645a17.091,17.091,0,0,1,13-3.829c7.4-2.3,13.493-1.037,19.464,2.928,6.415,4.259,5.07,11.136,4.427,17.71a45.224,45.224,0,0,1-8.262,21.155c-9.414,13.56-24.532,22.637-39.75,30.287-6.1,3.068-11.689,6.522-17.936,9.261a11.859,11.859,0,0,0-5.069-7.451" transform="translate(-103.454 -51.269)" fill="url(#linear-gradient-17)"/>
    <path id="Trazado_194538" data-name="Trazado 194538" d="M309.326,153.278c-4.538-1.569-4.819-8.014-3.161-10.863a21.394,21.394,0,0,1,1.444-11.3c-.631,3.542-.818,6.835,1.092,10.523,1.4,2.692,9.08,6.832,12.268,7.983.283.1.374-1.011,2.372.258a11.862,11.862,0,0,1,5.07,7.452c-1.467.643-2.959,1.259-4.515,1.807-5.642,1.987-13.374,0-14.569-5.857" transform="translate(-103.216 -67.17)" fill="#4840ad"/>
    <path id="Trazado_194539" data-name="Trazado 194539" d="M388.108,65.44s-5.4-4.379-10.7-4.629-6.192.125-6.1,2.314-1.813,3.066-2.575,1.439-.353-3.753-3.485-3-7.847,2.5-7.133,3.878,2.476.282,4.4,1.152c1.739.787,3.535,2.5-.4,5.678-1.539,1.241-5.267,1.962-6.785,2.819-2.367,1.337-3.989,2.577-6.238,3.347-3.69,1.265-6.048,1.016-5.511-.361s3.292-2.721,4.057-4.176-.972-3.478-1.949-4.283c-1.53-1.259-2.652-2.051-4.968-.55s-5.356,4.207-4.459,6.158c1.567,3.412-1.213,3.008-3.711,3.437-3.146.54-4.608,1.416-5.305,5.356s-.758,7.16,1.518,8.377,5.641-1.269,6.5-2.164-.334,3.336.548,4.348,1.881,3.205.167,2.8-3.707-.905-4.857,0c-1.786,1.4-1.285,3.509-3.142,4.678s-4.431,0-4.431-3.336c0-1.429,1.171-3.659-1.555-3.205s-5.473,3.86-4.814,5.785,2.239,3.034,3.377,4.294.566,3.825-.719,4.732-2.142,3.074-2,6.494-2.571,1.941-3.142.428-.786-4.17-2.214-4.163a15.148,15.148,0,0,0-4.06,1.109,12.845,12.845,0,0,1,3.292-4.694,13.27,13.27,0,0,1,4.931-3.1s-1.617-4.51,0-8.347,7.127-6,7.127-6-2.849-3.8,1.107-10.078,8.682-5.861,8.682-5.861a8.519,8.519,0,0,1,3.7-8.261c4.714-3.413,8.042-1.644,8.042-1.644s1.1-2.125,5.38-3.314a8.508,8.508,0,0,1,7.133.982s1.228-2.065,6.156-3.629a13.764,13.764,0,0,1,6.848-.2,21.668,21.668,0,0,1,16.614.826c5.848,2.872,6.937,6.621,6.937,6.621Z" transform="translate(-103.565 -51.231)" fill="#fc502d"/>
    <path id="Trazado_194540" data-name="Trazado 194540" d="M421.392,89.706a.625.625,0,0,0,0,.964c2.794,1.952,4.862,4.511,5.164,7.71a7.163,7.163,0,0,1-1.269,4.87c.03.04.065.072.093.115a4.035,4.035,0,0,1,.184,3.542,9.213,9.213,0,0,1-2.35,3.579,6.256,6.256,0,0,1,.349,1.333,8.684,8.684,0,0,1-1.338,5.947,10.071,10.071,0,0,1-6.217,4.082,5.214,5.214,0,0,1-1.181,4.927,6.77,6.77,0,0,1-4.627,1.9,16.4,16.4,0,0,1-2.444,3.083,11.167,11.167,0,0,1-7.505,3.5,8.525,8.525,0,0,1-4.057,3.789,8.924,8.924,0,0,1-6.06.205c-1.793,2.631-4.687,4.411-7.813,5.778-4.194,1.835-7.414,1.906-11.134-.057a7.321,7.321,0,0,1-4.4,1.531,13.019,13.019,0,0,1-7.41-1.647,9.418,9.418,0,0,1-7.671,2.617,10.9,10.9,0,0,1-4.008-1.205c-.686,1.483-3.223,2.763-4.793,3.078a9.906,9.906,0,0,1-7.7-1.768c-1.828,1.552-5.25,1.483-7.543.922a17.65,17.65,0,0,1-3.72-1.385,8.7,8.7,0,0,1,.019-4.019,9.539,9.539,0,0,1-3.56-11.027,11.159,11.159,0,0,1,4.3-5.3c.5-9.948,6.143-21.107,17.347-22.353.668-5.153,2.1-10.666,5.78-14.235,2.8-2.709,9.562-5.939,14.073-5.917.615-3.182,3.482-6.425,8.856-7.784.956-4.288,9.911-9.936,18.952-6.5,3.5-1.572,8.394-1.572,11.14.018,3.344-.857,7.763-.522,10.031,1.464a15.185,15.185,0,0,1,5.2,9.917,16.8,16.8,0,0,1,6.594,3.611c.405.352.835.78,1.266,1.24a6.55,6.55,0,0,1-2.552,3.477" transform="translate(-104.822 -53.442)" fill="url(#linear-gradient-18)"/>
    <path id="Trazado_194541" data-name="Trazado 194541" d="M427.72,98.134a11.629,11.629,0,0,1,5.757,15.382c3.344,5.014,1.624,11.351-2.485,15.654,1.776,3.9-1.456,10.912-5.157,11.749.717,4.5-5.613,7.426-9.549,7-.84,3.357-5.259,5.867-10.991,5.658-3.94,6.067-14.063,4.916-16.9,4.488-2.647,2.678-7.218,4.143-10.794,4.752a23.8,23.8,0,0,1-17.962-4.509c-3.95,4.282-12.737,4.473-15.422.229-4.762,3.71-13.3,2.192-17.31-1.775a9.487,9.487,0,0,1-2.464-4.716,17.66,17.66,0,0,0,3.721,1.385c2.291.561,5.715.63,7.543-.922a9.906,9.906,0,0,0,7.7,1.768c1.569-.316,4.107-1.6,4.792-3.078a10.914,10.914,0,0,0,4.009,1.205,9.416,9.416,0,0,0,7.672-2.617,13.016,13.016,0,0,0,7.41,1.647,7.324,7.324,0,0,0,4.4-1.531c3.719,1.963,6.94,1.891,11.134.057,3.125-1.367,6.021-3.148,7.814-5.778a8.921,8.921,0,0,0,6.059-.205,8.526,8.526,0,0,0,4.057-3.789,11.165,11.165,0,0,0,7.5-3.5A16.375,16.375,0,0,0,410.7,133.6a6.771,6.771,0,0,0,4.626-1.9,5.214,5.214,0,0,0,1.181-4.927,10.071,10.071,0,0,0,6.217-4.082,8.679,8.679,0,0,0,1.337-5.947,6.208,6.208,0,0,0-.347-1.333,9.221,9.221,0,0,0,2.349-3.579,4.041,4.041,0,0,0-.183-3.542c-.028-.043-.063-.075-.093-.115a7.168,7.168,0,0,0,1.269-4.87c-.3-3.2-2.37-5.758-5.164-7.71a.625.625,0,0,1,0-.964,6.551,6.551,0,0,0,2.552-3.477c1.813,1.931,3.611,4.648,3.272,6.98" transform="translate(-105.325 -58.367)" fill="#4840ad"/>
    <path id="Trazado_194542" data-name="Trazado 194542" d="M427.72,98.134a11.629,11.629,0,0,1,5.757,15.382c3.344,5.014,1.624,11.351-2.485,15.654,1.776,3.9-1.456,10.912-5.157,11.749.717,4.5-5.613,7.426-9.549,7-.84,3.357-5.259,5.867-10.991,5.658-3.94,6.067-14.063,4.916-16.9,4.488-2.647,2.678-7.218,4.143-10.794,4.752a23.8,23.8,0,0,1-17.962-4.509c-3.95,4.282-12.737,4.473-15.422.229-4.762,3.71-13.3,2.192-17.31-1.775a9.487,9.487,0,0,1-2.464-4.716,17.66,17.66,0,0,0,3.721,1.385c2.291.561,5.715.63,7.543-.922a9.906,9.906,0,0,0,7.7,1.768c1.569-.316,4.107-1.6,4.792-3.078a10.914,10.914,0,0,0,4.009,1.205,9.416,9.416,0,0,0,7.672-2.617,13.016,13.016,0,0,0,7.41,1.647,7.324,7.324,0,0,0,4.4-1.531c3.719,1.963,6.94,1.891,11.134.057,3.125-1.367,6.021-3.148,7.814-5.778a8.921,8.921,0,0,0,6.059-.205,8.526,8.526,0,0,0,4.057-3.789,11.165,11.165,0,0,0,7.5-3.5A16.375,16.375,0,0,0,410.7,133.6a6.771,6.771,0,0,0,4.626-1.9,5.214,5.214,0,0,0,1.181-4.927,10.071,10.071,0,0,0,6.217-4.082,8.679,8.679,0,0,0,1.337-5.947,6.208,6.208,0,0,0-.347-1.333,9.221,9.221,0,0,0,2.349-3.579,4.041,4.041,0,0,0-.183-3.542c-.028-.043-.063-.075-.093-.115a7.168,7.168,0,0,0,1.269-4.87c-.3-3.2-2.37-5.758-5.164-7.71a.625.625,0,0,1,0-.964,6.551,6.551,0,0,0,2.552-3.477c1.813,1.931,3.611,4.648,3.272,6.98" transform="translate(-105.325 -58.367)" fill="url(#linear-gradient-19)"/>
    <path id="Trazado_194543" data-name="Trazado 194543" d="M390.985,84.071a3.02,3.02,0,0,1,2.643.674c.371.271,2.164,2.929,3.922,3.487,2.038.646,4.922.193,5.989.819.692.405,2.159,1.907,2.63,2.249,1.949,1.418,2.976,1.422,5.334,1.792a10.941,10.941,0,0,1,2.732.67c3.832,1.67,6.278,4.808,5.112,6.3-2.1,2.7-4.059,1.01-4.818-1.1-1.266-3.529-4.082-2.048-4.921-1.942-2.625.33-4.316,3.122-9.024.988-3.708-1.679-1.542-4.861-4.695-6.639-2.476-1.4-1.406-2.667-4.252-4.224-2.057-1.126-2.575-2.55-.652-3.073" transform="translate(-112.501 -56.786)" fill="#bd2506"/>
    <path id="Trazado_194544" data-name="Trazado 194544" d="M376.44,91.094c1.559-1.4,11.614,4.506,12.735,5.783a5.631,5.631,0,0,1,1.427,3.493c.534,1.262,2.485.659,4.269,1.293a12.287,12.287,0,0,1,5.614,4.538c.791,1.318.867,3.134-3.189,3.251-1.423.041-5.073-.177-4.419,2.458.052.21,3.21,2.176,3.385,3.526.331,2.548-3.356,6.715-4.343,7.1-2.581.995-4.261,2.072-6.4,1.209-6.115-2.474-.408-6.212,0-9.714.4-3.439-2.076-5.872-1.1-7.552,1.7-2.943.43-4.77-.305-6.061-.848-1.489-9.574-7.612-7.674-9.319" transform="translate(-111.006 -58.306)" fill="#bd2506"/>
    <path id="Trazado_194545" data-name="Trazado 194545" d="M386.057,124.619c1.008-.989,2.223-1.853,3.331-2.755,1.093-.89,3.008-2.892,4.587-1.489,1.285,1.142.125,3.378-.741,4.445a16.9,16.9,0,0,1-4.1,2.92c-1.348.4-3.541.352-3.9-1.179a2.109,2.109,0,0,1,.827-1.941" transform="translate(-111.997 -64.698)" fill="url(#linear-gradient-20)"/>
    <path id="Trazado_194546" data-name="Trazado 194546" d="M424.79,110.381c.763-1.568,2.13-1.987,3.419-3.286,1.554-1.566,1.69-2.339,3.237-1.566.92.46,1.722,1.063,2.847,4.172.839,2.322.7,3.844-.486,6.958-.983,2.574-2.477,2.4-3.782,1.937-1.711-.608.47-1.937-2.2-4.61-.887-.89-3.662-2.32-3.036-3.605" transform="translate(-116.335 -61.467)" fill="#bd2506"/>
    <path id="Trazado_194547" data-name="Trazado 194547" d="M387.179,142.558a36.89,36.89,0,0,0,2.473-3.259c.967-1.457,2.446-3.215,4.678-2.8a3.071,3.071,0,0,1,2.655,2.325c.162.668.338,2.968-2.169,5.88-1.628,1.889-7.837,4.235-8.669.444a3.091,3.091,0,0,1,1.032-2.588" transform="translate(-112.097 -68.344)" fill="#bd2506"/>
    <path id="Trazado_194548" data-name="Trazado 194548" d="M357.628,120.8c1.565-2.288,3.41-4.712,6.459-5.587.775-.221,3.544-1.91,6.227-2.907,3.455-1.285,4.028-.7,5.651,1.488,1.205,1.626.061,3.011-2.67,3.834-1.755.529-6.878-.452-9.517.668-3.889,1.65-1.092,5.692-1.428,7.316a3.489,3.489,0,0,1-1.6,2.1c-1.723,1.154-4.639,1.643-6.007-.2-1.6-2.156,1.7-4.984,2.882-6.711" transform="translate(-108.606 -62.879)" fill="#bd2506"/>
    <path id="Trazado_194549" data-name="Trazado 194549" d="M338.394,153.967c.918.535,1.847,1.056,2.756,1.6,2.027,1.22,3.911,3.456,1.426,5.257-2.177,1.576-5.625.86-7.5-.748a4.552,4.552,0,0,1-1.493-5.048c.207-.579,1.835-2.794,4.807-1.063" transform="translate(-106.302 -72.062)" fill="#5f5ddb"/>
    <path id="Trazado_194550" data-name="Trazado 194550" d="M334.751,121.239a3.676,3.676,0,0,1,2-2.041c.733-.331,4.5-2.292,6.238-1.358,3.318,1.782,2.055,2.7,1.523,2.915-.869.355-2.8.5-3.525,1.039a2.8,2.8,0,0,0-.9,4.018c1.317,1.92,4.529,6.188,3.2,8.528-.783,1.377-3.832,2.466-7.1,0-1.832-1.379-3.9-1.625-4.638-.047-1.289,2.76,1.008,3.53,0,5.613-.876,1.81-5.523,2.336-5.175,4.752.528,3.671-.99,6.27-3.472,4.3-.26-.207-1.745-3.684-.06-6.071a15.643,15.643,0,0,1,2.338-3.055,3.636,3.636,0,0,0,1.486-3.35c0-3.323.007-5.06,1.379-6.1,1.285-.976,3.678-.653,5.478-.974,2.663-.476,2.534-1.87,2.022-3.127a14.372,14.372,0,0,1-.842-2.376,4.579,4.579,0,0,1,.052-2.67" transform="translate(-105.063 -64.191)" fill="#5f5ddb"/>
    <path id="Trazado_194551" data-name="Trazado 194551" d="M352.111,99.526a3.9,3.9,0,0,1,2.573.231,15.191,15.191,0,0,0,4.912.44,14.1,14.1,0,0,1,6.074-1.1c4.3.491,7.388,3.244,7.8,4.59.33,1.077-1.935,1.715-5.561-.207-1.682-.892-4.723-.362-6.505,1.848-1.021,1.266.551,1.923-3.819,4.149-2.741,1.4-4.846,2.786-6.447,2.322-2.861-.83-1.574-1.789-.2-3.229,2.261-2.366-.613-4.77-.759-5.706a2.873,2.873,0,0,1,1.929-3.341" transform="translate(-108.069 -60.106)" fill="#bd2506"/>
    <path id="Trazado_194552" data-name="Trazado 194552" d="M382.917,73.443a16.5,16.5,0,0,1,3.692-1.866,8.74,8.74,0,0,1,4.812-.292c.815.246,1.357.789,1.159,1.557-.14.54-.73,1.014-1.1,1.441a9.482,9.482,0,0,1-1.688,1.768,4.337,4.337,0,0,1-3.054.487c-1.122-.154-2.7-.315-3.559-1.039a1.389,1.389,0,0,1-.261-2.056" transform="translate(-111.709 -53.941)" fill="#bd2506"/>
    <path id="Trazado_194553" data-name="Trazado 194553" d="M355.336,151.172c2.126-2.377-.351-4.025-1.123-5.791-.969-2.215-1.576-5.016,1.013-7.292,1.728-1.52,7.33-.671,11.143,3.415,1.446,1.548,3.251,3.643,5.394,2.7a4.223,4.223,0,0,0,2.175-5.334c-.746-1.867-.239-3.881,1.246-4,2.663-.214,4.916,1.665,4.864,4-.025,1.127-3.754,2.636-3.662,4.262s1.523,3.953.522,6.418-3.287,3.286-5,1.624-1.715-4.807-3.143-5.986-5.87-2.55-6.374-.7c-.726,2.668,1.829,7.792-.742,9.814-1.53,1.2-3.44,3.336-6.011,1.762-2.074-1.27-2.121-2.854-.3-4.892" transform="translate(-108.503 -67.994)" fill="#5f5ddb"/>
    <path id="Trazado_194554" data-name="Trazado 194554" d="M391.375,103.57c3.12,1.072,3.191-.314,5.334,1.321s2.383,3.245-1.261,3.772c-2.482.36-2.8,2.815-5.167,3.137-1.287.175-2.932-2.263-2.656-4.118a11.034,11.034,0,0,0-2.692-8.6c-1.689-1.835-3.218-3.98-.936-3.718.894.1,4.978,3.166,5.323,4.181.536,1.576.81,3.6,2.055,4.024" transform="translate(-111.738 -59.29)" fill="url(#linear-gradient-21)"/>
    <path id="Trazado_194555" data-name="Trazado 194555" d="M400.852,91.711c2.453.3,3.119.76,5.437,2.252a12.16,12.16,0,0,0,5.786,1.633,9.358,9.358,0,0,1,5.249,1.881c2.266,1.715,1.285,2.213,0,2.222s-2.784-3.032-5.249-2.574-7.2,1.937-9.939,1.192-1.161-3.427-2.486-4.771-1.031-2.11,1.2-1.835" transform="translate(-113.497 -58.477)" fill="url(#linear-gradient-20)"/>
    <path id="Trazado_194556" data-name="Trazado 194556" d="M354.946,101.464c2.969.693,3.793.433,5.182,0s4.389-2.056,6.245-1.37,1.017,1.687-1.849,2.188-5.5,3.075-6.61,4.666-5.926,4.684-5.447,2.2,1.907-3.785.765-5.262-.411-2.916,1.714-2.42" transform="translate(-108.4 -60.3)" fill="url(#linear-gradient-23)"/>
    <path id="Trazado_194557" data-name="Trazado 194557" d="M359.55,139.508c2.362.5,4.151.99,4.285,2.327.152,1.523-2.652,0-3.609,2.269-.372.882.733,3.2.957,6.418a3.1,3.1,0,0,1-3.789,3.541c-1.131-.451,1.415-2.7,0-5.827s-2.714-5.633-1.7-7.4,1.9-1.739,3.856-1.324" transform="translate(-108.718 -68.969)" fill="#7474f7"/>
    <path id="Trazado_194558" data-name="Trazado 194558" d="M339.878,120.561c1.281.124-.833,2.461-.987,4.183s2.622,5.686,2.735,7.582-2.6,2.1-4.317,1.06-3.42-1.586-5.067,0-3.337,2.369-3.789.428,2.151-2.71,3.789-2.778,4.548.413,5.352-.181c1.715-1.268-.428-3.866-.856-6.38s1.009-4.122,3.141-3.915" transform="translate(-105.76 -64.842)" fill="#7474f7"/>
    <path id="Trazado_194559" data-name="Trazado 194559" d="M377.3,147.145c1.485,1.136,1.748,2.72-.142,5.06s-3.143-1.492-3.286-2.7,2.21-3.288,3.428-2.356" transform="translate(-110.752 -70.651)" fill="#7474f7"/>
    <path id="Trazado_194560" data-name="Trazado 194560" d="M393.877,138.63c1.96,1.264,2.713,3.282,0,5.382s-5.048,2.667-5.048,1.156c0-1.173,3.743-7.38,5.048-6.538" transform="translate(-112.396 -68.809)" fill="url(#linear-gradient-20)"/>
    <path id="Trazado_194561" data-name="Trazado 194561" d="M373.581,112.972c2.366-.169,3.291.748,3.862,1.888s-2.571,1.01-4.571.449-2.439-2.112.709-2.337" transform="translate(-110.471 -63.169)" fill="url(#linear-gradient-20)"/>
    <path id="Trazado_194562" data-name="Trazado 194562" d="M359.737,123.953c1.87,1.309,1.6,5.1.639,5.374-1.608.451-3.544,1.394-3.674-.585s1.847-5.62,3.035-4.789" transform="translate(-108.867 -65.566)" fill="#7474f7"/>
    <path id="Trazado_194563" data-name="Trazado 194563" d="M407.566,121.55c1.776.025,3.918.182,4.572-.831.795-1.23-.439-2.56-.862-3.915s-.242-6.336,2.29-7.512c1.693-.786,4.835,1.983,5.634,3.328.942,1.581,2.068,3.728-1.811,5.844-1.16.633-3.822,3.042.606,4.313,2.045.587,6.142.338,8.285,1.26s-.492,3.478-2.436,4.972c-1.664,1.278-4.493,4.05-7.04-.215-1.155-1.933-2.911-4.645-4.666-4.11-2.7.824-.191,8.188-.667,10.935A1.463,1.463,0,0,1,409,135.9c-.66-.78-.732-3.092-1.341-4.337-.348-.712-2.264-4.632-2.571-7.377-.176-1.573-.576-2.677,2.475-2.634" transform="translate(-114.169 -62.333)" fill="#bd2506"/>
    <path id="Trazado_194564" data-name="Trazado 194564" d="M416.911,111.717c2.344.7,3.441,4.161,1.282,5.625-1.79,1.213-3.434,1.522-3.911-.542s-.236-5.934,2.629-5.083" transform="translate(-115.17 -62.871)" fill="url(#linear-gradient-20)"/>
    <path id="Trazado_194565" data-name="Trazado 194565" d="M421.356,129.055c2.374.246,4.276.015,4.856,1.308.462,1.026-1.474,2.262-2.526,2.812-.873.456-2.185,1.271-3.828-1.038s-1.935-3.438,1.5-3.082" transform="translate(-115.674 -66.703)" fill="url(#linear-gradient-20)"/>
    <path id="Trazado_194566" data-name="Trazado 194566" d="M409.049,126.627c2.011.009,1.809.8,1.143,2.2s-.1,2.591.283,5.5-1.187,3.494-1.563,1.088c-.483-3.1-1.877-5.154-1.706-6.941s.251-1.849,1.844-1.842" transform="translate(-114.412 -66.182)" fill="url(#linear-gradient-20)"/>
    <path id="Trazado_194567" data-name="Trazado 194567" d="M431.424,108.228c.82.218,2,2.652,2.1,4.454s-.446,5.149-2.191,4.628-1.425-2.935-2.706-4.276c-1.674-1.755.3-2.049.993-3.022.615-.866.647-2.093,1.808-1.784" transform="translate(-116.694 -62.118)" fill="#fca897"/>
    <path id="Trazado_194568" data-name="Trazado 194568" d="M407.094,76.058c1.641-1.361,2.424-2.125,6.14-2.47s6.044,2.094,7.928,4.128,1.805,4.747,3.844,5.725a8.378,8.378,0,0,1,3.843,3.622c.922,1.484-1.292,2.462-3.263.66s-2.182-5.382-4.456-4.928-3.165,2.748-6.53,2.436-3.744-1.877-2.221-3.763.93-3.916-1.82-2.985-5.692-.579-3.465-2.426" transform="translate(-114.316 -54.489)" fill="#bd2506"/>
    <path id="Trazado_194569" data-name="Trazado 194569" d="M415.275,75.752c3.311.151,4.192,1.692,5.778,3.478.793.893,1.35,2.647.385,2.936s-3.229,1.651-4.4-.624a13.372,13.372,0,0,0-4.174-4.314c-1.045-.52-.081-1.591,2.411-1.477" transform="translate(-114.989 -54.972)" fill="url(#linear-gradient-20)"/>
    <path id="Trazado_194570" data-name="Trazado 194570" d="M402.335,93.774c1.115.359,2.513,2.43,1.24,3.2a.623.623,0,0,1-.577,0c-.529-.341-.44-.738-.574-1.256a14.438,14.438,0,0,0-.662-1.439c-.108-.281.243-.608.573-.5" transform="translate(-113.814 -58.939)" fill="#fff"/>
    <path id="Trazado_194571" data-name="Trazado 194571" d="M406.826,97.248a3.921,3.921,0,0,0,.787.053c.337-.055.645-.215.982-.274.486-.084,1.094-.012,1.2.483a.227.227,0,0,1-.121.26c-.317.17-.669.26-.981.444a2.733,2.733,0,0,1-.966.406c-.666.117-1.552-.14-1.5-.852a.572.572,0,0,1,.595-.521" transform="translate(-114.306 -59.654)" fill="#fff"/>
    <path id="Trazado_194572" data-name="Trazado 194572" d="M395.155,107.634c1.31-.15,2.46,1.491,1.286,2.26a.539.539,0,0,1-.753-.268,1.946,1.946,0,0,0-.4-.945,2.1,2.1,0,0,1-.494-.627c-.093-.226.142-.4.365-.42" transform="translate(-113.048 -61.995)" fill="#fff"/>
    <path id="Trazado_194573" data-name="Trazado 194573" d="M386.213,98.217a2.333,2.333,0,0,1,1.8,3.086c-.122.218-.437.158-.573,0a6.541,6.541,0,0,1-.785-1.407,5.855,5.855,0,0,1-.754-1.318.3.3,0,0,1,.314-.362" transform="translate(-112.073 -59.923)" fill="#fff"/>
    <path id="Trazado_194574" data-name="Trazado 194574" d="M362.49,102.7a3.792,3.792,0,0,1,3.144-1.17.164.164,0,0,1,.115.248,3.654,3.654,0,0,1-1.122.842,4.515,4.515,0,0,1-1.559.741c-.417.051-.827-.291-.579-.66" transform="translate(-109.495 -60.646)" fill="#fff"/>
    <path id="Trazado_194575" data-name="Trazado 194575" d="M354.485,107.826a3.99,3.99,0,0,0,.423-1.132c.062-.273.13-1.236.735-1.057.733.218.621,1.141.5,1.679a2.192,2.192,0,0,1-1.29,1.8.53.53,0,0,1-.678-.453,1.664,1.664,0,0,1,.306-.841" transform="translate(-108.591 -61.553)" fill="#9292ff"/>
    <path id="Trazado_194576" data-name="Trazado 194576" d="M358.256,126.652c.215-.31.71-.789,1.159-.476.43.3-.015.883-.128,1.188a3.387,3.387,0,0,1-.466,1.159.523.523,0,0,1-.825,0,1.619,1.619,0,0,1,.261-1.87" transform="translate(-108.987 -66.06)" fill="#9292ff"/>
    <path id="Trazado_194577" data-name="Trazado 194577" d="M417.615,77.61c1.146,0,2.866,1.231,2.422,2.345a.538.538,0,0,1-.838.194c-.36-.307-.441-.759-.733-1.115a6.632,6.632,0,0,0-1.082-.936c-.215-.168-.042-.489.231-.488" transform="translate(-115.521 -55.383)" fill="#fff"/>
    <path id="Trazado_194578" data-name="Trazado 194578" d="M372.9,114.379a2.33,2.33,0,0,1,1.643-.261,5.232,5.232,0,0,1,1.787.281.247.247,0,0,1,0,.45,5.233,5.233,0,0,1-1.787.281,2.334,2.334,0,0,1-1.643-.261.318.318,0,0,1,0-.49" transform="translate(-110.634 -63.421)" fill="#fff"/>
    <path id="Trazado_194579" data-name="Trazado 194579" d="M385.982,127.177c.6-.119,1.133.188,1.738.147.575-.039,1.082-.258,1.666-.267.174,0,.359.14.344.3-.146,1.543-3.664,1.964-4.154.448a.511.511,0,0,1,.407-.628" transform="translate(-112.036 -66.276)" fill="#fff"/>
    <path id="Trazado_194580" data-name="Trazado 194580" d="M393.087,121.648c.3-.217.763-.083.776.281a3.411,3.411,0,0,1-1.03,2.237c-.328.289-1,.087-.965-.35a3.427,3.427,0,0,1,1.219-2.168" transform="translate(-112.729 -65.062)" fill="#fff"/>
    <path id="Trazado_194581" data-name="Trazado 194581" d="M416.345,116.369c.8-.171.829-.966,1.218-1.484a.4.4,0,0,1,.671.077,1.942,1.942,0,0,1-1.518,2.588c-.874.156-1.253-.993-.371-1.181" transform="translate(-115.363 -63.561)" fill="#fff"/>
    <path id="Trazado_194582" data-name="Trazado 194582" d="M431.218,110.968a.361.361,0,0,1,.466-.408,2.152,2.152,0,0,1,1.308,1.541c.152.53.265,1.584-.388,1.921-.691.356-.847-.388-.837-.805a3.743,3.743,0,0,0-.076-1.1c-.109-.4-.378-.743-.474-1.145" transform="translate(-117.051 -62.638)" fill="#fff"/>
    <path id="Trazado_194583" data-name="Trazado 194583" d="M422.882,132.163a41.944,41.944,0,0,0,2.086-1.6.342.342,0,0,1,.471.168c.3.89-1.044,2.228-2.058,2.192-.418-.015-.745-.423-.5-.76" transform="translate(-116.126 -67.042)" fill="#fff"/>
    <path id="Trazado_194584" data-name="Trazado 194584" d="M391.474,143.4c.334-.507.854-.9,1.229-1.378.346-.446.478-1.1.943-1.449a.437.437,0,0,1,.622.07c.428.616-.028,1.52-.417,2.078a2.705,2.705,0,0,1-2,1.256.388.388,0,0,1-.377-.576" transform="translate(-112.68 -69.233)" fill="#fff"/>
    <path id="Trazado_194585" data-name="Trazado 194585" d="M358.7,141.03c.309.015.492.286.346.53a8.965,8.965,0,0,0-.914,1.3c-.182.472-.2,1-.333,1.48a.449.449,0,0,1-.7.162c-1.26-1-.161-3.558,1.6-3.473" transform="translate(-108.851 -69.355)" fill="#9292ff"/>
    <path id="Trazado_194586" data-name="Trazado 194586" d="M359.268,153.257a6,6,0,0,1,.012-1.68.383.383,0,0,1,.531-.189c1.127.611,1.305,3.124-.034,3.6a.434.434,0,0,1-.46-.164c-.345-.511-.083-1.013-.05-1.565" transform="translate(-109.136 -71.628)" fill="#9292ff"/>
    <path id="Trazado_194587" data-name="Trazado 194587" d="M376.805,148.274c.274-.02.542.273.438.5-.172.38-.5.675-.694,1.046a3.782,3.782,0,0,1-.593,1.12.625.625,0,0,1-.9-.1c-.624-.962.566-2.484,1.747-2.569" transform="translate(-110.865 -70.951)" fill="#9292ff"/>
    <path id="Trazado_194588" data-name="Trazado 194588" d="M339.52,122.243a.307.307,0,0,1,.391.261c.033.434-.25.848-.312,1.279a4.988,4.988,0,0,1-.145,1.308.5.5,0,0,1-.78.18,1.981,1.981,0,0,1,.846-3.028" transform="translate(-106.843 -65.214)" fill="#9292ff"/>
    <path id="Trazado_194589" data-name="Trazado 194589" d="M339.679,134.994a3.734,3.734,0,0,1,.263-.273c.178-.413.583-.747.434-1.258a.418.418,0,0,1,.625-.421,1.269,1.269,0,0,1,.5,1.772,1.293,1.293,0,0,1-1.7.6.289.289,0,0,1-.125-.419" transform="translate(-106.994 -67.582)" fill="#9292ff"/>
    <path id="Trazado_194590" data-name="Trazado 194590" d="M388.3,72.6a.4.4,0,0,1,.382.584,11.649,11.649,0,0,1-1.085,1.24c-.318.4-.544.922-1.15,1.034a.612.612,0,0,1-.625-.223c-.783-1.088,1.307-2.677,2.478-2.635" transform="translate(-112.048 -54.278)" fill="#fff"/>
    <path id="Trazado_194591" data-name="Trazado 194591" d="M349.064,76.726c-.381.806-1.821,2.141-3.611,3.948-1.008,1.018-2.964.851-3.534-1.487a3.874,3.874,0,0,1,3.534-4.938c2.714-.2,4.649.282,3.611,2.478" transform="translate(-107.231 -54.633)" fill="#bd2506"/>
    <path id="Trazado_194592" data-name="Trazado 194592" d="M370.9,64.436c1.743.046,1.621,0,3.171,2.628s1.251,3.2-.885,2.037-2.286-2.537-5.136-2.787c-1.4-.123,1.487-1.913,2.85-1.877" transform="translate(-110.073 -52.479)" fill="#bd2506"/>
    <path id="Trazado_194593" data-name="Trazado 194593" d="M345.212,85.267c1.759-.078,6.316-.55,8.391-1.392s4.677-2.707,6.3-1.774-.3,1.719-2.123,2.076-7.3,1.886-8.677,2.824c-2.107,1.429-5.539,1.384-6.822,1.409s-3.7-1.913-2.227-3.144,2.72.107,5.153,0" transform="translate(-106.989 -56.316)" fill="#bd2506"/>
    <path id="Trazado_194594" data-name="Trazado 194594" d="M332.915,86.873c1.4-.235,2.6,4.158,2.2,6.78s-3.116,3.383-3.9,0-.652-6.385,1.7-6.78" transform="translate(-106.022 -57.422)" fill="#bd2506"/>
    <path id="Trazado_194595" data-name="Trazado 194595" d="M336.245,109.146c1.856.448,2.889,1.467,1.357,2.958s-2.992.975-3.481.541c-1.537-1.364.915-3.791,2.124-3.5" transform="translate(-106.334 -62.325)" fill="#7474f7"/>
    <path id="Trazado_194596" data-name="Trazado 194596" d="M372.18,73.455c1.18-1.615,3.742,1.123,1.783,1.682s-6.452,4.285-6.673,2.811c-.2-1.364,3.564-2.68,4.89-4.493" transform="translate(-110.03 -54.356)" fill="#bd2506"/>
    <path id="Trazado_194597" data-name="Trazado 194597" d="M321.768,108.285c1.5.061,1.878,1.325,1.437,3.085s-2.261,1.138-3.384-.094,1.129-3.024,1.948-2.991" transform="translate(-104.784 -62.14)" fill="#7474f7"/>
    <path id="Trazado_194598" data-name="Trazado 194598" d="M311.249,131.107c1.422.131,2.143,3.49,4,4.965s-.286,4.132-2,4.555-3.142-2.013-3.428-4.924-.571-4.782,1.429-4.6" transform="translate(-103.698 -67.167)" fill="#7474f7"/>
    <path id="Trazado_194599" data-name="Trazado 194599" d="M336.78,110a.093.093,0,0,1,.073.113,3.043,3.043,0,0,1-.541.869c-.231.358-.264.5-.657.731a.249.249,0,0,1-.311-.072c-.492-.7.5-1.9,1.436-1.641" transform="translate(-106.508 -62.512)" fill="#9292ff"/>
    <path id="Trazado_194600" data-name="Trazado 194600" d="M341.351,86.74a.235.235,0,0,1,.325-.116c.355.205.612.5.982.692a2.971,2.971,0,0,1,1.046.636c.232.278-.086.633-.423.645-.865.031-2.32-1.02-1.93-1.857" transform="translate(-107.174 -57.362)" fill="#fff"/>
    <path id="Trazado_194601" data-name="Trazado 194601" d="M332.59,88.208a.223.223,0,0,1,.208-.139c1.019-.1,1.65,1.547,1.506,2.238-.073.354-.6.334-.8.091a8.044,8.044,0,0,1-.65-1.287c-.171-.314-.393-.557-.266-.9" transform="translate(-106.216 -57.685)" fill="#fff"/>
    <path id="Trazado_194602" data-name="Trazado 194602" d="M321.944,110.363c0-.283-.069-.426.071-.686a.342.342,0,0,1,.356-.126c.905.137,1.092,1.869.092,2.019a.485.485,0,0,1-.583-.442,3.515,3.515,0,0,1,.064-.764" transform="translate(-105.042 -62.419)" fill="#9292ff"/>
    <path id="Trazado_194603" data-name="Trazado 194603" d="M310.627,133.114a.492.492,0,0,1,.839.1c.117.365.134.747.249,1.113a3.031,3.031,0,0,1,.268,1.042.522.522,0,0,1-.772.388,1.932,1.932,0,0,1-.585-2.639" transform="translate(-103.777 -67.569)" fill="#9292ff"/>
    <path id="Trazado_194604" data-name="Trazado 194604" d="M347.727,76.918a1.693,1.693,0,0,0-.094-1.085c-.126-.432.452-.681.811-.414.786.584.909,2.69-.53,2.613-.15-.009-.339-.1-.365-.244a1.6,1.6,0,0,1,.178-.87" transform="translate(-107.861 -54.876)" fill="#fff"/>
    <path id="Trazado_194605" data-name="Trazado 194605" d="M371.745,65.424c.878-.134,2.112.488,2.056,1.35a.474.474,0,0,1-.7.352,3.5,3.5,0,0,1-.657-.648,6.951,6.951,0,0,0-.826-.628.246.246,0,0,1,.128-.426" transform="translate(-110.496 -52.693)" fill="#fff"/>
    <path id="Trazado_194606" data-name="Trazado 194606" d="M376.467,171.022c2.139-.2,6.074.617,9.766,0s3.825,2.916,0,5.084-10.493.865-12.3-1.069-2.074-3.594,2.534-4.015" transform="translate(-110.626 -75.948)" fill="#4840ad"/>
    <path id="Trazado_194607" data-name="Trazado 194607" d="M360.416,170.984c2.2.9.136,2.447-2.737,4.015s-7.542.853-7.4-1.042,2.564-1.711,4.5-1.969,3.823-1.75,5.639-1" transform="translate(-108.162 -75.909)" fill="#4840ad"/>
    <path id="Trazado_194608" data-name="Trazado 194608" d="M407.316,169.894c.916,1.153-1.7,2.572-4.9,2.981s-2.659-1.161-2.287-2.405c.539-1.8,5.7-2.436,7.182-.576" transform="translate(-113.606 -75.468)" fill="#4840ad"/>
    <path id="Trazado_194609" data-name="Trazado 194609" d="M439.086,144.375c1.475,1.691-.09,3.726-1.8,4.154s-4.931-.86-3.132-2.051,3.6-3.631,4.936-2.1" transform="translate(-117.315 -69.985)" fill="#bd2506"/>
    <path id="Trazado_194610" data-name="Trazado 194610" d="M417.14,88.716l1.017-1.063c-2.707-1.987-6.44-3.066-10.048-4.109-1.493-.432-3.036-.879-4.441-1.375-1.995-.7-3.155-1.548-3.448-2.507-.317-1.035.271-2.366,1.795-4.068,3-3.355,9.172-5.832,9.234-5.856l-.653-1.263c-.267.106-6.581,2.638-9.827,6.264-1.852,2.068-2.532,3.8-2.078,5.282.434,1.422,1.869,2.546,4.385,3.435,1.452.512,3.02.966,4.536,1.4,3.468,1,7.054,2.04,9.528,3.856" transform="translate(-113.464 -53.37)" fill="#fff"/>
    <path id="Trazado_194611" data-name="Trazado 194611" d="M409.211,145.89a14.068,14.068,0,0,0,8.579-2.859c1.122-.89,2.171-1.755,3.161-2.571,4.25-3.5,7.31-6.033,10.092-5.568a51.175,51.175,0,0,1,8.193,1.85l.99.378.115-.94a17.427,17.427,0,0,0-1.22-8.48,14.723,14.723,0,0,0-3.5-5.053l-1.053,1.036.527-.518-.531.515a13.884,13.884,0,0,1,3.1,4.557,15.5,15.5,0,0,1,1.166,6.9,69.581,69.581,0,0,0-7.483-1.608c-3.566-.607-6.885,2.131-11.48,5.919-.982.811-2.024,1.67-3.137,2.553-3.823,3.031-10.225,3.35-13.172.656l-1.143.961a10.081,10.081,0,0,0,6.8,2.27" transform="translate(-113.887 -65.305)" fill="#fff"/>
    <path id="Trazado_194612" data-name="Trazado 194612" d="M433.308,126.969a.752.752,0,0,0,.791-.673c.008-.273.142-6.749-6.871-12.417a10.207,10.207,0,0,1-3.979-7.4c-.2-1.934,1.523-3.406,2.91-4.59.25-.214.486-.415.694-.6.6-.548,1.17-.979,1.721-1.4a10.2,10.2,0,0,0,4.245-5.706A9.012,9.012,0,0,0,432.428,87a.849.849,0,0,0-1.065-.3.656.656,0,0,0-.342.933,7.934,7.934,0,0,1,.279,6.152,8.844,8.844,0,0,1-3.764,5.052c-.55.416-1.172.889-1.825,1.482-.2.18-.421.371-.659.572-1.542,1.316-3.652,3.118-3.382,5.7a11.585,11.585,0,0,0,4.484,8.305c6.489,5.246,6.362,11.3,6.36,11.358a.742.742,0,0,0,.768.713Z" transform="translate(-116 -57.369)" fill="#fff"/>
    <path id="Trazado_194613" data-name="Trazado 194613" d="M418.7,106.947a.85.85,0,0,0,.568-.21.635.635,0,0,0-.016-.981c-2.393-2.039-6.031-4.3-12.924-3.632-4.414.419-7.384-2.188-10.01-4.489l-.122-.108c-2.64-2.315-7.753-7.259-7.8-7.308a.874.874,0,0,0-1.118-.049.635.635,0,0,0-.055.979c.052.05,5.19,5.019,7.859,7.359l.121.106c2.737,2.4,6.153,5.374,11.3,4.889,6.213-.6,9.37,1.308,11.648,3.247a.853.853,0,0,0,.552.2" transform="translate(-112.197 -58.11)" fill="#fff"/>
    <path id="Trazado_194614" data-name="Trazado 194614" d="M394.842,79.586a.778.778,0,0,0,.769-.531,11.59,11.59,0,0,1,6.748-7.539.671.671,0,0,0,.443-.9.835.835,0,0,0-1.028-.387,12.946,12.946,0,0,0-7.7,8.506.694.694,0,0,0,.586.835.89.89,0,0,0,.185.019" transform="translate(-112.97 -53.745)" fill="#fff"/>
    <path id="Trazado_194615" data-name="Trazado 194615" d="M401,125.719h.012a.743.743,0,0,0,.779-.7,16.391,16.391,0,0,1,.88-4.9,8.774,8.774,0,0,1,2.667-3.622,21.33,21.33,0,0,0,2.686-2.971,11.073,11.073,0,0,0,1.678-7.375.776.776,0,0,0-.886-.6.718.718,0,0,0-.685.775,9.962,9.962,0,0,1-1.447,6.456,19.851,19.851,0,0,1-2.517,2.78,10.112,10.112,0,0,0-3.015,4.164,17.372,17.372,0,0,0-.945,5.308.749.749,0,0,0,.793.681" transform="translate(-113.646 -61.538)" fill="#fff"/>
    <path id="Trazado_194616" data-name="Trazado 194616" d="M438.031,104.8l1.577-.127c-.029-.277-.778-6.8-6.333-8.516l-.527,1.308c4.609,1.423,5.276,7.277,5.282,7.335" transform="translate(-117.22 -59.47)" fill="#fff"/>
    <path id="Trazado_194617" data-name="Trazado 194617" d="M408.346,145.994a.638.638,0,0,0,.067,0,17.585,17.585,0,0,0,8.1-2.858c3.27-2.377,6.805-4.9,6.806-4.9a.637.637,0,0,0,.114-.975.87.87,0,0,0-1.114-.1s-3.542,2.525-6.818,4.906a16.119,16.119,0,0,1-7.219,2.544.727.727,0,0,0-.721.749.758.758,0,0,0,.788.635" transform="translate(-114.453 -68.469)" fill="#fff"/>
    <path id="Trazado_194618" data-name="Trazado 194618" d="M371.21,90.019a.692.692,0,0,0,.654-.409c.891-2.28,3.155-3.647,6.375-3.852,2.672-.17,4.743-1.181,5.4-2.638a2.6,2.6,0,0,0-.835-3.051,16.179,16.179,0,0,0-5.89-3.267,7.477,7.477,0,0,0-.508,1.13,15.216,15.216,0,0,1,5.38,2.957c.637.61.829,1.209.568,1.785-.449.99-2.143,1.744-4.216,1.876-5.138.327-6.957,3.065-7.584,4.668a.591.591,0,0,0,.431.77.793.793,0,0,0,.224.033" transform="translate(-110.385 -55.205)" fill="#fff"/>
    <path id="Trazado_194619" data-name="Trazado 194619" d="M412.268,169.841a.881.881,0,0,0,.288-.048.668.668,0,0,0,.448-.9c-1.425-3.187-.9-3.535,6.4-7.117.8-.389,1.661-.814,2.6-1.283a9.862,9.862,0,0,0,5.467-7.92.736.736,0,0,0-.755-.723.758.758,0,0,0-.827.66,8.642,8.642,0,0,1-4.667,6.777c-.938.467-1.8.89-2.594,1.278-7.144,3.5-9.064,4.444-7.1,8.834a.8.8,0,0,0,.737.44" transform="translate(-114.809 -71.74)" fill="#fff"/>
    <path id="Trazado_194620" data-name="Trazado 194620" d="M408.347,163.756a.841.841,0,0,0,.595-.235,27.963,27.963,0,0,1,6.383-4.033,32.883,32.883,0,0,0,6.505-4.551.634.634,0,0,0-.024-.98.875.875,0,0,0-1.119.021,31.939,31.939,0,0,1-6.145,4.3,28.944,28.944,0,0,0-6.789,4.323.635.635,0,0,0,.072.978.859.859,0,0,0,.523.172" transform="translate(-114.453 -72.161)" fill="#fff"/>
    <path id="Trazado_194621" data-name="Trazado 194621" d="M396.178,173.018c.032,0,.065,0,.1,0a.72.72,0,0,0,.689-.773,9.413,9.413,0,0,1,1.764-6.5c2.633-3.282,1.1-9.068,1.033-9.313a.8.8,0,0,0-.953-.514.694.694,0,0,0-.587.835c.015.053,1.433,5.425-.79,8.194a10.538,10.538,0,0,0-2.039,7.468.762.762,0,0,0,.784.607" transform="translate(-113.11 -72.631)" fill="#fff"/>
    <path id="Trazado_194622" data-name="Trazado 194622" d="M351.244,116.253c2.595,0,5.445-1.67,8.694-3.574.807-.472,1.637-.96,2.493-1.438,4.336-2.42,13.356-2.624,13.447-2.627a.611.611,0,1,0-.031-1.212c-.384.007-9.5.213-14.159,2.817-.866.483-1.706.975-2.519,1.452-3.354,1.965-6.255,3.662-8.524,3.326-1.823-.27-4.268-1.793-5.843-2.9a4.3,4.3,0,0,0-.918.911c1.686,1.184,4.387,2.865,6.53,3.183a5.76,5.76,0,0,0,.83.059" transform="translate(-107.461 -61.946)" fill="#fff"/>
    <path id="Trazado_194623" data-name="Trazado 194623" d="M349.871,130.522l.056,0a.73.73,0,0,0,.734-.74,44.619,44.619,0,0,1,.023-6.088,18.339,18.339,0,0,1,1.619-5.639.665.665,0,0,0-.417-.911.837.837,0,0,0-1.039.365A19.3,19.3,0,0,0,349.1,123.6a44.791,44.791,0,0,0-.021,6.277.756.756,0,0,0,.789.645" transform="translate(-108.02 -64.08)" fill="#fff"/>
    <path id="Trazado_194624" data-name="Trazado 194624" d="M366.963,132.38a.824.824,0,0,0,.67-.324,26.95,26.95,0,0,1,5.573-5.5c3.4-2.39,7.835-5.611,7.835-5.611l-1.009-1.069s-4.43,3.215-7.818,5.6a27.938,27.938,0,0,0-5.921,5.837.644.644,0,0,0,.248.956.871.871,0,0,0,.421.107" transform="translate(-109.908 -64.696)" fill="#fff"/>
    <path id="Trazado_194625" data-name="Trazado 194625" d="M435.346,120.32c-.8,1.264.041,3.013,1.879,3.906s3.977.593,4.778-.672-.04-3.013-1.878-3.906-3.977-.592-4.779.672" transform="translate(-117.471 -64.531)" fill="#fff"/>
    <path id="Trazado_194626" data-name="Trazado 194626" d="M437.053,121.408c-.439.693.022,1.651,1.03,2.14a2.079,2.079,0,0,0,2.618-.368c.439-.692-.021-1.651-1.029-2.14a2.08,2.08,0,0,0-2.619.368" transform="translate(-117.674 -64.889)" fill="#4840ad"/>
    <path id="Trazado_194627" data-name="Trazado 194627" d="M437.053,121.408c-.439.693.022,1.651,1.03,2.14a2.079,2.079,0,0,0,2.618-.368c.439-.692-.021-1.651-1.029-2.14a2.08,2.08,0,0,0-2.619.368" transform="translate(-117.674 -64.889)" fill="#01b3f9"/>
    <path id="Trazado_194628" data-name="Trazado 194628" d="M427.9,146.457a3.078,3.078,0,0,0-2.6,3.576,3.277,3.277,0,0,0,3.349,3.059,3.078,3.078,0,0,0,2.6-3.576,3.278,3.278,0,0,0-3.349-3.059" transform="translate(-116.398 -70.549)" fill="#fff"/>
    <path id="Trazado_194629" data-name="Trazado 194629" d="M428.234,148.381a1.687,1.687,0,0,0-1.424,1.959,1.8,1.8,0,0,0,1.836,1.677,1.689,1.689,0,0,0,1.424-1.96,1.8,1.8,0,0,0-1.836-1.676" transform="translate(-116.566 -70.973)" fill="#4840ad"/>
    <path id="Trazado_194630" data-name="Trazado 194630" d="M428.234,148.381a1.687,1.687,0,0,0-1.424,1.959,1.8,1.8,0,0,0,1.836,1.677,1.689,1.689,0,0,0,1.424-1.96,1.8,1.8,0,0,0-1.836-1.676" transform="translate(-116.566 -70.973)" fill="#01b3f9"/>
    <path id="Trazado_194631" data-name="Trazado 194631" d="M399.95,144.086a2.669,2.669,0,0,0-1.091,3.9,3.455,3.455,0,0,0,4.24,1.537,2.669,2.669,0,0,0,1.091-3.9,3.454,3.454,0,0,0-4.24-1.536" transform="translate(-113.451 -69.974)" fill="#fff"/>
    <path id="Trazado_194632" data-name="Trazado 194632" d="M400.834,145.695a1.463,1.463,0,0,0-.6,2.139,1.894,1.894,0,0,0,2.323.842,1.463,1.463,0,0,0,.6-2.139,1.893,1.893,0,0,0-2.323-.842" transform="translate(-113.623 -70.353)" fill="#01b3f9"/>
    <path id="Trazado_194633" data-name="Trazado 194633" d="M384.44,89.372c-.8,1.264.04,3.013,1.879,3.906s3.977.593,4.778-.672-.04-3.013-1.879-3.906-3.977-.592-4.778.672" transform="translate(-111.881 -57.713)" fill="#fff"/>
    <path id="Trazado_194634" data-name="Trazado 194634" d="M386.147,90.46c-.439.693.022,1.651,1.03,2.141a2.08,2.08,0,0,0,2.618-.368c.439-.693-.021-1.651-1.029-2.141a2.081,2.081,0,0,0-2.619.368" transform="translate(-112.083 -58.07)" fill="#01b3f9"/>
    <path id="Trazado_194635" data-name="Trazado 194635" d="M367.169,91.527A2.706,2.706,0,0,0,368.56,95.4a3.547,3.547,0,0,0,4.487-1.016,2.706,2.706,0,0,0-1.391-3.873,3.547,3.547,0,0,0-4.487,1.016" transform="translate(-109.975 -58.139)" fill="#fff"/>
    <path id="Trazado_194636" data-name="Trazado 194636" d="M368.682,92.534a1.483,1.483,0,0,0,.762,2.122,1.943,1.943,0,0,0,2.46-.557,1.483,1.483,0,0,0-.762-2.121,1.943,1.943,0,0,0-2.46.557" transform="translate(-110.161 -58.501)" fill="#01b3f9"/>
    <path id="Trazado_194637" data-name="Trazado 194637" d="M400.881,127.407a3.217,3.217,0,0,0-3.139,3.226,3.135,3.135,0,0,0,2.833,3.436,3.217,3.217,0,0,0,3.139-3.226,3.135,3.135,0,0,0-2.833-3.436" transform="translate(-113.375 -66.353)" fill="#fff"/>
    <path id="Trazado_194638" data-name="Trazado 194638" d="M400.979,129.338a1.761,1.761,0,0,0-1.72,1.768,1.718,1.718,0,0,0,1.553,1.884,1.763,1.763,0,0,0,1.72-1.768,1.718,1.718,0,0,0-1.553-1.883" transform="translate(-113.542 -66.779)" fill="#01b3f9"/>
    <path id="Trazado_194639" data-name="Trazado 194639" d="M418.719,94.221c0,1.446,1.7,2.617,3.806,2.617s3.806-1.172,3.806-2.617-1.7-2.617-3.806-2.617-3.806,1.172-3.806,2.617" transform="translate(-115.678 -58.466)" fill="#fff"/>
    <path id="Trazado_194640" data-name="Trazado 194640" d="M420.651,94.556c0,.792.934,1.435,2.086,1.435s2.086-.642,2.086-1.435-.934-1.435-2.086-1.435-2.086.642-2.086,1.435" transform="translate(-115.89 -58.8)" fill="#01b3f9"/>
    <path id="Trazado_194641" data-name="Trazado 194641" d="M376.93,107.138c0,1.446,1.5,2.617,3.36,2.617s3.361-1.172,3.361-2.617-1.5-2.617-3.361-2.617-3.36,1.172-3.36,2.617" transform="translate(-111.089 -61.311)" fill="#fff"/>
    <path id="Trazado_194642" data-name="Trazado 194642" d="M378.636,107.473a1.9,1.9,0,1,0,1.842-1.435,1.677,1.677,0,0,0-1.842,1.435" transform="translate(-111.277 -61.646)" fill="#01b3f9"/>
    <path id="Trazado_194643" data-name="Trazado 194643" d="M380.692,117.012a2.663,2.663,0,0,0-1.534,3.7,3.319,3.319,0,0,0,4.02,1.767,2.662,2.662,0,0,0,1.533-3.7,3.317,3.317,0,0,0-4.019-1.767" transform="translate(-111.305 -64.027)" fill="#fff"/>
    <path id="Trazado_194644" data-name="Trazado 194644" d="M381.423,118.618a1.46,1.46,0,0,0-.84,2.03,1.819,1.819,0,0,0,2.2.968,1.459,1.459,0,0,0,.84-2.029,1.819,1.819,0,0,0-2.2-.968" transform="translate(-111.475 -64.397)" fill="#01b3f9"/>
    <path id="Trazado_194645" data-name="Trazado 194645" d="M348.694,133.125a2.583,2.583,0,0,0-.776,3.88,3.44,3.44,0,0,0,4.308,1.129,2.585,2.585,0,0,0,.776-3.88,3.439,3.439,0,0,0-4.308-1.128" transform="translate(-107.843 -67.536)" fill="#fff"/>
    <path id="Trazado_194646" data-name="Trazado 194646" d="M349.664,134.621a1.418,1.418,0,0,0-.426,2.127,1.887,1.887,0,0,0,2.362.618,1.416,1.416,0,0,0,.425-2.126,1.884,1.884,0,0,0-2.361-.619" transform="translate(-108.015 -67.901)" fill="#4840ad"/>
    <path id="Trazado_194647" data-name="Trazado 194647" d="M326.774,158.746a2.585,2.585,0,0,0-.776,3.88,3.44,3.44,0,0,0,4.308,1.128,2.585,2.585,0,0,0,.776-3.88,3.439,3.439,0,0,0-4.308-1.128" transform="translate(-105.435 -73.18)" fill="#fff"/>
    <path id="Trazado_194648" data-name="Trazado 194648" d="M327.745,160.243a1.416,1.416,0,0,0-.425,2.126,1.884,1.884,0,0,0,2.361.618,1.416,1.416,0,0,0,.425-2.126,1.884,1.884,0,0,0-2.361-.618" transform="translate(-105.608 -73.546)" fill="#4840ad"/>
    <path id="Trazado_194649" data-name="Trazado 194649" d="M334.42,144.962a2.584,2.584,0,0,0-.776,3.88,3.439,3.439,0,0,0,4.309,1.128,2.584,2.584,0,0,0,.775-3.88,3.438,3.438,0,0,0-4.309-1.128" transform="translate(-106.275 -70.143)" fill="#fff"/>
    <path id="Trazado_194650" data-name="Trazado 194650" d="M335.391,146.458a1.416,1.416,0,0,0-.426,2.126,1.885,1.885,0,0,0,2.362.618,1.416,1.416,0,0,0,.425-2.126,1.884,1.884,0,0,0-2.361-.618" transform="translate(-106.448 -70.509)" fill="#4840ad"/>
    <path id="Trazado_194651" data-name="Trazado 194651" d="M364.043,132.581a2.585,2.585,0,0,0-.776,3.88,3.44,3.44,0,0,0,4.308,1.128,2.584,2.584,0,0,0,.776-3.88,3.44,3.44,0,0,0-4.309-1.129" transform="translate(-109.528 -67.416)" fill="#fff"/>
    <path id="Trazado_194652" data-name="Trazado 194652" d="M365.014,134.078a1.417,1.417,0,0,0-.425,2.126,1.885,1.885,0,0,0,2.362.618,1.416,1.416,0,0,0,.425-2.126,1.884,1.884,0,0,0-2.361-.618" transform="translate(-109.7 -67.781)" fill="#4840ad"/>
    <path id="Trazado_194653" data-name="Trazado 194653" d="M345.9,144.962a2.584,2.584,0,0,0-.775,3.88,3.438,3.438,0,0,0,4.309,1.128,2.584,2.584,0,0,0,.775-3.88,3.438,3.438,0,0,0-4.308-1.128" transform="translate(-107.535 -70.143)" fill="#fff"/>
    <path id="Trazado_194654" data-name="Trazado 194654" d="M346.871,146.458a1.417,1.417,0,0,0-.425,2.126,1.885,1.885,0,0,0,2.362.618,1.416,1.416,0,0,0,.426-2.126,1.885,1.885,0,0,0-2.362-.618" transform="translate(-107.708 -70.509)" fill="#4840ad"/>
    <path id="Trazado_194655" data-name="Trazado 194655" d="M440.463,105.867a3.2,3.2,0,0,0-3.076,3.272,3.152,3.152,0,0,0,2.9,3.393,3.2,3.2,0,0,0,3.076-3.272,3.152,3.152,0,0,0-2.9-3.393" transform="translate(-117.729 -61.608)" fill="#fff"/>
    <path id="Trazado_194656" data-name="Trazado 194656" d="M440.59,107.8a1.752,1.752,0,0,0-1.685,1.793,1.727,1.727,0,0,0,1.589,1.86,1.752,1.752,0,0,0,1.685-1.793,1.727,1.727,0,0,0-1.589-1.86" transform="translate(-117.895 -62.034)" fill="#4840ad"/>
    <path id="Trazado_194657" data-name="Trazado 194657" d="M440.59,107.8a1.752,1.752,0,0,0-1.685,1.793,1.727,1.727,0,0,0,1.589,1.86,1.752,1.752,0,0,0,1.685-1.793,1.727,1.727,0,0,0-1.589-1.86" transform="translate(-117.895 -62.034)" fill="#01b3f9"/>
    <path id="Trazado_194658" data-name="Trazado 194658" d="M398.643,154.507a2.9,2.9,0,0,0-2.533,3.35,3.142,3.142,0,0,0,3.4,2.7,2.9,2.9,0,0,0,2.533-3.35,3.141,3.141,0,0,0-3.4-2.7" transform="translate(-113.192 -72.321)" fill="#fff"/>
    <path id="Trazado_194659" data-name="Trazado 194659" d="M399,156.263a1.592,1.592,0,0,0-1.389,1.836,1.721,1.721,0,0,0,1.862,1.48,1.591,1.591,0,0,0,1.389-1.835A1.722,1.722,0,0,0,399,156.263" transform="translate(-113.359 -72.71)" fill="#01b3f9"/>
    <path id="Trazado_194660" data-name="Trazado 194660" d="M388.986,151.423a2.9,2.9,0,0,0-2.533,3.35,3.142,3.142,0,0,0,3.4,2.7,2.9,2.9,0,0,0,2.533-3.35,3.142,3.142,0,0,0-3.4-2.7" transform="translate(-112.131 -71.641)" fill="#fff"/>
    <path id="Trazado_194661" data-name="Trazado 194661" d="M389.349,153.179a1.592,1.592,0,0,0-1.389,1.837,1.723,1.723,0,0,0,1.861,1.481,1.592,1.592,0,0,0,1.389-1.837,1.723,1.723,0,0,0-1.861-1.481" transform="translate(-112.299 -72.03)" fill="#4840ad"/>
    <path id="Trazado_194662" data-name="Trazado 194662" d="M363.882,173.371a.75.75,0,0,0,.791-.681,15.027,15.027,0,0,1,1.886-6.336c1.693-2.987,4.1-3.777,10.976-4.778,3.9-.567,8-3.845,8.177-3.984a.636.636,0,0,0,.046-.98.873.873,0,0,0-1.118-.041c-.039.031-3.937,3.138-7.365,3.638-6.821.993-10.03,1.817-12.134,5.529a16.033,16.033,0,0,0-2.052,6.93.744.744,0,0,0,.778.7Z" transform="translate(-109.57 -72.739)" fill="#fff"/>
    <path id="Trazado_194663" data-name="Trazado 194663" d="M361.44,166.318a.768.768,0,0,0,.782-.587,12.911,12.911,0,0,1,2.059-4.737,17,17,0,0,1,5.65-4.565.644.644,0,0,0,.247-.956.864.864,0,0,0-1.092-.218,18.412,18.412,0,0,0-6.138,4.99,13.983,13.983,0,0,0-2.291,5.274.713.713,0,0,0,.661.791.809.809,0,0,0,.122.009" transform="translate(-109.302 -72.467)" fill="#fff"/>
    <path id="Trazado_194664" data-name="Trazado 194664" d="M346.559,172.294a.772.772,0,0,0,.778-.566,62.058,62.058,0,0,0,1.132-10.643c.078-5.625.12-9.93.12-9.93a.744.744,0,0,0-.784-.7H347.8a.749.749,0,0,0-.792.687s-.044,4.3-.119,9.926a60.648,60.648,0,0,1-1.107,10.406.706.706,0,0,0,.633.809.936.936,0,0,0,.146.012" transform="translate(-107.667 -71.432)" fill="#fff"/>
    <path id="Trazado_194665" data-name="Trazado 194665" d="M345.546,169.276a.806.806,0,0,0,.851-.69.693.693,0,0,0-.73-.7l-.118,0a25,25,0,0,1-7.915-1.053,52.628,52.628,0,0,1-6.593-3.155.863.863,0,0,0-1.095.2.644.644,0,0,0,.233.96,53.3,53.3,0,0,0,6.859,3.278,26.648,26.648,0,0,0,8.5,1.154Z" transform="translate(-105.915 -74.321)" fill="#fff"/>
    <path id="Trazado_194666" data-name="Trazado 194666" d="M351.277,167.761a.782.782,0,0,0,.764-.514,23.615,23.615,0,0,0,.922-5.806c.048-3.512.1-5.582.1-5.585a.743.743,0,0,0-.776-.707.78.78,0,0,0-.807.679s-.05,2.076-.1,5.6a22.719,22.719,0,0,1-.868,5.463.69.69,0,0,0,.56.849.887.887,0,0,0,.206.024" transform="translate(-108.185 -72.467)" fill="#fff"/>
    <path id="Trazado_194667" data-name="Trazado 194667" d="M346.915,154.682a.8.8,0,0,0,.73-.426.665.665,0,0,0-.423-.907c-.053-.019-5.329-1.971-7.883-3.868a.87.87,0,0,0-1.115.08.636.636,0,0,0,.092.978c2.74,2.035,8.067,4.006,8.293,4.088a.868.868,0,0,0,.306.055" transform="translate(-106.818 -71.181)" fill="#fff"/>
    <path id="Trazado_194668" data-name="Trazado 194668" d="M384.019,63.686a.8.8,0,0,0,.732-.428c1.388-2.932,2.074-4.419,2.074-4.419a.669.669,0,0,0-.439-.9.838.838,0,0,0-1.03.384s-.685,1.485-2.069,4.408a.666.666,0,0,0,.429.906.886.886,0,0,0,.3.053" transform="translate(-111.781 -51.037)" fill="#fff"/>
    <path id="Trazado_194669" data-name="Trazado 194669" d="M380.342,63.025c0,1.446,1.5,2.617,3.36,2.617s3.361-1.172,3.361-2.617-1.505-2.617-3.361-2.617-3.36,1.172-3.36,2.617" transform="translate(-111.464 -51.593)" fill="#fff"/>
    <path id="Trazado_194670" data-name="Trazado 194670" d="M382.048,63.36a1.9,1.9,0,1,0,1.842-1.435,1.677,1.677,0,0,0-1.842,1.435" transform="translate(-111.651 -51.927)" fill="#01b3f9"/>
    <path id="Trazado_194671" data-name="Trazado 194671" d="M361.482,71.341a24.723,24.723,0,0,0,5.643-.838.683.683,0,0,0,.523-.867.817.817,0,0,0-.99-.458c-1.409.381-5.419,1.212-7.031.508-1.444-.632-3.331-3.825-4.18-5.689a.832.832,0,0,0-1.029-.387.668.668,0,0,0-.441.9c.248.543,2.492,5.342,4.942,6.416a6.6,6.6,0,0,0,2.564.416" transform="translate(-108.563 -52.287)" fill="#fff"/>
    <path id="Trazado_194672" data-name="Trazado 194672" d="M353.691,78.2a.846.846,0,0,0,.564-.208c.093-.082,2.248-2.036,1.945-4.446a19.411,19.411,0,0,0-2.132-5.5.842.842,0,0,0-1.06-.313.656.656,0,0,0-.357.929,18.6,18.6,0,0,1,1.975,5.037c.222,1.764-1.483,3.307-1.5,3.323a.634.634,0,0,0,.011.981.854.854,0,0,0,.555.2" transform="translate(-108.414 -53.19)" fill="#fff"/>
    <path id="Trazado_194673" data-name="Trazado 194673" d="M365.143,69.2a2.706,2.706,0,0,0,1.391,3.872,3.545,3.545,0,0,0,4.487-1.016,2.706,2.706,0,0,0-1.391-3.872,3.546,3.546,0,0,0-4.487,1.016" transform="translate(-109.752 -53.22)" fill="#fff"/>
    <path id="Trazado_194674" data-name="Trazado 194674" d="M366.657,70.2a1.483,1.483,0,0,0,.763,2.122,1.944,1.944,0,0,0,2.459-.557,1.483,1.483,0,0,0-.762-2.122,1.944,1.944,0,0,0-2.46.557" transform="translate(-109.938 -53.581)" fill="#01b3f9"/>
    <path id="Trazado_194675" data-name="Trazado 194675" d="M330.625,103.069a7.771,7.771,0,0,0,6.109-3.43c1.719-2.411,4.1-5.612,4.1-5.612l-1.326-.758s-2.389,3.216-4.115,5.635c-1.385,1.94-3.941,3.426-6.149,2.512a12.086,12.086,0,0,1-4.26-2.556.87.87,0,0,0-1.106-.143.637.637,0,0,0-.173.962c.052.061,1.277,1.507,4.86,2.991a5.363,5.363,0,0,0,2.06.4" transform="translate(-105.228 -58.833)" fill="#fff"/>
    <path id="Trazado_194676" data-name="Trazado 194676" d="M338.871,92.283a2.705,2.705,0,0,0,1.391,3.872,3.546,3.546,0,0,0,4.487-1.016,2.706,2.706,0,0,0-1.391-3.872,3.547,3.547,0,0,0-4.487,1.016" transform="translate(-106.868 -58.306)" fill="#fff"/>
    <path id="Trazado_194677" data-name="Trazado 194677" d="M340.384,93.29a1.483,1.483,0,0,0,.762,2.122,1.944,1.944,0,0,0,2.46-.557,1.483,1.483,0,0,0-.763-2.121,1.943,1.943,0,0,0-2.459.556" transform="translate(-107.053 -58.668)" fill="#01b3f9"/>
    <path id="Trazado_194678" data-name="Trazado 194678" d="M325,115.616s2.443-2.94,4.087-4.822a8.412,8.412,0,0,0,2.137-6.1.769.769,0,0,0-.867-.617.724.724,0,0,0-.709.758,7.253,7.253,0,0,1-1.819,5.117c-1.654,1.893-4.11,4.85-4.11,4.85Z" transform="translate(-105.246 -61.213)" fill="#fff"/>
    <path id="Trazado_194679" data-name="Trazado 194679" d="M318.745,130.937a.894.894,0,0,0,.238-.032.681.681,0,0,0,.517-.869c-.01-.028-1.009-2.819-1.408-4.543a30.051,30.051,0,0,1-.65-5.83.8.8,0,0,0-1.583,0,30.721,30.721,0,0,0,.68,6.106c.416,1.8,1.408,4.566,1.45,4.683a.789.789,0,0,0,.756.486" transform="translate(-104.383 -64.495)" fill="#fff"/>
    <path id="Trazado_194687" data-name="Trazado 194687" d="M373.721,158.624q.278,0,.559-.007a22.453,22.453,0,0,0,13.656-4.935c1.4.471,5.339,1.375,11.235-.632a13.426,13.426,0,0,0,5.872-3.951,14.164,14.164,0,0,0,6.688-1.305,8.954,8.954,0,0,0,4.456-4.322,10.084,10.084,0,0,0,7.357-2.5,7.6,7.6,0,0,0,2.418-4.86,11.278,11.278,0,0,0,4.634-4.948,11.539,11.539,0,0,0,.619-7.011,13.946,13.946,0,0,0,3.843-7.681c.487-4.949-.832-7.481-1.376-8.293.28-1.168,1.165-5.5-.147-9.164a12.436,12.436,0,0,0-6.77-7.348.837.837,0,0,0-1.034.368.666.666,0,0,0,.417.91,11.155,11.155,0,0,1,5.877,6.485c1.366,3.809.057,8.669.044,8.718l-.09.324.234.264c.013.016,1.8,2.183,1.268,7.617-.393,3.99-3.673,7.106-3.706,7.137l-.3.282.116.374a10.359,10.359,0,0,1-.474,6.528,10.055,10.055,0,0,1-4.307,4.433l-.4.2-.005.4a6.4,6.4,0,0,1-1.984,4.29,8.319,8.319,0,0,1-6.6,2.037l-.754-.147-.187.656a7.269,7.269,0,0,1-3.9,4.029,12.317,12.317,0,0,1-6.2,1.111l-.517-.071-.28.391a11.71,11.71,0,0,1-5.386,3.754c-6.571,2.238-10.428.505-10.467.488l-.542-.252-.418.4a20.74,20.74,0,0,1-12.936,4.84c-8.051.24-14.657-4.61-14.723-4.659l-.714-.53-.479.706c-.074.108-1.939,2.705-7.061,2.955a9.021,9.021,0,0,1-7.04-2.782l-.426-.508-.619.322c-.048.024-4.856,2.5-8.426,1.9-11.02-1.849-10.857-11.4-10.844-11.81l.009-.3-.252-.214a10.614,10.614,0,0,1-3.452-7.585c.1-4.516,4.787-7.644,4.835-7.675l.391-.257-.087-.423c-.013-.063-1.252-6.49,4.709-14.979,3.481-4.954,12.124-7.385,12.211-7.408l.57-.158-.016-.524a19.8,19.8,0,0,1,6.245-13.612c5.09-4.89,12.635-5,12.711-5l.552,0,.187-.455a19.294,19.294,0,0,1,2.933-4.743c1.757-2,5.437-2.911,5.474-2.92l.347-.084.156-.286A15.292,15.292,0,0,1,379.3,70c2.7-.973,6.067-.853,10.017.359l.4.123.339-.228c2.73-1.832,6.662-1.247,6.7-1.242a.782.782,0,0,0,.917-.561.706.706,0,0,0-.64-.8,12.746,12.746,0,0,0-7.593,1.285c-4.163-1.214-7.778-1.286-10.75-.214a16.858,16.858,0,0,0-8.535,6.6c-1.045.3-4.213,1.325-5.967,3.319a20.264,20.264,0,0,0-2.978,4.684c-1.939.113-8.532.836-13.322,5.435a21.074,21.074,0,0,0-6.652,14.068c-2.058.639-9.235,3.144-12.534,7.841-5.491,7.82-5.194,13.913-4.986,15.539-1.223.906-5,4.058-5.1,8.5a11.7,11.7,0,0,0,3.7,8.4c.062,1.8.929,11.029,12.126,12.907,3.406.564,7.447-1.091,8.945-1.785a10.746,10.746,0,0,0,7.952,2.875c4.441-.216,6.821-2.023,7.8-3.006a27.966,27.966,0,0,0,14.579,4.544" transform="translate(-104.686 -53.161)" fill="#bd2506"/>
    <path id="Trazado_194680" data-name="Trazado 194680" d="M308.928,157.748a.761.761,0,0,0,.785-.613,43.381,43.381,0,0,1,1.412-6.354A9.642,9.642,0,0,1,313.6,147.2a.634.634,0,0,0-.006-.981.873.873,0,0,0-1.12.005,10.952,10.952,0,0,0-2.872,4.18,43.6,43.6,0,0,0-1.459,6.566.72.72,0,0,0,.694.77c.031,0,.062,0,.093,0" transform="translate(-103.534 -70.455)" fill="#fff"/>
    <g id="Grupo_138237" data-name="Grupo 138237" transform="translate(206.566 0)" opacity="0.46">
      <g id="Grupo_138236" data-name="Grupo 138236" transform="translate(0 0)">
        <g id="Grupo_138235" data-name="Grupo 138235" clip-path="url(#clip-path-3)">
          <path id="Trazado_194689" data-name="Trazado 194689" d="M310.343,82.679c1.981-.851,48.034-56.136,101.8-23.021s18.181,80.11,18.181,80.11-6.879,17.787-51.472-3.95-68.506-53.14-68.506-53.14" transform="translate(-310.343 -49.101)" fill="#8cb1ff"/>
        </g>
      </g>
    </g>
    <path id="Trazado_194681" data-name="Trazado 194681" d="M321.705,115.442a2.585,2.585,0,0,0-.775,3.88,3.44,3.44,0,0,0,4.308,1.128,2.585,2.585,0,0,0,.775-3.88,3.44,3.44,0,0,0-4.309-1.128" transform="translate(-104.879 -63.64)" fill="#fff"/>
    <path id="Trazado_194682" data-name="Trazado 194682" d="M322.676,116.939a1.416,1.416,0,0,0-.426,2.126,1.885,1.885,0,0,0,2.362.618,1.416,1.416,0,0,0,.425-2.126,1.884,1.884,0,0,0-2.361-.618" transform="translate(-105.051 -64.005)" fill="#4840ad"/>
    <path id="Trazado_194683" data-name="Trazado 194683" d="M316.953,129.609a2.585,2.585,0,0,0-.776,3.88,3.441,3.441,0,0,0,4.309,1.129,2.585,2.585,0,0,0,.775-3.88,3.439,3.439,0,0,0-4.308-1.128" transform="translate(-104.357 -66.761)" fill="#fff"/>
    <path id="Trazado_194684" data-name="Trazado 194684" d="M317.924,131.105a1.416,1.416,0,0,0-.425,2.126,1.887,1.887,0,0,0,2.362.619,1.418,1.418,0,0,0,.426-2.127,1.886,1.886,0,0,0-2.362-.618" transform="translate(-104.529 -67.126)" fill="#4840ad"/>
    <path id="Trazado_194685" data-name="Trazado 194685" d="M313.266,144.3a3.071,3.071,0,0,0-3.335,2.642,2.866,2.866,0,0,0,2.605,3.21,3.072,3.072,0,0,0,3.336-2.642,2.866,2.866,0,0,0-2.606-3.21" transform="translate(-103.729 -70.073)" fill="#fff"/>
    <path id="Trazado_194686" data-name="Trazado 194686" d="M313.268,146a1.684,1.684,0,0,0-1.828,1.448,1.571,1.571,0,0,0,1.428,1.76,1.683,1.683,0,0,0,1.828-1.449A1.57,1.57,0,0,0,313.268,146" transform="translate(-103.896 -70.449)" fill="#4840ad"/>
    <path id="Trazado_194688" data-name="Trazado 194688" d="M372.686,133.689a.847.847,0,0,0,.586-.226,68.356,68.356,0,0,1,6.168-4.979.637.637,0,0,0,.114-.975.874.874,0,0,0-1.114-.1,68.91,68.91,0,0,0-6.338,5.12.634.634,0,0,0,.052.979.849.849,0,0,0,.533.181" transform="translate(-110.536 -66.32)" fill="#fff"/>
    <path id="Trazado_194690" data-name="Trazado 194690" d="M449.812,128.292s-4.618,31.146-26.226,45.81-35.37,12.313-35.37,12.313l1.4-23.128s25.646-2.993,39.178-12.6c11.29-8.013,21.02-22.4,21.02-22.4" transform="translate(-112.328 -66.549)" fill="#e3e8ff"/>
    <path id="Trazado_194691" data-name="Trazado 194691" d="M297.5,188.521c-5.414-22.006-10.326-32.79-2.95-47.432,5.045-10.014-4.425-17.818,3.687-32.676S309.683,80.6,333.95,93.319c17.425,9.132,29.159,13.283,37.858,23.819-4.42,2.6-4.3,8.8-7.058,19.417-5.613,21.565,7.154,22.462,1.714,34.074-2.454,5.239-16.376,12.935-18.144,27.316a75.171,75.171,0,0,1-7.4,24.3c-6.092,2.055-11.713,3.879-15.308,5.1-5.971,2.031-24.189-4.2-27.368-12.384-2.847-7.327,2.01-15.273-.737-26.443" transform="translate(-101.632 -57.705)" fill="url(#linear-gradient-14)"/>
    <g id="Grupo_138240" data-name="Grupo 138240" transform="translate(239.284 59.433)" style="isolation: isolate">
      <g id="Grupo_138239" data-name="Grupo 138239" transform="translate(0 0)">
        <g id="Grupo_138238" data-name="Grupo 138238" clip-path="url(#clip-path-4)">
          <path id="Trazado_194692" data-name="Trazado 194692" d="M365.752,180.975c5.172-4.854,6.084-9.616,2.887-17.558-1.675-4.16-4.886-11.95-2.887-19.633,2.763-10.62,7.817-15.858,12.237-18.455,2.817,3.413,6.223,9.04,9.312,14.461,10.632,18.655,16.644,20.867,8.232,43.008-8,21.063-11.369,27.931-18.018,34.773-4.591,4.724-17.329,8.45-30.418,12.867a75.149,75.149,0,0,0,7.4-24.3c1.768-14.381,6.84-21.021,11.251-25.161" transform="translate(-347.097 -125.329)" fill="url(#linear-gradient)"/>
        </g>
      </g>
    </g>
    <g id="Grupo_138243" data-name="Grupo 138243" transform="translate(191.067 91.672)" style="isolation: isolate">
      <g id="Grupo_138242" data-name="Grupo 138242" transform="translate(0 0)">
        <g id="Grupo_138241" data-name="Grupo 138241" clip-path="url(#clip-path-5)">
          <path id="Trazado_194693" data-name="Trazado 194693" d="M318.6,190.565s.8,2.837,0,4.495c-.858,1.783-5.986,2.211-8.454,1.692s-6.005.368-8.893,0a5.838,5.838,0,0,1-5.364-6.943,24.93,24.93,0,0,1,3.595-6.133c.229-.287.46-.582.707-.919l.013-.016h0a149.655,149.655,0,0,0,8.326-12.868,11,11,0,0,0-1.123-.97,12.883,12.883,0,0,0-4.924-2.225,61.15,61.15,0,0,1-4.012,8.566,56.152,56.152,0,0,0-5.533,11.75s1.806,7.172,2.371,9.366c.058.238.1.393.1.393.839,3.2,11.55,1.5,14.738,2.04,5.728.967,10.672-.968,10.911-3.455s-2.457-4.772-2.457-4.772" transform="translate(-292.932 -166.678)" fill="url(#linear-gradient-2)"/>
        </g>
      </g>
    </g>
    <path id="Trazado_194694" data-name="Trazado 194694" d="M322.628,232.8s-2.3,1.691-8.51,3.823c-3.468,1.191-6.174.1-9.706-1.75-2.731-1.428-3.967-1.013-4.81-2.763a40.562,40.562,0,0,0-2.525-3.905,43.134,43.134,0,0,1,8.285,2.235c3.759,1.532,17.265,2.361,17.265,2.361" transform="translate(-102.321 -88.561)" fill="url(#linear-gradient-4)"/>
    <path id="Trazado_194695" data-name="Trazado 194695" d="M411.7,156.058c.758-.313,18.669-7.745,26.512-13.631,9.574-7.182,13.941-13.125,14.158-19.274.259-7.338-5.626-9.981-8.147-11.52a29.568,29.568,0,0,0,.035,3.576c1.965,1.356,4.952,4.052,4.817,7.853-.183,5.2-4.316,10.654-13.006,17.172-7.507,5.635-25.594,13.139-25.775,13.214Z" transform="translate(-114.754 -62.879)" fill="#fff"/>
    <g id="Grupo_138246" data-name="Grupo 138246" transform="translate(190.761 62.861)" style="isolation: isolate">
      <g id="Grupo_138245" data-name="Grupo 138245" transform="translate(0 0)">
        <g id="Grupo_138244" data-name="Grupo 138244" clip-path="url(#clip-path-6)">
          <path id="Trazado_194696" data-name="Trazado 194696" d="M295.169,130.954s7.146-2.755,12.7-.014,6.154,6.413,6.948,11.531-1.985,10.51-3.771,14.6-8.338,13.852-11.912,18.1-3.97,7.2-3.97,7.2h-1.39l-1.191-5.274s6.784-13.185,9.3-19.01c-8.3-4.91-6.318-11.343-6.318-11.343Z" transform="translate(-292.588 -129.725)" fill="url(#linear-gradient-2)"/>
        </g>
      </g>
    </g>
    <path id="Trazado_194697" data-name="Trazado 194697" d="M326.515,230.262s-5.952,2.272-9.527,2.62-7.149-1.416-10.92-2.62-5.626-1.768-7.875-3.66-2.646-3.073-1.654-5a20.35,20.35,0,0,1,2.78-3.843l4.834,5.042s2.594-1.364,7.118.622,15.244,6.842,15.244,6.842" transform="translate(-102.204 -86.259)" fill="#e3e8ff"/>
    <path id="Trazado_194698" data-name="Trazado 194698" d="M327.766,231.845a13.715,13.715,0,0,1-3.548,1.219c-1.41.2-4.205-1.364-5.978-2.578a37.178,37.178,0,0,0-10.819-4.662s1.39-2.9,11.021,1.816c2.971,1.456,9.325,4.206,9.325,4.206" transform="translate(-103.456 -87.843)" fill="#e3e8ff"/>
    <g id="Grupo_138249" data-name="Grupo 138249" transform="translate(195.633 130.194)" style="isolation: isolate">
      <g id="Grupo_138248" data-name="Grupo 138248" transform="translate(0 0)">
        <g id="Grupo_138247" data-name="Grupo 138247" clip-path="url(#clip-path-7)">
          <path id="Trazado_194699" data-name="Trazado 194699" d="M328.128,229.894a51.578,51.578,0,0,1-9.65-4.89c-4.713-3.109-7.3-4.971-9.148-5.512s-4.955.851-4.955.851-1.116-2.956-3.247-3.825c-2.792-1.14-3.069.334-3.069.334l.341,1.893a4.819,4.819,0,0,1,3.125,1.771,33.607,33.607,0,0,1,2.849,3.651,17.229,17.229,0,0,1,7.076,0c3.177.869,8.286,3.991,10.323,4.778a27.131,27.131,0,0,0,6.352.948" transform="translate(-298.061 -216.085)" fill="url(#linear-gradient-4)"/>
        </g>
      </g>
    </g>
    <g id="Grupo_138252" data-name="Grupo 138252" transform="translate(225.209 82.492)" style="isolation: isolate">
      <g id="Grupo_138251" data-name="Grupo 138251" transform="translate(0 0)">
        <g id="Grupo_138250" data-name="Grupo 138250" clip-path="url(#clip-path-8)">
          <path id="Trazado_194700" data-name="Trazado 194700" d="M348.253,156.884c3.919,2.429,9.528,10.224,12.109,15.586s.2,5.912-2.779,7.723-11.514,3.231-18.064,0-8.735-6.938-8.139-11.866,3.375-11,6.352-12.571,7.345-.841,10.521,1.127" transform="translate(-331.285 -154.905)" fill="url(#linear-gradient-5)"/>
        </g>
      </g>
    </g>
    <path id="Trazado_194701" data-name="Trazado 194701" d="M344.444,165.43s-3.1-.115-4.13.751-.748.89-1.143,1.889a9.926,9.926,0,0,1-1.969,2.792c-.709.759-.551.965,0,1.516a6.458,6.458,0,0,1,.892,2.381,12.865,12.865,0,0,0,5.593,3.192c3.827,1.184,13.047,1.477,13.047,1.477s-4.725-8.732-6.185-10.476-6.1-3.523-6.1-3.523" transform="translate(-106.674 -74.73)" fill="#fff"/>
    <path id="Trazado_194702" data-name="Trazado 194702" d="M339.481,174.25c.538,2.672,2.813,4.553,5.081,4.2s3.671-2.8,3.133-5.472-2.813-4.553-5.082-4.2-3.67,2.8-3.133,5.472" transform="translate(-106.964 -75.46)" fill="url(#linear-gradient-37)"/>
    <g id="Grupo_138255" data-name="Grupo 138255" transform="translate(233 95.596)" opacity="0.3" style="isolation: isolate">
      <g id="Grupo_138254" data-name="Grupo 138254" transform="translate(0 0)">
        <g id="Grupo_138253" data-name="Grupo 138253" clip-path="url(#clip-path-9)">
          <path id="Trazado_194703" data-name="Trazado 194703" d="M340.1,174.637a2.575,2.575,0,0,0,2.7,2.231,2.31,2.31,0,0,0,1.663-2.9,2.575,2.575,0,0,0-2.7-2.231,2.309,2.309,0,0,0-1.663,2.9" transform="translate(-340.038 -171.711)" fill="#000e3a"/>
        </g>
      </g>
    </g>
    <path id="Trazado_194704" data-name="Trazado 194704" d="M340.416,170.045a1.984,1.984,0,0,0,2.079,1.718,1.779,1.779,0,0,0,1.281-2.238,1.985,1.985,0,0,0-2.079-1.718,1.779,1.779,0,0,0-1.281,2.238" transform="translate(-107.075 -75.252)" fill="#fff"/>
    <path id="Trazado_194705" data-name="Trazado 194705" d="M336.727,171.417s.173-.116.983.661c.507.486.2,1.825,1.727,3.2,1.415,1.278,3.861,1.962,7.171,2.491a90.4,90.4,0,0,0,9.067.825c-2.55-2.217-6.019-3.828-9.5-6.664-3.157-2.572-5.613-4.156-6.916-2.906-1.355,1.3-2.059,1.342-2.059,1.342.169-2,2.416-7.5,7.51-7.181,2.758.174,5.664,2.179,8.973,6.752a23.021,23.021,0,0,1,4.221,9.723,40.276,40.276,0,0,1-11.14.049c-4.13-.469-6.667-1.9-8.227-3.689a9.269,9.269,0,0,1-1.812-4.6" transform="translate(-106.674 -74.233)" fill="url(#linear-gradient-38)"/>
    <path id="Trazado_194706" data-name="Trazado 194706" d="M311.718,157.808s-.793-3.1-1.853-6.613c-1.4-4.654-3.186-6.619-7.132-4.712s-4.4,4.119-4.379,4.336.749,5,3.9,7.074c1.632,1.075,4.341,1,6.619.908,1.1-.047,1.638.321,2.243.157.555-.15.605-1.149.605-1.149" transform="translate(-102.46 -70.397)" fill="#fff"/>
    <path id="Trazado_194707" data-name="Trazado 194707" d="M300.463,154.447c.538,2.672,2.813,4.554,5.081,4.2s3.671-2.8,3.133-5.472-2.813-4.553-5.081-4.2-3.672,2.8-3.134,5.471" transform="translate(-102.679 -71.096)" fill="url(#linear-gradient-39)"/>
    <g id="Grupo_138258" data-name="Grupo 138258" transform="translate(198.267 80.157)" opacity="0.3" style="isolation: isolate">
      <g id="Grupo_138257" data-name="Grupo 138257" transform="translate(0 0)">
        <g id="Grupo_138256" data-name="Grupo 138256" clip-path="url(#clip-path-10)">
          <path id="Trazado_194708" data-name="Trazado 194708" d="M301.081,154.835a2.576,2.576,0,0,0,2.7,2.23,2.309,2.309,0,0,0,1.662-2.9,2.575,2.575,0,0,0-2.7-2.231,2.31,2.31,0,0,0-1.663,2.9" transform="translate(-301.021 -151.909)" fill="#000e3a"/>
        </g>
      </g>
    </g>
    <path id="Trazado_194709" data-name="Trazado 194709" d="M301.4,150.242a1.984,1.984,0,0,0,2.079,1.718,1.779,1.779,0,0,0,1.281-2.238A1.984,1.984,0,0,0,302.68,148a1.779,1.779,0,0,0-1.282,2.238" transform="translate(-102.79 -70.888)" fill="#fff"/>
    <path id="Trazado_194710" data-name="Trazado 194710" d="M297.483,150.249c.085-1.009.387-1.448,1.417-2.742a8.235,8.235,0,0,1,4.251-2.73c2.362-.838,6.617,1.753,7.5,5.108a23.7,23.7,0,0,1,.422,3.677c.241,2.156.546,3.994.546,3.994a3.582,3.582,0,0,1-1.49-1.971c-.531-1.531-3.295-4.048-4.3-4.8-2.171-1.626-3.849-2.245-4.885-2-1.27.295-.942.142-1.962,1.31.24,1.346,1.174,5.324,4.011,6.692,1.714.826,4.3.718,5.353.965a3.629,3.629,0,0,1,1.687.917,30.5,30.5,0,0,1-5.094.087c-1.934-.228-3.571-.2-5.671-3.393-1.189-1.81-1.932-3.986-1.784-5.107" transform="translate(-102.363 -70.146)" fill="url(#linear-gradient-40)"/>
    <path id="Unión_13" data-name="Unión 13" d="M17.115,56.3l.066-.326,6.467-3.345c-.812-2.89-4.511-15.844-7.862-24.073-1.631-4-3.232-7.084-4.519-9.56C7.3,11.371,5.821,8.52,14.522,0l1.23.961C7.766,8.779,8.826,10.816,12.767,18.4c1.3,2.5,2.918,5.614,4.571,9.673,3.235,7.939,6.78,20.211,7.793,23.791l17.087-8.838.837,1.243L18.671,56.878C17.876,60.734,11.583,92.4,2.26,104.793L0,105.637C9.522,92.981,17.043,56.658,17.115,56.3Z" transform="translate(251.274 54.95)" stroke="rgba(0,0,0,0)" stroke-miterlimit="10" stroke-width="1" fill="url(#linear-gradient-41)"/>
    <path id="Trazado_194712" data-name="Trazado 194712" d="M394.005,180.173c0-11.559,8.023-24.986,17.92-29.992,4.66-2.356,8.866-2.355,12.053-.561l.029-.053,3.39,2.277,2.031,14.84a38.616,38.616,0,0,1-11.45,20.984l-13.59,7.281-4.491-2.271.03-.053c-3.613-2-5.923-6.306-5.923-12.452" transform="translate(-112.965 -70.966)" fill="url(#linear-gradient-42)"/>
    <path id="Trazado_194713" data-name="Trazado 194713" d="M433.422,163.847c0,11.559-8.024,24.986-17.921,29.991s-17.921-.308-17.921-11.867,8.024-24.986,17.921-29.99,17.921.307,17.921,11.866" transform="translate(-113.357 -71.353)" fill="#fff"/>
    <path id="Trazado_194714" data-name="Trazado 194714" d="M434.224,168.5c0,9.253-6.424,20-14.347,24.009s-14.347-.246-14.347-9.5,6.424-20,14.347-24.009,14.347.246,14.347,9.5" transform="translate(-114.23 -72.983)" fill="url(#linear-gradient-43)"/>
    <path id="Unión_12" data-name="Unión 12" d="M4.1,26.406a5.52,5.52,0,0,1-.888-.449l-.264-.133.017-.03C1.128,24.507,0,22.062,0,18.739c0-6.8,4.717-14.69,10.536-17.632C13.407-.345,16.011-.319,17.911.895l49.433,25L53.069,51.17Z" transform="translate(295.808 89.624)" stroke="rgba(0,0,0,0)" stroke-miterlimit="10" stroke-width="1" fill="url(#linear-gradient-44)"/>
    <path id="Trazado_194717" data-name="Trazado 194717" d="M457.015,198.238l-8.305-12.326-32.361-14.986.933-1.052,32.5,15.052,8.523,12.644Z" transform="translate(-115.418 -75.711)" fill="url(#linear-gradient-45)"/>
    <path id="Trazado_194718" data-name="Trazado 194718" d="M453.419,213.105,410.97,191.517l-.3-1.669,43.5,22.123Z" transform="translate(-114.795 -80.111)" fill="url(#linear-gradient-45)"/>
    <path id="Trazado_194719" data-name="Trazado 194719" d="M414.159,187.117a1.262,1.262,0,0,1-.613,1.778,1.558,1.558,0,0,1-1.8-.983,1.263,1.263,0,0,1,.613-1.778,1.556,1.556,0,0,1,1.8.983" transform="translate(-114.898 -79.28)" fill="url(#linear-gradient-47)"/>
    <path id="Trazado_194720" data-name="Trazado 194720" d="M455.472,211.216a1.262,1.262,0,0,1-.613,1.778,1.558,1.558,0,0,1-1.8-.983,1.263,1.263,0,0,1,.613-1.778,1.557,1.557,0,0,1,1.8.983" transform="translate(-119.435 -84.59)" fill="url(#linear-gradient-47)"/>
    <path id="Trazado_194721" data-name="Trazado 194721" d="M465.475,189.269c-.842-.345-1.28-1.084-.977-1.648a1.658,1.658,0,0,1,2.071-.4c.842.346,1.28,1.084.978,1.648a1.658,1.658,0,0,1-2.072.4" transform="translate(-120.695 -79.495)" fill="url(#linear-gradient-47)"/>
    <path id="Trazado_194722" data-name="Trazado 194722" d="M485.313,198.2c0,9.253-6.423,20-14.347,24.009s-14.347-.246-14.347-9.5,6.424-20,14.347-24.009,14.347.246,14.347,9.5" transform="translate(-119.841 -79.525)" fill="url(#linear-gradient-50)"/>
    <g id="Grupo_138261" data-name="Grupo 138261" transform="translate(344.59 113.285)" opacity="0.3" style="isolation: isolate">
      <g id="Grupo_138260" data-name="Grupo 138260" transform="translate(0 0)">
        <g id="Grupo_138259" data-name="Grupo 138259" clip-path="url(#clip-path-11)">
          <path id="Trazado_194723" data-name="Trazado 194723" d="M486.154,202.364c0,6.7-4.648,14.472-10.38,17.371s-10.38-.178-10.38-6.873,4.648-14.472,10.38-17.371,10.38.178,10.38,6.873" transform="translate(-465.394 -194.4)" fill="url(#linear-gradient-6)"/>
        </g>
      </g>
    </g>
    <path id="Trazado_194724" data-name="Trazado 194724" d="M472.852,219.416a5.18,5.18,0,0,1-2.365-.543c-1.981-1-3.116-3.29-3.116-6.282,0-5.551,3.882-12.029,8.65-14.442a6.512,6.512,0,0,1,5.92-.39c1.98,1,3.116,3.291,3.116,6.282,0,5.552-3.878,12.03-8.646,14.442a7.956,7.956,0,0,1-3.557.932m6.722-21.517a7.088,7.088,0,0,0-3.165.84c-4.556,2.3-8.262,8.518-8.262,13.852,0,2.741.993,4.816,2.727,5.692a5.687,5.687,0,0,0,5.145-.391c4.552-2.3,8.258-8.516,8.258-13.852,0-2.741-.993-4.816-2.728-5.692a4.326,4.326,0,0,0-1.977-.45" transform="translate(-121.022 -81.735)" fill="#fff"/>
    <path id="Trazado_194725" data-name="Trazado 194725" d="M482.017,201.771a6.1,6.1,0,0,1-2.99,5c-1.651.835-2.99-.051-2.99-1.98a6.1,6.1,0,0,1,2.99-5c1.651-.835,2.99.051,2.99,1.98" transform="translate(-121.973 -82.233)" fill="#fff"/>
    <path id="Trazado_194727" data-name="Trazado 194727" d="M395.276,205.6a6.1,6.1,0,0,1-2.99,5c-1.651.835-2.99-.051-2.99-1.98a6.1,6.1,0,0,1,2.99-5c1.651-.835,2.99.051,2.99,1.98" transform="translate(-112.447 -83.077)" fill="url(#linear-gradient-52)"/>
    <path id="Trazado_194728" data-name="Trazado 194728" d="M395.61,160.186a6.1,6.1,0,0,1-2.989,5c-1.652.835-2.991-.051-2.991-1.98a6.094,6.094,0,0,1,2.991-5c1.65-.835,2.989.051,2.989,1.98" transform="translate(-112.484 -73.07)" fill="url(#linear-gradient-52)"/>
    <path id="Trazado_194729" data-name="Trazado 194729" d="M423.812,167.688l31.417,15.887,3.205-1.622-31.416-15.887Z" transform="translate(-116.237 -74.872)" fill="url(#linear-gradient-54)"/>
    <path id="Unión_14" data-name="Unión 14" d="M14.229,48.374c-5.635-15.33-7.958-30.9-8.9-40.1l-1.344,1.1L0,2.475,4.708,0l.009.017C4.874.3,7.171,4.229,17.051,6.926A50.549,50.549,0,0,0,37.57,7.7v81.35S24.5,76.33,14.229,48.374Z" transform="translate(224.733 214.865)" stroke="rgba(0,0,0,0)" stroke-miterlimit="10" stroke-width="1" fill="url(#linear-gradient-7)"/>
    <g id="Grupo_138269" data-name="Grupo 138269" transform="translate(257.594 222.569)">
      <g id="Grupo_138268" data-name="Grupo 138268" transform="translate(0 0)" clip-path="url(#clip-path-12)">
        <path id="Trazado_194797" data-name="Trazado 194797" d="M0,0,90.261,5.817l6.17,93.577L6.17,93.577Z" transform="matrix(0.766, -0.643, 0.643, 0.766, -45.861, 33.728)" fill="url(#linear-gradient-9)"/>
      </g>
    </g>
    <path id="Trazado_194756" data-name="Trazado 194756" d="M367.666,337.74s10.259,12.4,20.52,19.974a58.109,58.109,0,0,0,20.489,9.677s.327,25.134-9.52,38.745-31.488,12.954-31.488,12.954Z" transform="translate(-110.072 -112.695)" fill="url(#linear-gradient-57)"/>
    <path id="Trazado_194757" data-name="Trazado 194757" d="M363.612,335.563a50.562,50.562,0,0,1-20.52-.778c-10.259-2.8-12.342-6.927-12.342-6.927s.738,24.483,9.52,48.373c10.277,27.956,23.341,40.681,23.341,40.681Z" transform="translate(-106.018 -110.518)" fill="url(#linear-gradient-58)"/>
    <path id="Unión_15" data-name="Unión 15" d="M26.177,70.939S15.769,60.8,7.584,38.533C.588,19.5,0,0,0,0S1.658,3.285,9.831,5.517a40.28,40.28,0,0,0,16.346.62s8.173,9.878,16.345,15.912a46.289,46.289,0,0,0,16.322,7.707s.26,20.023-7.583,30.865c-7.153,9.888-22.123,10.324-24.7,10.324C26.31,70.943,26.177,70.939,26.177,70.939Z" transform="translate(231.451 227.776)" stroke="rgba(0,0,0,0)" stroke-miterlimit="10" stroke-width="1" fill="url(#linear-gradient-10)"/>
    <path id="Trazado_194798" data-name="Trazado 194798" d="M41.376,1.4c23.642,1.565,44.076,22,45.641,45.641S70.684,88.581,47.041,87.016,2.965,65.018,1.4,41.376,17.733-.164,41.376,1.4Z" transform="translate(65.988 218.232) rotate(-45)" fill="url(#radial-gradient)" style="mix-blend-mode: screen;isolation: isolate"/>
  </g>
</svg>
