<svg id="Grupo_138284" data-name="Grupo 138284" xmlns="http://www.w3.org/2000/svg" xmlns:xlink="http://www.w3.org/1999/xlink" width="29.817" height="145.892" viewBox="0 0 29.817 145.892">
  <defs>
    <linearGradient id="linear-gradient" x1="0.5" x2="0.5" y2="1" gradientUnits="objectBoundingBox">
      <stop offset="0" stop-color="#fff2bf"/>
      <stop offset="1" stop-color="#ffda4d"/>
    </linearGradient>
    <clipPath id="clip-path">
      <path id="Trazado_194438" data-name="Trazado 194438" d="M438.53,9.2v1.611a1.544,1.544,0,0,0,3.084,0V9.2a1.544,1.544,0,0,0-3.084,0" transform="translate(-438.53 -7.724)" fill="url(#linear-gradient)"/>
    </clipPath>
  </defs>
  <g id="Grupo_138216" data-name="Grupo 138216" transform="translate(26.733 25.514)">
    <g id="Grupo_138215" data-name="Grupo 138215" transform="translate(0 0)" clip-path="url(#clip-path)">
      <rect id="Rectángulo_83248" data-name="Rectángulo 83248" width="3.084" height="4.556" transform="translate(0 0)" fill="url(#linear-gradient)"/>
    </g>
  </g>
  <path id="Trazado_194730" data-name="Trazado 194730" d="M456.191,160.168h0a1.513,1.513,0,0,1-1.542-1.473V97.328a1.543,1.543,0,0,1,3.084,0V158.7a1.513,1.513,0,0,1-1.542,1.473" transform="translate(-434.348 -21.119)" fill="url(#linear-gradient)"/>
  <path id="Trazado_194731" data-name="Trazado 194731" d="M456.191,86.956h0a1.513,1.513,0,0,1-1.542-1.473V76.713a1.543,1.543,0,0,1,3.084,0v8.771a1.513,1.513,0,0,1-1.542,1.473" transform="translate(-434.348 -16.577)" fill="url(#linear-gradient)"/>
  <path id="Trazado_194732" data-name="Trazado 194732" d="M440.072,131.526h0a1.513,1.513,0,0,1-1.542-1.473V79.8a1.543,1.543,0,0,1,3.084,0v50.256a1.513,1.513,0,0,1-1.542,1.473" transform="translate(-431.386 -17.257)" fill="url(#linear-gradient)"/>
  <path id="Trazado_194733" data-name="Trazado 194733" d="M440.072,69.424h0a1.513,1.513,0,0,1-1.542-1.473V59.181a1.543,1.543,0,0,1,3.084,0v8.771a1.513,1.513,0,0,1-1.542,1.473" transform="translate(-431.386 -12.714)" fill="url(#linear-gradient)"/>
  <path id="Trazado_194734" data-name="Trazado 194734" d="M440.072,47.2h0a1.513,1.513,0,0,1-1.542-1.473V24.956a1.543,1.543,0,0,1,3.084,0V45.729a1.513,1.513,0,0,1-1.542,1.473" transform="translate(-431.386 -5.174)" fill="url(#linear-gradient)"/>
  <path id="Trazado_194735" data-name="Trazado 194735" d="M456.191,36.709h0a1.513,1.513,0,0,1-1.542-1.473V16.627a1.543,1.543,0,0,1,3.084,0V35.236a1.513,1.513,0,0,1-1.542,1.473" transform="translate(-434.348 -3.339)" fill="url(#linear-gradient)"/>
  <path id="Trazado_194736" data-name="Trazado 194736" d="M448.225,106.98h0a1.513,1.513,0,0,1-1.542-1.473V72.283a1.543,1.543,0,0,1,3.084,0v33.224a1.513,1.513,0,0,1-1.542,1.473" transform="translate(-432.884 -15.601)" fill="url(#linear-gradient)"/>
  <path id="Trazado_194737" data-name="Trazado 194737" d="M448.225,36.17h0a1.513,1.513,0,0,1-1.542-1.473V1.473a1.543,1.543,0,0,1,3.084,0V34.7a1.513,1.513,0,0,1-1.542,1.473" transform="translate(-432.884 0)" fill="url(#linear-gradient)"/>
  <path id="Unión_16" data-name="Unión 16" d="M0,25.364V1.472A1.514,1.514,0,0,1,1.544,0,1.514,1.514,0,0,1,3.087,1.472V25.364a1.514,1.514,0,0,1-1.543,1.475A1.514,1.514,0,0,1,0,25.364Z" transform="translate(13.798 118.553)" stroke="rgba(0,0,0,0)" stroke-miterlimit="10" stroke-width="1" fill="url(#linear-gradient)"/>
  <path id="Trazado_194739" data-name="Trazado 194739" d="M448.225,61.911h0a1.513,1.513,0,0,1-1.542-1.473V51.668a1.543,1.543,0,0,1,3.084,0v8.771a1.513,1.513,0,0,1-1.542,1.473" transform="translate(-432.884 -11.059)" fill="url(#linear-gradient)"/>
  <path id="Trazado_194741" data-name="Trazado 194741" d="M456.242,67.968h0A1.513,1.513,0,0,1,454.7,66.5V57.725a1.543,1.543,0,0,1,3.084,0V66.5a1.513,1.513,0,0,1-1.542,1.473" transform="translate(-434.358 -12.394)" fill="url(#linear-gradient)"/>
  <path id="Unión_17" data-name="Unión 17" d="M0,23.285V1.474A1.513,1.513,0,0,1,1.543,0,1.515,1.515,0,0,1,3.084,1.474V23.285a1.515,1.515,0,0,1-1.541,1.474A1.513,1.513,0,0,1,0,23.285Z" transform="translate(7.144 116.916)" stroke="rgba(0,0,0,0)" stroke-miterlimit="10" stroke-width="1" fill="url(#linear-gradient)"/>
  <path id="Trazado_194743" data-name="Trazado 194743" d="M448.225,126.964h0a1.513,1.513,0,0,1-1.542-1.473v-1.611a1.543,1.543,0,0,1,3.084,0v1.611a1.513,1.513,0,0,1-1.542,1.473" transform="translate(-432.884 -26.969)" fill="url(#linear-gradient)"/>
  <path id="Trazado_194744" data-name="Trazado 194744" d="M456.242,51.829h0a1.513,1.513,0,0,1-1.542-1.473V48.746a1.543,1.543,0,0,1,3.084,0v1.611a1.513,1.513,0,0,1-1.542,1.473" transform="translate(-434.358 -10.415)" fill="url(#linear-gradient)"/>
  <path id="Trazado_194745" data-name="Trazado 194745" d="M440.072,19.71h0a1.513,1.513,0,0,1-1.542-1.473V16.627a1.543,1.543,0,0,1,3.084,0v1.611a1.513,1.513,0,0,1-1.542,1.473" transform="translate(-431.386 -3.339)" fill="url(#linear-gradient)"/>
  <path id="Trazado_194746" data-name="Trazado 194746" d="M440.072,12.28h0a1.513,1.513,0,0,1-1.542-1.473V9.2a1.543,1.543,0,0,1,3.084,0v1.611a1.513,1.513,0,0,1-1.542,1.473" transform="translate(-431.386 -1.702)" fill="url(#linear-gradient)"/>
  <path id="Trazado_194747" data-name="Trazado 194747" d="M431.319,20.655h0a1.513,1.513,0,0,1-1.542-1.473V17.572a1.543,1.543,0,0,1,3.084,0v1.611a1.513,1.513,0,0,1-1.542,1.473" transform="translate(-429.777 -3.547)" fill="url(#linear-gradient)"/>
  <path id="Trazado_194748" data-name="Trazado 194748" d="M431.319,82.561h0a1.513,1.513,0,0,1-1.542-1.473V47.864a1.543,1.543,0,0,1,3.084,0V81.088a1.513,1.513,0,0,1-1.542,1.473" transform="translate(-429.777 -10.221)" fill="url(#linear-gradient)"/>
  <path id="Trazado_194749" data-name="Trazado 194749" d="M431.319,159.534h0a1.513,1.513,0,0,1-1.542-1.473V124.837a1.543,1.543,0,0,1,3.084,0v33.224a1.513,1.513,0,0,1-1.542,1.473" transform="translate(-429.777 -27.18)" fill="url(#linear-gradient)"/>
  <path id="Trazado_194750" data-name="Trazado 194750" d="M431.319,116.36h0a1.513,1.513,0,0,1-1.542-1.473v-8.771a1.543,1.543,0,0,1,3.084,0v8.771a1.513,1.513,0,0,1-1.542,1.473" transform="translate(-429.777 -23.055)" fill="url(#linear-gradient)"/>
  <path id="Trazado_194751" data-name="Trazado 194751" d="M431.319,37.763h0a1.513,1.513,0,0,1-1.542-1.473V27.52a1.543,1.543,0,0,1,3.084,0V36.29a1.513,1.513,0,0,1-1.542,1.473" transform="translate(-429.777 -5.739)" fill="url(#linear-gradient)"/>
  <path id="Trazado_194752" data-name="Trazado 194752" d="M431.319,100.075h0a1.513,1.513,0,0,1-1.542-1.473V96.992a1.543,1.543,0,0,1,3.084,0V98.6a1.513,1.513,0,0,1-1.542,1.473" transform="translate(-429.777 -21.045)" fill="url(#linear-gradient)"/>
  <path id="Trazado_194790" data-name="Trazado 194790" d="M448.225,143.249h0a1.513,1.513,0,0,1-1.542-1.473v-8.771a1.543,1.543,0,0,1,3.084,0v8.771a1.513,1.513,0,0,1-1.542,1.473" transform="translate(-432.884 -28.98)" fill="url(#linear-gradient)"/>
</svg>
