<svg id="Grupo_138293" data-name="Grupo 138293" xmlns="http://www.w3.org/2000/svg" xmlns:xlink="http://www.w3.org/1999/xlink" width="153.15" height="103.288" viewBox="0 0 153.15 103.288">
  <defs>
    <linearGradient id="linear-gradient" x1="0.919" y1="0.917" x2="0.199" y2="-0.14" gradientUnits="objectBoundingBox">
      <stop offset="0" stop-color="#8cb1ff"/>
      <stop offset="1" stop-color="#fff"/>
    </linearGradient>
    <linearGradient id="linear-gradient-2" x1="0.022" y1="0.251" x2="1.516" y2="1.204" xlink:href="#linear-gradient"/>
    <clipPath id="clip-path">
      <rect id="Rectángulo_83252" data-name="Rectángulo 83252" width="8.077" height="18.613" fill="none"/>
    </clipPath>
    <linearGradient id="linear-gradient-3" x1="1.063" y1="0.187" x2="-0.373" y2="1.168" gradientUnits="objectBoundingBox">
      <stop offset="0" stop-color="#ffda4d"/>
      <stop offset="1" stop-color="#806d27"/>
    </linearGradient>
    <linearGradient id="linear-gradient-4" x1="0.911" y1="0.11" x2="0.141" y2="1" gradientUnits="objectBoundingBox">
      <stop offset="0" stop-color="#fff2bf"/>
      <stop offset="1" stop-color="#ffda4e"/>
    </linearGradient>
  </defs>
  <g id="Grupo_138292" data-name="Grupo 138292" transform="translate(22.977 0)">
    <path id="Trazado_194480" data-name="Trazado 194480" d="M231.272,127.967,226.7,125.62c-.411-13.4-9.793-28.27-20.775-34.406-7.839-4.381-15.482-.012-15.482-.012-4.466-9.833-11.846-18.562-20.211-22.854-6.426-3.3-12.277-3.389-16.669-.876l-10.885,5.754s3.037,5.239,2.885,10.762l-6.613-3.393c-3.178-1.63-6.1-1.825-8.438-.856l-.007-.009-.085.044a7.138,7.138,0,0,0-.661.336l-11.038,5.844s6.49,1.677,6.49,3.872c0,8.954,6.182,19.452,13.739,23.329l90.933,53.14,10.333-5.1v-.041c2.93-1.488,4.8-4.944,4.8-9.858,0-8.954-6.182-19.452-13.738-23.329" transform="translate(-114.838 -65.715)" fill="url(#linear-gradient)"/>
    <path id="Trazado_194481" data-name="Trazado 194481" d="M220.362,134.944l-4.575-2.348c-.411-13.4-9.541-28.642-20.774-34.406-6.1-3.132-11.576-2.808-15.382.2-4.456-9.92-11.887-18.742-20.312-23.064-13.365-6.858-24.242.146-24.67,15.64l-6.613-3.393c-7.557-3.877-13.739.276-13.739,9.231s6.182,19.451,13.739,23.329L220.362,167.5c7.556,3.877,13.738-.276,13.738-9.23s-6.182-19.452-13.738-23.329" transform="translate(-114.296 -67.252)" fill="url(#linear-gradient-2)"/>
    <g id="Grupo_138228" data-name="Grupo 138228" transform="translate(51.825 45.563)" opacity="0.8">
      <g id="Grupo_138227" data-name="Grupo 138227" transform="translate(0 0)">
        <g id="Grupo_138226" data-name="Grupo 138226" clip-path="url(#clip-path)">
          <g id="Grupo_138225" data-name="Grupo 138225" style="isolation: isolate">
            <g id="Grupo_138224" data-name="Grupo 138224">
              <g id="Grupo_138223" data-name="Grupo 138223" clip-path="url(#clip-path)">
                <path id="Trazado_194482" data-name="Trazado 194482" d="M181.447,131.442a8.373,8.373,0,0,0-4.038-6.858c-2.231-1.145-4.039.07-4.039,2.713a8.61,8.61,0,0,0,2.461,5.668l-1.24,6.91,2.476,1.27.683.35,2.476,1.271-1.24-8.182c1.447.014,2.461-1.163,2.461-3.143" transform="translate(-173.37 -124.154)" fill="#000e3a"/>
              </g>
            </g>
          </g>
        </g>
      </g>
    </g>
    <path id="Trazado_194483" data-name="Trazado 194483" d="M223.028,166.359a9.838,9.838,0,0,1-4.454-1.185l-87.826-45.412c-6.034-3.1-10.945-11.421-10.945-18.557,0-3.82,1.435-6.747,3.936-8.03,2.087-1.071,4.728-.9,7.434.49l7.849,4.059a29.945,29.945,0,0,1-.19-3.194c0-7.2,2.664-12.7,7.307-15.078,3.862-1.983,8.78-1.642,13.853.962,8.512,4.367,16.168,14.5,19.274,25.424a9.62,9.62,0,0,1,5.5-3.848c2.887-.748,6.223-.211,9.648,1.547,9.553,4.9,17.325,18.082,17.325,29.384a22.466,22.466,0,0,1-.119,2.341L219,139.079c6.036,3.1,10.947,11.422,10.947,18.557,0,3.819-1.434,6.746-3.936,8.029a6.478,6.478,0,0,1-2.982.695M126.722,93.236a5.548,5.548,0,0,0-2.559.592c-2.233,1.145-3.513,3.834-3.513,7.377,0,6.9,4.721,14.928,10.523,17.905L219,164.523c2.43,1.247,4.77,1.421,6.587.49,2.234-1.145,3.513-3.834,3.513-7.377,0-6.9-4.721-14.928-10.524-17.906h0l-7.856-4.061.028-.242a21.785,21.785,0,0,0,.142-2.506c0-11.062-7.582-23.951-16.9-28.732-3.22-1.653-6.331-2.164-8.987-1.476a8.97,8.97,0,0,0-5.519,4.306l-.532.9-.256-.993c-2.878-11.077-10.563-21.471-19.122-25.863-4.8-2.461-9.419-2.8-13.007-.962-4.375,2.245-6.882,7.5-6.882,14.426a31.209,31.209,0,0,0,.271,3.85l.095.744-9.3-4.807a8.911,8.911,0,0,0-4.026-1.081" transform="translate(-114.971 -68.461)" fill="#fff"/>
  </g>
  <g id="Grupo_138291" data-name="Grupo 138291" transform="translate(0 49.231)">
    <path id="Trazado_194484" data-name="Trazado 194484" d="M165.739,128.858l-56.421,28.951V168.2l29.512-15.143,2.442-3.715,2.442,1.208,7.938-4.073,2.485-4.829,3.01-1.545,5.292-6,3.3-1.693,2.736-2.345Z" transform="translate(-90.707 -128.858)" fill="url(#linear-gradient-3)"/>
    <path id="Trazado_194487" data-name="Trazado 194487" d="M168.858,130.409l-56.421,28.95v10.389l29.512-15.143.452-2.861,3.278-1.666,2.519,1.32,6.574-3.373,2.485-4.829,3.01-1.545,5.292-6,3.3-1.693Z" transform="translate(-91.09 -129.2)" fill="url(#linear-gradient-4)"/>
    <path id="Trazado_194488" data-name="Trazado 194488" d="M163.5,141.871l-53.488,27.445-1.84-2.9,57.063-29.28Z" transform="translate(-90.567 -130.682)" fill="url(#linear-gradient-3)"/>
    <path id="Trazado_194489" data-name="Trazado 194489" d="M101.954,152.234c-7.648,3.924-13.849,14.453-13.849,23.516s6.2,13.229,13.849,9.3S115.8,170.6,115.8,161.537s-6.2-13.229-13.848-9.3m-5.076,24.639a4.376,4.376,0,0,1-.755.3,4.1,4.1,0,0,1-.465-1.993,8.7,8.7,0,0,1,4.2-7.131,4.351,4.351,0,0,1,.756-.3,4.109,4.109,0,0,1,.464,1.993,8.7,8.7,0,0,1-4.2,7.131" transform="translate(-88.105 -133.683)" fill="url(#linear-gradient-3)"/>
    <path id="Trazado_194490" data-name="Trazado 194490" d="M105.072,153.784c-7.648,3.925-13.848,14.453-13.848,23.516s6.2,13.23,13.848,9.3,13.849-14.453,13.849-23.516-6.2-13.229-13.849-9.3m-7.811,23.43a4.376,4.376,0,0,1-.755.3,4.1,4.1,0,0,1-.465-1.993,8.7,8.7,0,0,1,4.2-7.131,4.352,4.352,0,0,1,.756-.3,4.109,4.109,0,0,1,.464,1.993,8.7,8.7,0,0,1-4.2,7.131" transform="translate(-88.487 -134.024)" fill="url(#linear-gradient-4)"/>
    <path id="Trazado_194491" data-name="Trazado 194491" d="M101.734,172.51a4.108,4.108,0,0,1,.465,1.992,8.708,8.708,0,0,1-4.2,7.132,4.307,4.307,0,0,1-.755.3c.692,1.268,2.1,1.67,3.735.83a8.707,8.707,0,0,0,4.2-7.132c0-2.441-1.486-3.7-3.443-3.119" transform="translate(-89.226 -138.445)" fill="url(#linear-gradient-3)"/>
  </g>
</svg>
