<svg xmlns="http://www.w3.org/2000/svg" width="52.49" height="119.723" viewBox="0 0 52.49 119.723">
  <g id="Grupo_138287" data-name="Grupo 138287" transform="translate(0 0)">
    <path id="Trazado_194514" data-name="Trazado 194514" d="M26.686,393.242a.909.909,0,0,1-.91-.906v-33.4l28.561-16.417a.907.907,0,1,1,.91,1.569l-27.65,15.9v32.353a.909.909,0,0,1-.91.906" transform="translate(-3.212 -279.333)" fill="#fff"/>
    <path id="Trazado_194515" data-name="Trazado 194515" d="M4.545,393.295a.909.909,0,0,1-.91-.906v-33.4l47.942-27.557a.907.907,0,1,1,.91,1.569L5.455,360.036v32.353a.908.908,0,0,1-.909.906" transform="translate(-0.453 -277.908)" fill="#fff"/>
    <path id="Trazado_194516" data-name="Trazado 194516" d="M13.6,337.018v-54.85a.91.91,0,0,1,1.82,0v51.713l37.4-21.5a.907.907,0,1,1,.91,1.57Z" transform="translate(-1.696 -271.479)" fill="#fff"/>
    <path id="Trazado_194517" data-name="Trazado 194517" d="M18.017,273.451c.572,3.231-.736,7.331-2.922,9.157s-4.421.687-4.994-2.543.736-7.33,2.922-9.157,4.421-.687,4.994,2.543" transform="translate(-1.243 -270.038)" fill="#fff"/>
    <path id="Trazado_194518" data-name="Trazado 194518" d="M8.05,395.011c.572,3.231-.736,7.33-2.922,9.156s-4.421.688-4.994-2.543.736-7.33,2.922-9.156,4.422-.688,4.994,2.543" transform="translate(0 -285.653)" fill="#fff"/>
    <path id="Trazado_194520" data-name="Trazado 194520" d="M30.192,395.4c.572,3.231-.736,7.33-2.922,9.156s-4.421.687-4.994-2.543.736-7.331,2.922-9.156,4.421-.688,4.994,2.543" transform="translate(-2.759 -285.703)" fill="#fff"/>
  </g>
</svg>
