<svg xmlns="http://www.w3.org/2000/svg" xmlns:xlink="http://www.w3.org/1999/xlink" width="92.536" height="184.052" viewBox="0 0 92.536 184.052">
  <defs>
    <clipPath id="clip-path">
      <rect id="Rectángulo_83250" data-name="Rectángulo 83250" width="89.24" height="51.299" fill="none"/>
    </clipPath>
    <linearGradient id="linear-gradient" x1="0.5" x2="0.5" y2="1" gradientUnits="objectBoundingBox">
      <stop offset="0" stop-color="#fc502d"/>
      <stop offset="1" stop-color="#7e2817"/>
    </linearGradient>
    <linearGradient id="linear-gradient-2" x1="0.444" y1="0.237" x2="0.227" y2="0.697" xlink:href="#linear-gradient"/>
    <linearGradient id="linear-gradient-3" x1="1" y1="1.291" x2="0.051" y2="0" xlink:href="#linear-gradient"/>
    <linearGradient id="linear-gradient-4" x1="0.166" y1="1" x2="0.44" y2="0.121" xlink:href="#linear-gradient"/>
    <linearGradient id="linear-gradient-5" x1="0.604" y1="0.165" x2="0.638" y2="1.109" xlink:href="#linear-gradient"/>
    <linearGradient id="linear-gradient-6" x1="0.778" y1="0.756" x2="0.447" gradientUnits="objectBoundingBox">
      <stop offset="0" stop-color="#fca897"/>
      <stop offset="1" stop-color="#fff"/>
    </linearGradient>
    <linearGradient id="linear-gradient-7" x1="1.568" y1="0.453" x2="-0.154" y2="0.434" xlink:href="#linear-gradient"/>
    <linearGradient id="linear-gradient-8" x1="0.558" y1="0.842" x2="0.299" y2="0.19" xlink:href="#linear-gradient-6"/>
    <linearGradient id="linear-gradient-9" x1="0.5" y1="0" x2="0.5" y2="1" xlink:href="#linear-gradient-6"/>
  </defs>
  <g id="Grupo_138289" data-name="Grupo 138289" transform="translate(0 -0.001)">
    <g id="Grupo_138222" data-name="Grupo 138222" transform="translate(3.296 132.754)" style="isolation: isolate">
      <g id="Grupo_138221" data-name="Grupo 138221" transform="translate(0 0)">
        <g id="Grupo_138220" data-name="Grupo 138220" clip-path="url(#clip-path)">
          <path id="Trazado_194440" data-name="Trazado 194440" d="M138,369.229,73.385,406.372a6.788,6.788,0,0,1-6.06-.25L51.28,396.9c-1.786-1.028-1.982-2.595-.435-3.484l64.614-37.143a6.793,6.793,0,0,1,6.06.25l16.044,9.223c1.786,1.028,1.982,2.6.435,3.484" transform="translate(-49.802 -355.673)" fill="#000e3a"/>
        </g>
      </g>
    </g>
    <path id="Trazado_194495" data-name="Trazado 194495" d="M52.853,283.234l47,27.02L92.409,323.1,46.037,296.443v55.166L70.5,365.671l8.012-12.921-10.1-3.056,41.836-24.05c2.543-1.461,4.6-5.382,4.6-8.757V273.129l10.6,5.579,5.581-12.571-24.219-13.922Z" transform="translate(-46.037 -209.63)" fill="url(#linear-gradient)"/>
    <path id="Trazado_194496" data-name="Trazado 194496" d="M99.858,314.826l-47-27.02-2.213,1.272c-2.542,1.462-4.6,5.383-4.6,8.758v3.18l46.372,26.656Z" transform="translate(-46.037 -214.202)" fill="url(#linear-gradient-2)"/>
    <path id="Trazado_194497" data-name="Trazado 194497" d="M121.759,249.551l-.017.02a3,3,0,0,0-2.838.3l-3.435,1.974,24.219,13.922,2.006-4.518Z" transform="translate(-54.693 -209.26)" fill="url(#linear-gradient-3)"/>
    <path id="Trazado_194498" data-name="Trazado 194498" d="M46.037,371.1a4.125,4.125,0,0,0,1.488,3.619l-.011.017L66.93,386.076l3.57-5.756L46.037,366.259Z" transform="translate(-46.037 -224.28)" fill="url(#linear-gradient-4)"/>
    <path id="Trazado_194499" data-name="Trazado 194499" d="M132.427,338.3,72.818,372.562c-2.543,1.462-4.6-.089-4.6-3.464V305.916c0-3.375,2.061-7.3,4.6-8.757l59.609-34.266c2.542-1.462,4.6.09,4.6,3.465v63.181c0,3.376-2.061,7.3-4.6,8.758" transform="translate(-48.801 -210.931)" fill="url(#linear-gradient-5)"/>
    <path id="Trazado_194500" data-name="Trazado 194500" d="M129.532,335.416,80.561,363.566c-2.089,1.2-3.781-.074-3.781-2.846V308.814c0-2.773,1.693-5.994,3.781-7.195l48.971-28.151c2.089-1.2,3.782.074,3.782,2.846v51.906c0,2.772-1.694,5.994-3.782,7.195" transform="translate(-49.869 -212.302)" fill="url(#linear-gradient-6)"/>
    <path id="Trazado_194501" data-name="Trazado 194501" d="M117.943,326.455c0-4.347-2.654-6.345-5.929-4.462s-5.93,6.931-5.93,11.279c0,2.819,1.12,4.64,2.8,5.067l-2.8,12.528,5.93-3.409,5.929-3.408-2.8-9.314a14.981,14.981,0,0,0,2.8-8.281" transform="translate(-53.522 -218.502)" fill="url(#linear-gradient-7)"/>
    <path id="Trazado_194502" data-name="Trazado 194502" d="M116.181,204.914c-3.929-2.258-8.781-2.058-13.31.547l-27.763,15.96c-7.9,4.541-13.858,15.633-13.858,25.8v32.155c0,1.843,2.82,3.336,6.3,3.336s6.3-1.493,6.3-3.336H73.9V247.221c0-6.046,3.977-12.851,7.534-14.9,0,0,17.745-10.979,24.513-14.2,2.128-1.015,4.459.35,4.459,3.5v31.362h.048c0,1.842,2.821,3.336,6.3,3.336s6.3-1.494,6.3-3.336V218.965c0-6.42-2.505-11.541-6.871-14.051" transform="translate(-47.933 -203.353)" fill="url(#linear-gradient-8)"/>
    <path id="Trazado_194503" data-name="Trazado 194503" d="M92.8,288.961C86.928,291.61,81.29,295,75.649,298.1c-2.853,1.567-6.765,3.447-6.619,7.207a.226.226,0,0,0,.442.06c1.681-4.542,7.1-6.389,11.063-8.529,4.25-2.3,8.664-4.467,12.733-7.068a.467.467,0,0,0-.472-.8" transform="translate(-48.902 -214.343)" fill="url(#linear-gradient-9)"/>
    <path id="Trazado_194504" data-name="Trazado 194504" d="M122.845,271.969c-6.172,3.05-12.142,6.73-18.171,10.066-.488.27-.06.97.432.737a126.4,126.4,0,0,0,18.211-10,.466.466,0,0,0-.472-.8" transform="translate(-53.319 -212.16)" fill="url(#linear-gradient-9)"/>
    <path id="Trazado_194505" data-name="Trazado 194505" d="M69.411,329.815a119.364,119.364,0,0,0-.679-15.436c-.067-.464-.768-.322-.788.106-.251,5.313.217,10.7.237,16.027s-.383,10.718-.124,16.031a.512.512,0,0,0,1.023,0c.642-5.492.4-11.206.331-16.728" transform="translate(-48.758 -217.578)" fill="url(#linear-gradient-9)"/>
    <path id="Trazado_194506" data-name="Trazado 194506" d="M82.4,314.96l1.885-1.083c2.04-1.173,3.351-.582,3.351,2.462a6.946,6.946,0,0,1-3.269,6.352L82.4,323.822Zm1.794,6.214c1.139-.655,1.9-1.825,1.9-3.945s-.756-2.337-1.9-1.683l-.287.165v5.628Z" transform="translate(-50.569 -217.478)" fill="#fc502d"/>
    <path id="Trazado_194507" data-name="Trazado 194507" d="M90.829,310.01l1.815-1.043,2.09,7.661-1.6.919-.411-1.87-2.039,1.172-.41,2.341-1.537.884Zm.165,5.1,1.423-.818-.152-.728c-.185-.777-.37-1.718-.544-2.541l-.041.024c-.164,1.033-.338,2.166-.522,3.154Z" transform="translate(-51.36 -216.92)" fill="#fc502d"/>
    <path id="Trazado_194508" data-name="Trazado 194508" d="M96.785,308.148,94.951,309.2v-1.686l5.186-2.981v1.686L98.3,307.276v7.176l-1.516.872Z" transform="translate(-52.134 -216.35)" fill="#fc502d"/>
    <path id="Trazado_194509" data-name="Trazado 194509" d="M102.714,303.148l1.815-1.042,2.089,7.66-1.6.919-.41-1.87-2.04,1.172-.41,2.342-1.537.883Zm.164,5.1,1.423-.818-.153-.728c-.184-.776-.369-1.718-.543-2.541l-.041.024c-.164,1.034-.338,2.166-.523,3.154Z" transform="translate(-52.841 -216.039)" fill="#fc502d"/>
    <path id="Trazado_194510" data-name="Trazado 194510" d="M110.637,298.623l2.285-1.312c1.382-.795,2.459-.91,2.459.789a3.891,3.891,0,0,1-.872,2.416v.055c.678-.158,1.2.209,1.2,1.39a4.824,4.824,0,0,1-2.593,4.1l-2.478,1.424Zm2.214,2.276a1.867,1.867,0,0,0,1.055-1.653c0-.693-.339-.757-1.045-.351l-.718.413v2Zm.142,3.682a2.133,2.133,0,0,0,1.24-1.91c0-.773-.41-.851-1.24-.374l-.85.489v2.283Z" transform="translate(-54.089 -215.351)" fill="#fc502d"/>
    <path id="Trazado_194511" data-name="Trazado 194511" d="M118.833,293.842l1.813-1.042,2.089,7.661-1.6.919-.41-1.87-2.038,1.171-.41,2.341-1.537.884Zm.164,5.1,1.425-.819-.155-.727c-.185-.776-.369-1.718-.542-2.542l-.041.024c-.164,1.033-.339,2.167-.523,3.155Z" transform="translate(-54.851 -214.843)" fill="#fc502d"/>
    <path id="Trazado_194512" data-name="Trazado 194512" d="M123.924,298.675l.86-1.867a1.665,1.665,0,0,0,1.651-.024,1.625,1.625,0,0,0,.931-1.393c0-.556-.378-.516-.961-.507l-.872.012c-.686.028-1.341-.356-1.341-1.648a4.985,4.985,0,0,1,2.377-4,1.934,1.934,0,0,1,2.15-.066l-.768,1.7a1.381,1.381,0,0,0-1.382.088,1.556,1.556,0,0,0-.851,1.292c0,.544.441.48,1.015.463l.861-.031c.808-.03,1.32.4,1.32,1.645a5.128,5.128,0,0,1-2.519,4.195,2.334,2.334,0,0,1-2.47.142" transform="translate(-55.746 -214.339)" fill="#fc502d"/>
    <path id="Trazado_194513" data-name="Trazado 194513" d="M130.921,286.835l4.181-2.4v1.686l-2.675,1.537v1.78l2.275-1.307V289.8l-2.275,1.307v2.039l2.777-1.6v1.686l-4.282,2.461Z" transform="translate(-56.618 -213.767)" fill="#fc502d"/>
  </g>
</svg>
