<svg xmlns="http://www.w3.org/2000/svg" width="211.981" height="122.571" viewBox="0 0 211.981 122.571">
  <g id="Grupo_138286" data-name="Grupo 138286" transform="translate(0 0)">
    <path id="Trazado_194760" data-name="Trazado 194760" d="M343.963,507.043l-32.21-16.3L306.94,475.1l-45.95-23.256,1.025-1.554L308.7,473.921l4.813,15.638,31.476,15.93Z" transform="translate(-140.01 -387.136)" fill="#fff"/>
    <path id="Trazado_194793" data-name="Trazado 194793" d="M0,0,1.858.11,5.631,68.089l-1.858-.11Z" transform="matrix(0.5, -0.866, 0.866, 0.5, 96.416, 61.087)" fill="#fff"/>
    <path id="Trazado_194761" data-name="Trazado 194761" d="M353.485,517.205c-4.311,0-7.807,1.621-7.807,3.622s3.5,3.622,7.807,3.622,7.806-1.622,7.806-3.622-3.495-3.622-7.806-3.622" transform="translate(-149.31 -401.878)" fill="#fff"/>
    <path id="Trazado_194762" data-name="Trazado 194762" d="M298.7,480.84c-4.311,0-7.807,1.622-7.807,3.622s3.5,3.622,7.807,3.622,7.806-1.622,7.806-3.622-3.495-3.622-7.806-3.622" transform="translate(-143.294 -393.866)" fill="#fff"/>
    <path id="Trazado_194794" data-name="Trazado 194794" d="M0,0,1.858.11l4.995,90L4.995,90Z" transform="translate(86.894 72.155) rotate(-59.979)" fill="#fff"/>
    <path id="Trazado_194763" data-name="Trazado 194763" d="M310.111,507.806c-4.312,0-7.807,1.621-7.807,3.622s3.495,3.622,7.807,3.622,7.806-1.622,7.806-3.622-3.495-3.622-7.806-3.622" transform="translate(-144.547 -399.807)" fill="#fff"/>
    <path id="Trazado_194764" data-name="Trazado 194764" d="M262.214,497.167l-28.422-14.383-23.131.553-.251-.129-40.732-20.615,1.025-1.554,40.482,20.487,23.131-.553.25.129,28.673,14.511Z" transform="translate(-129.983 -389.503)" fill="#fff"/>
    <path id="Trazado_194765" data-name="Trazado 194765" d="M270.7,501.145c-4.311,0-7.807,1.622-7.807,3.622s3.5,3.622,7.807,3.622,7.806-1.622,7.806-3.622-3.495-3.622-7.806-3.622" transform="translate(-140.219 -398.34)" fill="#fff"/>
    <path id="Trazado_194766" data-name="Trazado 194766" d="M234.238,422.456a1.132,1.132,0,0,1-.512-.12l-31.843-16.117-4.814-15.64-28.034-14.346a.84.84,0,0,1-.369-1.228,1.109,1.109,0,0,1,1.4-.321L198.831,389.4l4.812,15.636,31.108,15.744a.841.841,0,0,1,.375,1.228,1.062,1.062,0,0,1-.888.448" transform="translate(-129.856 -370.45)" fill="#fff"/>
    <path id="Trazado_194767" data-name="Trazado 194767" d="M207.1,420.678a1.131,1.131,0,0,1-.512-.12L174.75,404.441l-4.814-15.64L141.9,374.454a.84.84,0,0,1-.369-1.228,1.111,1.111,0,0,1,1.4-.321L171.7,387.622l4.812,15.636L207.618,419a.841.841,0,0,1,.375,1.228,1.062,1.062,0,0,1-.888.448" transform="translate(-126.876 -370.058)" fill="#fff"/>
    <path id="Trazado_194768" data-name="Trazado 194768" d="M197.364,433.286a1.131,1.131,0,0,1-.512-.12l-63.636-32.208a.84.84,0,0,1-.375-1.228,1.107,1.107,0,0,1,1.4-.328l63.637,32.208a.841.841,0,0,1,.375,1.228,1.062,1.062,0,0,1-.888.448" transform="translate(-125.921 -375.897)" fill="#fff"/>
    <path id="Trazado_194769" data-name="Trazado 194769" d="M199.679,449.274a1.132,1.132,0,0,1-.512-.12l-63.636-32.208a.839.839,0,0,1-.375-1.227,1.109,1.109,0,0,1,1.4-.328L200.193,447.6a.841.841,0,0,1,.375,1.228,1.062,1.062,0,0,1-.888.448" transform="translate(-126.176 -379.419)" fill="#fff"/>
    <path id="Trazado_194770" data-name="Trazado 194770" d="M135.208,411.777c-4.312,0-7.807,1.622-7.807,3.622s3.495,3.622,7.807,3.622,7.806-1.622,7.806-3.622-3.495-3.622-7.806-3.622" transform="translate(-125.339 -378.65)" fill="#fff"/>
    <path id="Trazado_194771" data-name="Trazado 194771" d="M132.892,395.789c-4.312,0-7.807,1.622-7.807,3.622s3.495,3.622,7.807,3.622,7.806-1.622,7.806-3.622-3.495-3.622-7.806-3.622" transform="translate(-125.085 -375.127)" fill="#fff"/>
    <path id="Trazado_194772" data-name="Trazado 194772" d="M141.583,369.288c-4.311,0-7.807,1.622-7.807,3.622s3.5,3.622,7.807,3.622,7.806-1.622,7.806-3.622-3.495-3.622-7.806-3.622" transform="translate(-126.04 -369.288)" fill="#fff"/>
    <path id="Trazado_194773" data-name="Trazado 194773" d="M167.608,371.57c-4.311,0-7.807,1.622-7.807,3.622s3.5,3.622,7.807,3.622,7.806-1.622,7.806-3.622-3.495-3.622-7.806-3.622" transform="translate(-128.897 -369.791)" fill="#fff"/>
  </g>
</svg>
