<svg xmlns="http://www.w3.org/2000/svg" width="70.697" height="98.515" viewBox="0 0 70.697 98.515">
  <g id="Grupo_138288" data-name="Grupo 138288" transform="translate(0 0)">
    <path id="Trazado_194492" data-name="Trazado 194492" d="M116.782,288.813a.906.906,0,0,1-.458-1.689L161.787,260.8V219.23a.91.91,0,0,1,1.821,0v42.616L117.238,288.69a.91.91,0,0,1-.456.123" transform="translate(-115.872 -212.511)" fill="#fff"/>
    <path id="Trazado_194493" data-name="Trazado 194493" d="M121.78,312.89a.906.906,0,0,1-.457-1.691L178.9,278.1v33.881a.91.91,0,0,1-1.82,0V281.239l-54.846,31.53a.915.915,0,0,1-.453.121" transform="translate(-116.494 -220.189)" fill="#fff"/>
    <path id="Trazado_194494" data-name="Trazado 194494" d="M127.618,298.975a.906.906,0,0,1-.456-1.691l56.212-32.313a.907.907,0,1,1,.909,1.57l-56.211,32.313a.913.913,0,0,1-.454.121" transform="translate(-117.223 -218.487)" fill="#fff"/>
    <path id="Trazado_194519" data-name="Trazado 194519" d="M172.741,215.068c.573,3.231-.736,7.33-2.922,9.156s-4.421.688-4.994-2.542.736-7.331,2.922-9.156,4.422-.688,4.994,2.543" transform="translate(-121.957 -211.654)" fill="#fff"/>
    <path id="Trazado_194521" data-name="Trazado 194521" d="M195.338,261.322c.572,3.231-.736,7.33-2.922,9.156s-4.421.688-4.994-2.543.736-7.33,2.922-9.156,4.422-.688,4.994,2.543" transform="translate(-124.775 -217.595)" fill="#fff"/>
    <path id="Trazado_194522" data-name="Trazado 194522" d="M189.5,312.68c.572,3.231-.736,7.33-2.922,9.156s-4.421.687-4.994-2.543.736-7.331,2.922-9.156,4.421-.688,4.994,2.543" transform="translate(-124.046 -224.192)" fill="#fff"/>
  </g>
</svg>
