<svg xmlns="http://www.w3.org/2000/svg" width="85" height="67.999" viewBox="0 0 85 67.999">
  <g id="search_analytics-seo_marketing-seo_monitoring" data-name="search analytics-seo marketing-seo monitoring" transform="translate(-2 -8)">
    <circle id="Elipse_5605" data-name="Elipse 5605" cx="10" cy="10" r="10" transform="translate(60 49)" fill="#d3d3d3"/>
    <rect id="Rectángulo_83295" data-name="Rectángulo 83295" width="77" height="15" transform="translate(3 9)" fill="#fc502d"/>
    <rect id="Rectángulo_83296" data-name="Rectángulo 83296" width="9" height="25" transform="translate(43 32)" fill="#fff2bf"/>
    <rect id="Rectángulo_83297" data-name="Rectángulo 83297" width="9" height="17" transform="translate(29 40)" fill="#fff2bf"/>
    <rect id="Rectángulo_83298" data-name="Rectángulo 83298" width="9" height="11" transform="translate(15 46)" fill="#fff2bf"/>
    <g id="Grupo_138320" data-name="Grupo 138320" transform="translate(2 8)">
      <path id="Trazado_194847" data-name="Trazado 194847" d="M54.411,61.827H4.833V25H78.491V46.246a1.417,1.417,0,1,0,2.833,0V9.417A1.416,1.416,0,0,0,79.908,8H3.417A1.417,1.417,0,0,0,2,9.417V63.244A1.417,1.417,0,0,0,3.417,64.66H54.411a1.417,1.417,0,0,0,0-2.833ZM78.491,10.833V22.165H4.833V10.833Z" transform="translate(-2 -8)" fill="#0d2380"/>
      <circle id="Elipse_5606" data-name="Elipse 5606" cx="2.5" cy="2.5" r="2.5" transform="translate(6 6)" fill="#0d2380"/>
      <circle id="Elipse_5607" data-name="Elipse 5607" cx="2.5" cy="2.5" r="2.5" transform="translate(14 6)" fill="#0d2380"/>
      <circle id="Elipse_5608" data-name="Elipse 5608" cx="2.5" cy="2.5" r="2.5" transform="translate(22 6)" fill="#0d2380"/>
      <path id="Trazado_194848" data-name="Trazado 194848" d="M69.949,61.926,62.3,54.277a11.372,11.372,0,1,0-1.993,2.01l7.649,7.649a1.416,1.416,0,1,0,2-2ZM44.867,47.346a8.5,8.5,0,1,1,8.5,8.5A8.5,8.5,0,0,1,44.867,47.346Z" transform="translate(14.626 3.648)" fill="#0d2380"/>
      <path id="Trazado_194849" data-name="Trazado 194849" d="M52.745,50.33H51.328V26.25a1.417,1.417,0,0,0-1.417-1.417h-8.5A1.417,1.417,0,0,0,40,26.25V50.33H37.163V34.749a1.417,1.417,0,0,0-1.417-1.417h-8.5a1.417,1.417,0,0,0-1.417,1.417V50.33H23V40.415A1.417,1.417,0,0,0,21.582,39h-8.41a1.417,1.417,0,0,0-1.417,1.417V50.33H8.833V23.417a1.417,1.417,0,0,0-2.833,0v28.33a1.417,1.417,0,0,0,1.417,1.417H52.745a1.417,1.417,0,0,0,0-2.833Zm-38.156,0v-8.5h5.577v8.5Zm14.076,0V36.165H34.33V50.33ZM42.829,27.666H48.5V50.33H42.829Z" transform="translate(-0.334 -2.169)" fill="#0d2380"/>
      <path id="Trazado_194850" data-name="Trazado 194850" d="M50.417,19.5h5.666A1.417,1.417,0,0,0,57.5,18.083V12.417A1.416,1.416,0,0,0,56.083,11H50.417A1.417,1.417,0,0,0,49,12.417v5.666A1.417,1.417,0,0,0,50.417,19.5Zm1.416-5.666h2.833v2.833H51.833Z" transform="translate(17.576 -6.75)" fill="#0d2380"/>
    </g>
  </g>
</svg>
