<svg xmlns="http://www.w3.org/2000/svg" width="166" height="166" viewBox="0 0 166 166">
  <g id="Grupo_138466" data-name="Grupo 138466" transform="translate(-285 -8386)">
    <g id="Grupo_137414" data-name="Grupo 137414" transform="translate(2242.348 13821.669)">
      <g id="Elipse_5326" data-name="Elipse 5326" transform="translate(-1957.348 -5435.669)" fill="#fff" stroke="#aab2d3" stroke-width="3">
        <circle cx="83" cy="83" r="83" stroke="none"/>
        <circle cx="83" cy="83" r="81.5" fill="none"/>
      </g>
    </g>
    <g id="Planning" transform="translate(332.853 8426.985)">
      <path id="Trazado_194860" data-name="Trazado 194860" d="M25.594,26.9A11.052,11.052,0,1,1,14.542,15.89,11.052,11.052,0,0,1,25.594,26.9" transform="translate(1.426 41.094)" fill="#fff"/>
      <path id="Trazado_194861" data-name="Trazado 194861" d="M38.186,16.9a5.006,5.006,0,0,0-7.086,0l-4.39,4.39L22.282,16.9a5.006,5.006,0,1,0-7.047,7.086l4.274,4.39-4.39,4.39a5.006,5.006,0,1,0,7.047,7.086l4.39-4.39,4.506,4.39a5.006,5.006,0,0,0,7.086,0,5.083,5.083,0,0,0,0-7.086l-4.39-4.39,4.429-4.39a5.083,5.083,0,0,0,0-7.086" transform="translate(29.73 39.195)" fill="#fff"/>
      <path id="Trazado_194862" data-name="Trazado 194862" d="M27.918,3.468a5.006,5.006,0,0,0-7.086,0l-4.39,4.39-4.39-4.39a5.01,5.01,0,0,0-7.086,7.086l4.313,4.39-4.313,4.39a5.01,5.01,0,0,0,7.086,7.086l4.39-4.39,4.39,4.39a5.01,5.01,0,0,0,7.086-7.086l-4.39-4.39,4.39-4.39a5.006,5.006,0,0,0,0-7.086" transform="translate(1.451 1.491)" fill="#fff"/>
      <path id="Trazado_194863" data-name="Trazado 194863" d="M9.524,15.9a10.9,10.9,0,0,0-4.274.886,11.014,11.014,0,0,1,0,20.294,10.9,10.9,0,0,0,4.274.886,11.052,11.052,0,1,0,0-22.066" transform="translate(6.443 41.08)" fill="#fff"/>
      <path id="Trazado_194864" data-name="Trazado 194864" d="M15.07,42.513a6.893,6.893,0,0,0,4.891,2.041h0a6.893,6.893,0,0,0,4.929-2.041l3-3.042,3.042,3.042A6.97,6.97,0,0,0,42.8,37.622a7.047,7.047,0,0,0-2.041-4.929l-3.042-3,3.042-3.042a6.97,6.97,0,0,0,0-9.82h0a6.97,6.97,0,0,0-9.82,0l-3,3.042L24.89,16.828a7.124,7.124,0,0,0-9.82,0,6.97,6.97,0,0,0-2.041,4.814,6.893,6.893,0,0,0,2.041,4.891l3.042,3.042-3.042,3a6.97,6.97,0,0,0,0,9.935ZM17.8,35.427l4.39-4.467a1.964,1.964,0,0,0,0-2.734l-4.39-4.39a3.042,3.042,0,0,1,0-4.351,3.158,3.158,0,0,1,4.351,0l4.39,4.39a1.925,1.925,0,0,0,2.734,0l4.39-4.467a3.081,3.081,0,0,1,4.351,4.351l-4.39,4.39a2.041,2.041,0,0,0-.578,1.386,1.964,1.964,0,0,0,.578,1.348l4.39,4.39a3.081,3.081,0,0,1-4.351,4.351l-4.39-4.39a2,2,0,0,0-2.734,0l-4.39,4.39A2.927,2.927,0,0,1,20,40.549h0a3.119,3.119,0,0,1-2.2-5.276Z" transform="translate(28.508 38)" fill="#0d2380"/>
      <path id="Trazado_194865" data-name="Trazado 194865" d="M32.73,8.5A6.932,6.932,0,0,0,20.908,3.5L17.866,6.538,14.824,3.5a6.932,6.932,0,0,0-9.781,0A6.739,6.739,0,0,0,3,8.5a6.893,6.893,0,0,0,2.041,4.891l3,3.042-3,3.042A6.932,6.932,0,0,0,9.933,31.3h0a6.855,6.855,0,0,0,4.891-2l3.042-3.042L20.908,29.3a6.855,6.855,0,0,0,4.891,2h0a6.855,6.855,0,0,0,4.891-2,6.97,6.97,0,0,0,2.041-4.929,6.893,6.893,0,0,0-2.041-4.891l-3-3.042,3-3A7.047,7.047,0,0,0,32.73,8.5Zm-4.737,2.2L23.6,15.048a1.925,1.925,0,0,0,0,2.734l4.39,4.429a3.119,3.119,0,0,1,0,4.39,3.2,3.2,0,0,1-2.195.886h0a3.2,3.2,0,0,1-2.2-.886l-4.39-4.429a1.848,1.848,0,0,0-2.7,0L12.09,26.6a3.077,3.077,0,0,1-4.351-4.351l4.39-4.467a1.848,1.848,0,0,0,0-2.7L7.738,10.7a3.158,3.158,0,0,1,0-4.39,3.081,3.081,0,0,1,4.351,0l4.429,4.429a1.925,1.925,0,0,0,2.7,0L23.6,6.307a3.119,3.119,0,0,1,4.39,0,3.2,3.2,0,0,1,.886,2.2,3.119,3.119,0,0,1-.886,2.2Z" transform="translate(0.027)" fill="#0d2380"/>
      <path id="Trazado_194866" data-name="Trazado 194866" d="M56.055,24.117V7.828l1.617,1.5A1.934,1.934,0,0,0,60.33,6.519C55.67,2.36,55.478,1.59,54.284,1.512s-1.925,1.155-6.315,5.006a1.925,1.925,0,0,0,0,2.734,1.887,1.887,0,0,0,2.7,0l1.617-1.5V24.117a10.937,10.937,0,0,1-10.9,10.937H28.868A14.864,14.864,0,0,0,14.042,49.841v5.314a12.977,12.977,0,1,0,3.851,0V49.841A10.975,10.975,0,0,1,28.868,38.9H41.307A14.787,14.787,0,0,0,56.055,24.117ZM25.248,67.9a9.05,9.05,0,1,0-.154,0Z" transform="translate(0 0.096)" fill="#0d2380"/>
    </g>
  </g>
</svg>
