<svg xmlns="http://www.w3.org/2000/svg" xmlns:xlink="http://www.w3.org/1999/xlink" width="405.229" height="220.667" viewBox="0 0 405.229 220.667">
  <defs>
    <clipPath id="clip-path">
      <path id="Trazado_193805" data-name="Trazado 193805" d="M35.638,30.547c1.37.589,9.306-8.722,4.742-10.679Z" transform="translate(-35.638 -19.868)" fill="none"/>
    </clipPath>
    <linearGradient id="linear-gradient" x1="-7.549" y1="11.048" x2="-7.332" y2="11.048" gradientUnits="objectBoundingBox">
      <stop offset="0" stop-color="#ffffcd"/>
      <stop offset="1" stop-color="#ffffda"/>
    </linearGradient>
    <clipPath id="clip-path-2">
      <rect id="Rectángulo_82961" data-name="Rectángulo 82961" width="234.341" height="220.667" fill="none"/>
    </clipPath>
    <clipPath id="clip-path-3">
      <path id="Trazado_193807" data-name="Trazado 193807" d="M21.216,24.027c1.881,2.022,6.153,5.149,14.862,5.732-1.5-3.763-2.931-7.1-2.147-10.448l-10.6-2.4s.358,2.738-2.119,7.121" transform="translate(-21.216 -16.906)" fill="none"/>
    </clipPath>
    <linearGradient id="linear-gradient-2" x1="-4.528" y1="13.071" x2="-4.314" y2="13.071" gradientUnits="objectBoundingBox">
      <stop offset="0" stop-color="#fff2bf"/>
      <stop offset="1" stop-color="#ffffcd"/>
    </linearGradient>
    <clipPath id="clip-path-5">
      <path id="Trazado_193809" data-name="Trazado 193809" d="M21.944,22.628a14.636,14.636,0,0,0,1.44,5.548c2.163,4.539,6.419,7.909,10.5,8.233,3.717.293,7.006-4.321,8.227-10.118a23.742,23.742,0,0,0,.428-2.931c.58-7.078-3.511-13.18-9.138-13.626q-.362-.028-.723-.028c-5.427,0-11.142,4.766-10.736,12.922" transform="translate(-21.924 -9.706)" fill="none"/>
    </clipPath>
    <linearGradient id="linear-gradient-3" x1="-2.244" y1="8.093" x2="-2.135" y2="8.093" gradientUnits="objectBoundingBox">
      <stop offset="0" stop-color="#ffffcd"/>
      <stop offset="1" stop-color="#fff2bf"/>
    </linearGradient>
    <clipPath id="clip-path-6">
      <path id="Trazado_193852" data-name="Trazado 193852" d="M.791,2.634l130.238-.715L130.816,40.2.577,40.917Z" fill="none"/>
    </clipPath>
    <clipPath id="clip-path-7">
      <path id="Trazado_193853" data-name="Trazado 193853" d="M1.393,1.21,76.183.872l-.375,84.194L1.017,85.4Z" fill="none"/>
    </clipPath>
    <clipPath id="clip-path-8">
      <path id="Trazado_193815" data-name="Trazado 193815" d="M33.206,39.623c-.507,1.383,9.471,8.548,11.158,3.95C45.559,40.312,39.72,39,36.032,39c-1.522,0-2.68.224-2.826.626" transform="translate(-33.187 -38.997)" fill="none"/>
    </clipPath>
    <linearGradient id="linear-gradient-4" x1="-6.496" y1="6.852" x2="-6.296" y2="6.852" xlink:href="#linear-gradient"/>
  </defs>
  <g id="Grupo_137722" data-name="Grupo 137722" transform="translate(5456.764 7526)">
    <g id="Grupo_137697" data-name="Grupo 137697" transform="translate(-5265.017 -7464.109)">
      <g id="Grupo_137696" data-name="Grupo 137696" clip-path="url(#clip-path)">
        <path id="Trazado_193850" data-name="Trazado 193850" d="M0,0,14.5.13l.131,14.6L.131,14.6Z" transform="translate(-5.719 5.196) rotate(-42.779)" fill="url(#linear-gradient)"/>
      </g>
    </g>
    <g id="Grupo_137699" data-name="Grupo 137699" transform="translate(-5378.048 -7526)">
      <g id="Grupo_137698" data-name="Grupo 137698" clip-path="url(#clip-path-2)">
        <path id="Trazado_193806" data-name="Trazado 193806" d="M36.086,34.624a.709.709,0,0,1-.263-.053.64.64,0,0,1-.336-.847l6.7-15.093a.664.664,0,0,1,.863-.333.639.639,0,0,1,.339.847l-6.7,15.093a.653.653,0,0,1-.6.386" transform="translate(76.945 38.59)" fill="#fc502d"/>
      </g>
    </g>
    <g id="Grupo_137701" data-name="Grupo 137701" transform="translate(-5310.759 -7473.336)">
      <g id="Grupo_137700" data-name="Grupo 137700" clip-path="url(#clip-path-3)">
        <rect id="Rectángulo_82962" data-name="Rectángulo 82962" width="14.862" height="12.853" transform="translate(0 -0.002)" fill="url(#linear-gradient-2)"/>
      </g>
    </g>
    <g id="Grupo_137703" data-name="Grupo 137703" transform="translate(-5378.048 -7526)">
      <g id="Grupo_137702" data-name="Grupo 137702" clip-path="url(#clip-path-2)">
        <path id="Trazado_193808" data-name="Trazado 193808" d="M45.63,31.787A50.367,50.367,0,0,0,43.5,25.049a.346.346,0,0,0-.3-.215c-8.256-.6-12.474-3.5-14.437-5.5a.353.353,0,0,0-.454-.05A23.312,23.312,0,0,0,18.128,35.133C16.66,45.762,21.2,59.578,21.2,66.827H42.074s7.006-20.607,3.555-35.04" transform="translate(38.733 40.664)" fill="#0d2380"/>
      </g>
    </g>
    <g id="Grupo_137705" data-name="Grupo 137705" transform="translate(-5308.515 -7495.766)">
      <g id="Grupo_137704" data-name="Grupo 137704" clip-path="url(#clip-path-5)">
        <path id="Trazado_193851" data-name="Trazado 193851" d="M0,0,28.615.042l.034,23.718L.034,23.718Z" transform="translate(-2.585 26.821) rotate(-85.394)" fill="url(#linear-gradient-3)"/>
      </g>
    </g>
    <path id="Trazado_193819" data-name="Trazado 193819" d="M.795,24.917c-1.276-2.127.244-4.847,2.412-6.344,3.862-2.666,9.417-2.808,14.265-2.272a3.155,3.155,0,0,1-1.621-2.012C14.161,6.505,36.679,5.371,45.593,8.016c-2.315-2.032-.44-5.1,2.912-5.834C54.523.868,67.186,6.488,72.586,9.634a4.238,4.238,0,0,1-.96-3.374C72.8.369,96.323-5.728,123.835,21.737a2.9,2.9,0,0,1,.567-4.044c8.664-7.147,25.356,18.5,32.532,32.426-10.508.787-53.664,1.2-57.87-7.267a5.222,5.222,0,0,1,1.117-6.023c-10.172,3.713-25.16,4.515-28.4,1.013-1.424-1.541-1.508-4.256.984-6.753-6.7,3.312-26.647,10.666-30.385,4.178-.946-1.641-.626-4.185,2.021-6.385-4.854,2.226-14.155,5.4-19.2,3.62-4.8-1.7-5.589-6.966-.431-9.608C12.6,28.92,3.321,29.124.795,24.917" transform="translate(-5440.63 -7460.702) rotate(19)" fill="#0d2380"/>
    <g id="Grupo_137715" data-name="Grupo 137715" transform="translate(-5425.067 -7447.94) rotate(19)" style="mix-blend-mode: soft-light;isolation: isolate">
      <g id="Grupo_137714" data-name="Grupo 137714">
        <g id="Grupo_137713" data-name="Grupo 137713" clip-path="url(#clip-path-6)">
          <path id="Trazado_193820" data-name="Trazado 193820" d="M129.645,29.508a.5.5,0,0,1-.272-.076C93.959,7.3,44.6-2.918.569,2.776a.46.46,0,0,1-.531-.353.436.436,0,0,1,.405-.474A208.208,208.208,0,0,1,67.921,4.738c22.914,4.676,44.354,12.98,62,24.011a.387.387,0,0,1,.108.582.5.5,0,0,1-.386.177" transform="translate(0.699 10.696)" fill="#ffffd4"/>
          <path id="Trazado_193821" data-name="Trazado 193821" d="M14.06,3.259a.5.5,0,0,1-.168-.027A47.854,47.854,0,0,0,.456.842.437.437,0,0,1,.007.409a.462.462,0,0,1,.5-.4A48.91,48.91,0,0,1,14.233,2.45a.4.4,0,0,1,.269.538.48.48,0,0,1-.442.271" transform="translate(11.219 4.621)" fill="#ffffd4"/>
          <path id="Trazado_193822" data-name="Trazado 193822" d="M12.58,6.677a.5.5,0,0,1-.3-.1A36.981,36.981,0,0,0,.333.822.406.406,0,0,1,.029.3.492.492,0,0,1,.623.026,37.926,37.926,0,0,1,12.887,5.938a.384.384,0,0,1,.055.588.506.506,0,0,1-.363.151" transform="translate(36.154 2.431)" fill="#ffffd4"/>
          <path id="Trazado_193823" data-name="Trazado 193823" d="M18.819,10.551a.5.5,0,0,1-.344-.13A39.842,39.842,0,0,0,.35.827.409.409,0,0,1,.024.316.485.485,0,0,1,.6.022,40.8,40.8,0,0,1,19.168,9.846a.385.385,0,0,1-.025.59.511.511,0,0,1-.323.114" transform="translate(64.632 2.585)" fill="#ffffd4"/>
          <path id="Trazado_193824" data-name="Trazado 193824" d="M.567,7.351a.458.458,0,0,1-.459-.326.426.426,0,0,1,.363-.5A42.062,42.062,0,0,0,15.547.317a.514.514,0,0,1,.66.078.387.387,0,0,1-.1.585A43.065,43.065,0,0,1,.67,7.341a.523.523,0,0,1-.1.01" transform="translate(32.914 16.853)" fill="#ffffd4"/>
          <path id="Trazado_193825" data-name="Trazado 193825" d="M.547,5.969a.448.448,0,0,1-.465-.362.438.438,0,0,1,.41-.47A40.527,40.527,0,0,0,15.439.3a.506.506,0,0,1,.65.126A.393.393,0,0,1,15.939,1,41.57,41.57,0,0,1,.609,5.966l-.061,0" transform="translate(7.62 15.972)" fill="#ffffd4"/>
          <path id="Trazado_193826" data-name="Trazado 193826" d="M.531,4.854a.447.447,0,0,1-.467-.377.44.44,0,0,1,.429-.456A30.512,30.512,0,0,0,12.78.257a.507.507,0,0,1,.65.126.393.393,0,0,1-.149.577A31.577,31.577,0,0,1,.575,4.853Z" transform="translate(64.22 22.547)" fill="#ffffd4"/>
          <path id="Trazado_193827" data-name="Trazado 193827" d="M7.885,10.588a.475.475,0,0,1-.42-.227A46.352,46.352,0,0,0,.122.7.385.385,0,0,1,.169.112.515.515,0,0,1,.834.147,47.105,47.105,0,0,1,8.309,9.979a.4.4,0,0,1-.211.563.517.517,0,0,1-.213.046" transform="translate(109.911 16.828)" fill="#ffffd4"/>
          <path id="Trazado_193828" data-name="Trazado 193828" d="M2.592,3.728q-1.055.006-2.107-.05a.435.435,0,0,1-.438-.441.463.463,0,0,1,.5-.392A35.461,35.461,0,0,0,15.794.273a.5.5,0,0,1,.625.2.4.4,0,0,1-.234.555,36.445,36.445,0,0,1-13.592,2.7" transform="translate(88.683 31.722)" fill="#ffffd4"/>
        </g>
      </g>
    </g>
    <g id="Grupo_137719" data-name="Grupo 137719" transform="matrix(0.995, -0.105, 0.105, 0.995, -5429.954, -7363.032)">
      <path id="Trazado_193829" data-name="Trazado 193829" d="M115.508.389l0,.018a.433.433,0,0,1-.481.362C74.536-2.176,32.822,8.558.579,30.218a.491.491,0,0,1-.629-.076.365.365,0,0,1,.084-.554A169.381,169.381,0,0,1,25.979,15.34a184.359,184.359,0,0,1,28.471-9.85A190.888,190.888,0,0,1,84.48.287,187.35,187.35,0,0,1,115.094-.02a.42.42,0,0,1,.414.409" transform="translate(8.599 7.64)" fill="#0d2380"/>
      <path id="Trazado_193830" data-name="Trazado 193830" d="M5.473,12.912c-1.936.476-4.349-.1-5.2-1.705A3.426,3.426,0,0,1,.747,7.629C4.684,2.228,19.369-.1,19.369-.1c-5.189,5.439-9.253,11.868-13.9,13.008" transform="translate(-0.148 31.258)" fill="#0d2380"/>
      <path id="Trazado_193831" data-name="Trazado 193831" d="M3,6.449C1.352,6.075-.151,4.754-.007,3.257A3.287,3.287,0,0,1,2.065.813C7.556-1.674,19.48,2.1,19.48,2.1,13.049,4.152,6.968,7.346,3,6.449" transform="translate(13.571 22.08)" fill="#0d2380"/>
      <path id="Trazado_193832" data-name="Trazado 193832" d="M4.962,11.636a3.577,3.577,0,0,1-4.038.281A2.6,2.6,0,0,1-.012,9.412C.7,4.758,10.224-.051,10.224-.051,8.691,4.97,7.635,9.618,4.962,11.636" transform="translate(35.868 18.717)" fill="#0d2380"/>
      <path id="Trazado_193833" data-name="Trazado 193833" d="M2.085,5.791C.6,5.023-.448,3.373.165,1.956A3.654,3.654,0,0,1,2.951.091C9.076-.975,18.833,5.866,18.833,5.866,11.861,6.9,5.658,7.634,2.085,5.791" transform="translate(38.985 9.249)" fill="#0d2380"/>
      <path id="Trazado_193834" data-name="Trazado 193834" d="M2.13,5.91C.609,5.125-.457,3.44.169,1.992A3.734,3.734,0,0,1,3.014.088C9.27-1,17.7,6.418,17.7,6.418S5.778,7.793,2.13,5.91" transform="translate(54.227 5.152)" fill="#0d2380"/>
      <path id="Trazado_193835" data-name="Trazado 193835" d="M2.1,6.877C.4,5.744-.614,3.587.372,1.927A4.682,4.682,0,0,1,4.1,0C11.8-.528,20.732,9.44,20.732,9.44S6.179,9.6,2.1,6.877" transform="translate(67.073 -0.333)" fill="#0d2380"/>
      <path id="Trazado_193836" data-name="Trazado 193836" d="M4.918,12.275A3.738,3.738,0,0,1,.7,12.127,2.642,2.642,0,0,1,.078,9.433C1.472,4.7,11.463-.057,11.463-.057c-2.289,5.026-3.5,10.535-6.545,12.332" transform="translate(23.281 23.427)" fill="#0d2380"/>
      <path id="Trazado_193837" data-name="Trazado 193837" d="M5.977,7.048C.862,6.79-.492,4.241.121,2.564.483,1.57,2.683-1.47,7.974.8c7.586,3.258,8.982,4.619,8.963,4.609A28.811,28.811,0,0,1,5.977,7.048" transform="translate(26.092 14.585)" fill="#0d2380"/>
      <path id="Trazado_193838" data-name="Trazado 193838" d="M8.184,9.081c-2.624,3.785-5.757,3.62-7.12,2.364C.256,10.7-1.712,7.6,2.97,4.622a91.759,91.759,0,0,1,8.684-4.68,20.473,20.473,0,0,1-3.47,9.139" transform="translate(46.648 14.733)" fill="#0d2380"/>
      <path id="Trazado_193839" data-name="Trazado 193839" d="M8.421,9.343c-2.7,3.895-5.924,3.724-7.327,2.434C.262,11.011-1.76,7.815,3.055,4.754A94.647,94.647,0,0,1,11.991-.06a21.064,21.064,0,0,1-3.57,9.4" transform="translate(60.314 11.145)" fill="#0d2380"/>
      <path id="Trazado_193840" data-name="Trazado 193840" d="M8.977,9.422C5.4,13.181,2,12.547.74,10.977-.007,10.047-1.582,6.363,4.1,3.788A106.872,106.872,0,0,1,14.48-.072a23.572,23.572,0,0,1-5.5,9.493" transform="translate(73.345 8.677)" fill="#0d2380"/>
    </g>
    <g id="Grupo_137720" data-name="Grupo 137720" transform="matrix(-0.799, 0.602, -0.602, -0.799, -5074.495, -7483.023)">
      <path id="Trazado_193829-2" data-name="Trazado 193829" d="M115.233,31.291l0-.018a.442.442,0,0,0-.482-.369C74.543,33.445,32.976,22.208.7.074A.48.48,0,0,0,.08.144.373.373,0,0,0,.17.7,172.244,172.244,0,0,0,26.1,15.311,185.287,185.287,0,0,0,54.5,25.52a189.6,189.6,0,0,0,29.9,5.55,184.025,184.025,0,0,0,30.427.628.409.409,0,0,0,.407-.407" transform="translate(8.578 6.408)" fill="#0d2380"/>
      <path id="Trazado_193830-2" data-name="Trazado 193830" d="M5.387.09C3.458-.409,1.066.142.235,1.752A3.509,3.509,0,0,0,.747,5.358c3.969,5.476,18.587,7.968,18.587,7.968C14.119,7.8,10.013,1.285,5.387.09" transform="translate(0 0)" fill="#0d2380"/>
      <path id="Trazado_193831-2" data-name="Trazado 193831" d="M2.9.046C1.266.405-.213,1.719-.055,3.227A3.392,3.392,0,0,0,2.03,5.708C7.513,8.268,19.322,4.59,19.322,4.59,12.91,2.462,6.833-.816,2.9.046" transform="translate(13.829 15.902)" fill="#0d2380"/>
      <path id="Trazado_193832-2" data-name="Trazado 193832" d="M4.9.761A3.532,3.532,0,0,0,.889.435a2.581,2.581,0,0,0-.9,2.512c.761,4.691,10.272,9.63,10.272,9.63C8.681,7.508,7.582,2.82,4.9.761" transform="translate(35.912 13.604)" fill="#0d2380"/>
      <path id="Trazado_193833-2" data-name="Trazado 193833" d="M1.969.906C.5,1.663-.523,3.313.1,4.745A3.731,3.731,0,0,0,2.889,6.651C8.988,7.788,18.611,1,18.611,1,11.672-.111,5.5-.911,1.969.906" transform="translate(39.249 28.872)" fill="#0d2380"/>
      <path id="Trazado_193834-2" data-name="Trazado 193834" d="M2.015.744C.513,1.517-.53,3.2.108,4.665A3.813,3.813,0,0,0,2.955,6.612C9.184,7.774,17.482.395,17.482.395S5.62-1.114,2.015.744" transform="translate(54.436 33.197)" fill="#0d2380"/>
      <path id="Trazado_193835-2" data-name="Trazado 193835" d="M1.942,1.991C.262,3.114-.718,5.275.28,6.955A4.751,4.751,0,0,0,4,8.937c7.653.608,16.429-9.33,16.429-9.33S5.969-.7,1.942,1.991" transform="translate(67.291 36.63)" fill="#0d2380"/>
      <path id="Trazado_193836-2" data-name="Trazado 193836" d="M4.861.544A3.669,3.669,0,0,0,.668.649a2.651,2.651,0,0,0-.586,2.7C1.517,8.135,11.5,13.023,11.5,13.023,9.168,7.941,7.908,2.384,4.861.544" transform="translate(23.347 8.307)" fill="#0d2380"/>
      <path id="Trazado_193837-2" data-name="Trazado 193837" d="M5.838-.128C.758.079-.56,2.63.067,4.324c.37,1,2.589,4.086,7.822,1.855,7.5-3.2,8.877-4.555,8.858-4.545A28.621,28.621,0,0,0,5.838-.128" transform="translate(26.364 23.177)" fill="#0d2380"/>
      <path id="Trazado_193838-2" data-name="Trazado 193838" d="M8.1,3.168C5.452-.669,2.341-.535,1,.714.2,1.453-1.718,4.559,2.966,7.6a93.225,93.225,0,0,0,8.679,4.8A21.175,21.175,0,0,0,8.1,3.168" transform="translate(46.701 17.924)" fill="#0d2380"/>
      <path id="Trazado_193839-2" data-name="Trazado 193839" d="M8.335,3.259C5.611-.689,2.409-.55,1.028.734.209,1.5-1.767,4.691,3.051,7.821a96.158,96.158,0,0,0,8.931,4.938,21.786,21.786,0,0,0-3.647-9.5" transform="translate(60.318 21.324)" fill="#0d2380"/>
      <path id="Trazado_193840-2" data-name="Trazado 193840" d="M8.877,2.789C5.28-1.032,1.909-.43.674,1.137c-.732.929-2.258,4.619,3.413,7.27A107.543,107.543,0,0,0,14.446,12.4,24.437,24.437,0,0,0,8.877,2.789" transform="translate(73.303 24.341)" fill="#0d2380"/>
    </g>
    <g id="Grupo_137721" data-name="Grupo 137721" transform="matrix(0.259, 0.966, -0.966, 0.259, -5073.471, -7488.591)">
      <path id="Trazado_193841" data-name="Trazado 193841" d="M15.362,55.085a4.765,4.765,0,0,1,2.076,3.326C19.572,51.782,23.4,41.114,28.585,38c5-3.01,8.9.342,9.451,3.1C40.562,31.289,47,22.1,51.421,19.7c5.073-2.756,9.662.459,8.737,3.637C68.286,8.077,80.062-1.01,85.548,1.32c7.189,3.054-.172,21.447-15.376,29.233,4.511-2.178,10.4-1.991,12.1,1.352,1.793,3.523-2.42,8.7-11.133,10.336a4.825,4.825,0,0,1,3.447,7.242C71.234,56.39,57.176,61.188,47.645,63.709c3.831-.667,7.626-.257,8.754,2.851C58.971,73.653,41.77,78.665,30.11,81.105c2.2.01,4.27.7,5.111,3.037,2.947,8.2-22.2,13.874-30.064,16-10.465-25.813.716-50.3,10.2-45.061" transform="translate(0 0)" fill="#0d2380"/>
      <g id="Grupo_137718" data-name="Grupo 137718" transform="translate(5.677 7.652)" style="mix-blend-mode: soft-light;isolation: isolate">
        <g id="Grupo_137717" data-name="Grupo 137717">
          <g id="Grupo_137716" data-name="Grupo 137716" clip-path="url(#clip-path-7)">
            <path id="Trazado_193842" data-name="Trazado 193842" d="M1.42,85.4a.419.419,0,0,0,.369-.211c10.63-19.91,22.519-30.674,36.287-43.138C49.391,31.8,62.217,20.188,76.1,1.445A.35.35,0,0,0,76,.929a.436.436,0,0,0-.567.1C61.587,19.714,48.791,31.3,37.5,41.519,23.681,54.032,11.745,64.838,1.055,84.862a.356.356,0,0,0,.189.5.441.441,0,0,0,.177.036" transform="translate(0.007 0.008)" fill="#ffffd4"/>
            <path id="Trazado_193843" data-name="Trazado 193843" d="M.579,14.837a.417.417,0,0,0,.38-.233L7.342.592a.358.358,0,0,0-.22-.484.426.426,0,0,0-.534.2L.2,14.325a.358.358,0,0,0,.22.484.422.422,0,0,0,.155.028" transform="translate(40.804 16.154)" fill="#ffffd4"/>
            <path id="Trazado_193844" data-name="Trazado 193844" d="M.575,14.46a.412.412,0,0,0,.395-.274A89.975,89.975,0,0,1,6.492.6.356.356,0,0,0,6.293.1.429.429,0,0,0,5.75.289a90.491,90.491,0,0,0-5.566,13.7.366.366,0,0,0,.281.458.478.478,0,0,0,.11.013" transform="translate(19.845 35.07)" fill="#ffffd4"/>
            <path id="Trazado_193845" data-name="Trazado 193845" d="M1.347,18.178a.472.472,0,0,0,.083-.008.379.379,0,0,0,.319-.442A34.181,34.181,0,0,1,2.395.49.366.366,0,0,0,2.108.035a.417.417,0,0,0-.5.264A34.871,34.871,0,0,0,.95,17.883a.4.4,0,0,0,.4.295" transform="translate(3.497 54.394)" fill="#ffffd4"/>
            <path id="Trazado_193846" data-name="Trazado 193846" d="M.47,5.682A.445.445,0,0,0,.6,5.662L15.661.9a.368.368,0,0,0,.257-.474A.415.415,0,0,0,15.4.2L.341,4.958a.369.369,0,0,0-.257.474.4.4,0,0,0,.386.25" transform="translate(53.778 26.65)" fill="#ffffd4"/>
            <path id="Trazado_193847" data-name="Trazado 193847" d="M.5,7.747a.447.447,0,0,0,.139-.023L20.8.958A.366.366,0,0,0,21.051.48a.417.417,0,0,0-.522-.221L.358,7.025A.368.368,0,0,0,.112,7.5.4.4,0,0,0,.5,7.747" transform="translate(40.005 40.053)" fill="#ffffd4"/>
            <path id="Trazado_193848" data-name="Trazado 193848" d="M.436,2.9H.472c5.5-.461,11.04-1.121,16.479-1.964A.382.382,0,0,0,17.289.5.4.4,0,0,0,16.82.2C11.4,1.039,5.878,1.7.4,2.155a.387.387,0,0,0-.372.405.39.39,0,0,0,.4.338" transform="translate(25.558 60.923)" fill="#ffffd4"/>
            <path id="Trazado_193849" data-name="Trazado 193849" d="M.427,2.092a.442.442,0,0,0,.08-.008A70.653,70.653,0,0,1,12.922.893a.4.4,0,0,0,.409-.374.39.39,0,0,0-.408-.371A71.033,71.033,0,0,0,.35,1.355a.379.379,0,0,0-.322.44.4.4,0,0,0,.4.3" transform="translate(8.848 78.917)" fill="#ffffd4"/>
          </g>
        </g>
      </g>
    </g>
    <path id="Trazado_193810" data-name="Trazado 193810" d="M25.32,73.283H39.865a1.467,1.467,0,0,0,.818-2.7c-4.095-2.564-15.363,1-15.363,2.7" transform="translate(-5323.062 -7378.618)" fill="#23378b"/>
    <path id="Trazado_193811" data-name="Trazado 193811" d="M43.69,34.506h-20.7S13.822,52,18.345,64.43s8.909,14.744,12,26.139c2.239,8.246,2.423,21.031,4.2,30.077,3.181,16.174,7.4,27.161,8.64,27.033,2.144-.218,3.457-28.093,5.262-54.572,1.472-21.579-4.761-58.6-4.761-58.6" transform="translate(-5340.931 -7453.015)" fill="#fc502d"/>
    <path id="Trazado_193812" data-name="Trazado 193812" d="M31.552,54.524c-.241,13.193,11.164,19.233,4.475,31.607-4.072,7.536-11.6,17.831-16.02,25.962-7.9,14.529-10.4,23.816-9.347,24.485,1.8,1.159,19.423-17.828,37.8-37.279,6.188-6.551,10.013-16.713,11.085-26.557,1.154-10.607-1.4-38.236-1.4-38.236H37.271s-6.416,12.722-5.718,20.018" transform="translate(-5355.391 -7453.015)" fill="#fc502d"/>
    <path id="Trazado_193813" data-name="Trazado 193813" d="M10.588,67.322c-1.056.9,4.957,12.595,8.468,9.613s-7.412-10.511-8.468-9.613" transform="translate(-5355.321 -7383.759)" fill="#23378b"/>
    <path id="Trazado_193814" data-name="Trazado 193814" d="M24.8,22.546C9.526,24.291,23.285,55.608,31.74,61.6c6.09,4.321,34.822,15.068,34.6,12.916S41.423,52.947,39.479,49.692C37.4,46.216,35.86,21.285,24.8,22.546" transform="translate(-5339.115 -7478.41)" fill="#fc502d"/>
    <g id="Grupo_137709" data-name="Grupo 137709" transform="translate(-5272.79 -7404.519)">
      <g id="Grupo_137708" data-name="Grupo 137708" clip-path="url(#clip-path-8)">
        <path id="Trazado_193854" data-name="Trazado 193854" d="M0,0,15.8.134l.128,14.924-15.8-.134Z" transform="matrix(0.811, -0.585, 0.585, 0.811, -4.922, 3.142)" fill="url(#linear-gradient-4)"/>
      </g>
    </g>
    <g id="Grupo_137711" data-name="Grupo 137711" transform="translate(-5378.048 -7526)">
      <g id="Grupo_137710" data-name="Grupo 137710" clip-path="url(#clip-path-2)">
        <path id="Trazado_193816" data-name="Trazado 193816" d="M13.534,62.6a16.814,16.814,0,0,0,9.537,11.909c6.993,3.168,12.836,1.047,15.084-2.854,4.3-7.458-4.742-13.143-1.4-20.869,2.277-5.265,7.583-5.109,9.306-10.342,1.681-5.112-2.82-9.121-3.517-11.451A3.116,3.116,0,0,1,43.7,25.342a3.074,3.074,0,0,1,3.023.308,5.841,5.841,0,0,1,1.2,1.1,3.849,3.849,0,0,0,1.269.972,3.6,3.6,0,0,0,1.776.352c9.356-.53,11.957-9.875,8.529-13.965-4-4.776-13.889-10-23.112-2.919-5.538,4.255-7.117,11.775-9.591,17.576C23.4,36.722,10.451,47.878,13.534,62.6" transform="translate(28.37 16.353)" fill="#0d2380"/>
        <path id="Trazado_193817" data-name="Trazado 193817" d="M26.916,72.838l-.089-.009a16.423,16.423,0,0,1-11.45-8.863c-2.461-5.149-2.182-11.535.764-17.526a51.144,51.144,0,0,1,4.821-7.766,57.4,57.4,0,0,0,5.5-8.962,37.467,37.467,0,0,0,1.849-5.165c.555-1.794,1.183-3.825,2.02-5.9,3.26-8.093,9.585-10.134,14.314-10.42A16.116,16.116,0,0,1,56.3,13.142a5.719,5.719,0,0,1,.9,6.595,7.5,7.5,0,0,1-6.933,3.994A11.764,11.764,0,0,1,47.5,23c-2.61-.9-5.569-1.928-7.641.769-1.817,2.368-.536,5.009.7,7.561a10.344,10.344,0,0,1,1.427,4.311c-.041,2.1-1.811,3.857-3.86,5.888a37.549,37.549,0,0,0-3.657,4.006c-3.622,4.791-2.569,7.931-1.348,11.567A18.167,18.167,0,0,1,34.4,65.608a.357.357,0,0,1-.406.312.361.361,0,0,1-.32-.4,17.353,17.353,0,0,0-1.24-8.2C31.2,53.655,30.04,50.191,33.888,45.1a38.253,38.253,0,0,1,3.724-4.084c2.02-2,3.613-3.582,3.651-5.4A9.979,9.979,0,0,0,39.9,31.634c-1.272-2.617-2.715-5.586-.628-8.3,2.391-3.115,5.9-1.9,8.468-1.012a11.446,11.446,0,0,0,2.572.695,6.809,6.809,0,0,0,6.232-3.6,4.963,4.963,0,0,0-.806-5.8A15.3,15.3,0,0,0,44.69,8.943c-4.52.274-10.565,2.227-13.683,9.969-.825,2.044-1.449,4.065-2,5.844a37.914,37.914,0,0,1-1.887,5.268,57.934,57.934,0,0,1-5.557,9.062A50.623,50.623,0,0,0,16.8,46.752c-2.848,5.794-3.127,11.956-.758,16.909a15.713,15.713,0,0,0,10.964,8.47.36.36,0,0,1,.266.433.364.364,0,0,1-.355.274" transform="translate(29.78 17.363)" fill="#47589e"/>
        <path id="Trazado_193818" data-name="Trazado 193818" d="M25.24,65.807a.38.38,0,0,1-.13-.022c-5.772-2.134-10.384-9.436-9.67-15.324.837-6.919,4.6-12.514,7.621-17.009a30.446,30.446,0,0,0,3.774-6.595,17.409,17.409,0,0,0,.428-2.047c.618-3.592,1.659-9.6,7.856-13.171,4.095-2.361,9.007-2.305,13.828.153a.36.36,0,0,1,.155.486.37.37,0,0,1-.492.153c-4.589-2.343-9.252-2.4-13.121-.174-5.906,3.4-6.908,9.205-7.507,12.676a17.352,17.352,0,0,1-.454,2.143,30.728,30.728,0,0,1-3.86,6.772c-2.981,4.433-6.689,9.947-7.5,16.7-.666,5.5,3.806,12.576,9.2,14.567a.357.357,0,0,1,.216.461.364.364,0,0,1-.343.234" transform="translate(33.372 20.958)" fill="#47589e"/>
      </g>
    </g>
    <g id="Grupo_137695" data-name="Grupo 137695" transform="translate(-5378.048 -7526)">
      <g id="Grupo_137694" data-name="Grupo 137694" clip-path="url(#clip-path-2)">
        <path id="Trazado_193801" data-name="Trazado 193801" d="M136.109,69.106a45.083,45.083,0,0,0-7.1-10.215l8.814-6.713a56.688,56.688,0,0,0-25.307-16.336l-2.924,10.542a46.755,46.755,0,0,0-10.086-2.156c-.821-.081-1.627-.078-2.439-.115l1.072-10.906a57.459,57.459,0,0,0-28.9,5.938l5.484,9.526a46.188,46.188,0,0,0-10.473,6.966l-7.089-8.451A55.523,55.523,0,0,0,40.82,71.507l10.736,2.925A44.429,44.429,0,0,0,49.228,84.7c-.067.664-.06,1.318-.1,1.978L38.023,85.628a54.779,54.779,0,0,0,6,28.753l9.7-5.389a45.149,45.149,0,0,0,7.155,10.38l-8.6,6.962a56.67,56.67,0,0,0,25.132,16.134l2.975-10.523a46.611,46.611,0,0,0,10.051,2.14c.79.078,1.57.078,2.357.112l-1.1,10.9a57.487,57.487,0,0,0,29.141-6.006l-5.452-9.526a46.172,46.172,0,0,0,10.485-7.047l7.063,8.464a55.484,55.484,0,0,0,16.283-24.479l-10.7-2.95a44.474,44.474,0,0,0,2.207-9.944c.079-.763.076-1.517.114-2.274l11.085,1.209a54.789,54.789,0,0,0-6.1-28.8ZM91.7,121.54C73.494,119.768,60.2,103.83,62,85.946S80.031,55,98.24,56.776s31.507,17.707,29.7,35.591S109.911,123.313,91.7,121.54" transform="translate(82.319 70.045)" fill="#fc502d"/>
        <path id="Trazado_193802" data-name="Trazado 193802" d="M66.051,29.854l-8.224.723a24.487,24.487,0,0,0-2.68-9.268l7.482-3.352a32.926,32.926,0,0,0-8.154-10.28L49.235,13.9a24.176,24.176,0,0,0-4.469-3.04,24.638,24.638,0,0,0-4.2-1.67l2.724-7.648A33.926,33.926,0,0,0,30.547.1l.812,8.071A25.446,25.446,0,0,0,21.79,10.78L18.213,3.431a32.441,32.441,0,0,0-7.269,4.81,31.635,31.635,0,0,0-2.953,3l6.369,5.243A24.167,24.167,0,0,0,9.6,24.96L1.711,22.216A32.664,32.664,0,0,0,.084,34.954l8.322-.729a23.675,23.675,0,0,0,1.779,7.5c.27.639.631,1.221.951,1.825L3.5,47.131a32.6,32.6,0,0,0,8.2,10.121l5.373-6.336a25.463,25.463,0,0,0,8.567,4.623l-2.813,7.828a33.181,33.181,0,0,0,12.132,1.607c.266-.016.526-.056.79-.078L35,56.667a24.893,24.893,0,0,0,9.42-2.679l3.647,7.439a33.7,33.7,0,0,0,10.191-7.9l-6.486-5.181a24.066,24.066,0,0,0,4.935-8.5l7.837,2.785c.114-.333.244-.657.343-.994a31.28,31.28,0,0,0,1.167-11.791M15.4,29.939A17.874,17.874,0,0,1,29.621,15.154a18.177,18.177,0,0,1,18.77,8.084A17.469,17.469,0,0,1,47,43.474,18.283,18.283,0,0,1,24.721,47.9,17.651,17.651,0,0,1,15.4,29.939" transform="translate(-0.001 0)" fill="#fc502d"/>
        <path id="Trazado_193803" data-name="Trazado 193803" d="M138.029,128.778H36.742a3.709,3.709,0,0,1-2.969-1.72,7.207,7.207,0,0,1-1.227-4.153V11.286a7.2,7.2,0,0,1,1.227-4.153,3.709,3.709,0,0,1,2.969-1.72H138.029a3.7,3.7,0,0,1,2.965,1.72,7.178,7.178,0,0,1,1.231,4.153v111.62a7.185,7.185,0,0,1-1.231,4.153,3.7,3.7,0,0,1-2.965,1.72" transform="translate(70.679 11.45)" fill="#0d2380"/>
        <rect id="Rectángulo_82956" data-name="Rectángulo 82956" width="16.553" height="64.696" transform="translate(150.026 59.833)" fill="#fff2bf"/>
        <rect id="Rectángulo_82957" data-name="Rectángulo 82957" width="16.553" height="42.815" transform="translate(122.768 81.714)" fill="#fff2bf"/>
        <rect id="Rectángulo_82958" data-name="Rectángulo 82958" width="16.553" height="90.502" transform="translate(177.283 34.027)" fill="#fff2bf"/>
        <path id="Trazado_193804" data-name="Trazado 193804" d="M21.836,23.433C11.54,34.349,43.076,63.784,51.113,63.784c11.967,0,22.62-35.463,18.938-36.56S55.769,49.931,51.583,49.931s-19.452-37.413-29.747-26.5" transform="translate(42.98 45.342)" fill="#fc502d"/>
      </g>
    </g>
  </g>
</svg>
