<svg xmlns="http://www.w3.org/2000/svg" xmlns:xlink="http://www.w3.org/1999/xlink" width="405.229" height="226.75" viewBox="0 0 405.229 226.75">
  <defs>
    <clipPath id="clip-path">
      <rect id="Rectángulo_82974" data-name="Rectángulo 82974" width="157.126" height="86.806" fill="none"/>
    </clipPath>
  </defs>
  <g id="Grupo_137729" data-name="Grupo 137729" transform="translate(20.333)">
    <g id="Grupo_137730" data-name="Grupo 137730" transform="translate(-20.334)">
      <g id="Grupo_137727" data-name="Grupo 137727">
        <g id="Grupo_137731" data-name="Grupo 137731">
          <path id="Trazado_193855" data-name="Trazado 193855" d="M.068,114.526c.931,5.875,12.324,4.58,19.878,8.964s.07,10.373,17.385,11.658c10.664.792,9.913-2.29,20.516,5.276,9.333,6.662,11.075-4.324,21.517-2.586,13.475,2.243,14.5-16.065,2.091-19.626s-18.5,1.425-20.771-6.265-10.638-10.578-21.257-8.859c-13.143,2.127-11.288,10.062-18.058,5.7s-22.53-2.03-21.3,5.741" transform="translate(0 62.998)" fill="#0d2380"/>
          <path id="Trazado_193856" data-name="Trazado 193856" d="M89.886,134.281c-37.866-20.272-82.4-23.366-82.85-23.395-1.7-.113-1.5-1.52.2-1.407.454.029,45.871,3.247,84.2,23.767Z" transform="translate(7.842 67.213)" fill="#005cea"/>
          <path id="Trazado_193857" data-name="Trazado 193857" d="M18.83,98.591c-2.2,3.751,5.276,5.525,7.769,9.861s-4.146,8.026,5.69,12.681c6.059,2.868,8.6-2.589,14.375,2.352s2.961,6.362,8.068,7.668c8.9,2.279,18.262-7.273,12.453-12.2s-13.723-3.176-11.475-8.323,2.993-7.331-4.219-8.675c-8.926-1.664-15.086,2.1-17.116-2.051S21.744,93.629,18.83,98.591" transform="translate(24.669 58.765)" fill="#fc502d"/>
          <path id="Trazado_193858" data-name="Trazado 193858" d="M68.18,140.609l1.548-.883C56.272,118.762,23.652,99.451,23.39,99.331c-1.106-.512-1.887.294-.779.805.255.118,32.281,19.773,45.569,40.472" transform="translate(29.548 60.886)" fill="#fff2bf"/>
          <rect id="Rectángulo_82968" data-name="Rectángulo 82968" width="1.165" height="0.781" transform="translate(315.471 23.842)" fill="#0d2380"/>
          <path id="Trazado_193859" data-name="Trazado 193859" d="M163.5,44.053h-1.165V42.418H163.5Zm0-3.268h-1.165V39.15H163.5Zm0-3.268h-1.165V35.882H163.5Zm0-3.27h-1.165V32.612H163.5Zm0-3.268h-1.165V29.344H163.5Zm0-3.268h-1.165V26.075H163.5Zm0-3.27h-1.165V22.806H163.5Zm0-3.268h-1.165V19.537H163.5Zm0-3.268h-1.165V16.269H163.5Z" transform="translate(153.135 9.989)" fill="#0d2380"/>
          <rect id="Rectángulo_82969" data-name="Rectángulo 82969" width="1.165" height="0.781" transform="translate(315.471 55.679)" fill="#0d2380"/>
          <rect id="Rectángulo_82970" data-name="Rectángulo 82970" width="1.165" height="0.781" transform="translate(305.955 23.842)" fill="#0d2380"/>
          <path id="Trazado_193860" data-name="Trazado 193860" d="M246.254,73.922H244.5V72.879h1.751Zm-3.5,0H241V72.879h1.751Zm-3.5,0H237.5V72.879h1.751Zm-3.5,0H234V72.879h1.749Zm-3.5,0H230.5V72.879h1.751Zm-3.5,0H227V72.879h1.751Zm-3.5,0H223.5V72.879h1.751Zm-3.5,0H220V72.879h1.751Zm-3.5,0H216.5V72.879h1.751Zm-3.5,0H213V72.879h1.751Zm-3.5,0H209.5V72.879h1.749Zm-3.5,0H206V72.879h1.751Zm-3.5,0H202.5V72.879h1.751Zm-3.5,0H199V72.879h1.751Zm-3.5,0H195.5V72.879h1.751Zm-3.5,0H192V72.879h1.751Zm-3.5,0H188.5V72.879h1.749Zm-3.5,0H185V72.879h1.751Zm-3.5,0H181.5V72.879h1.751Zm-3.5,0h-1.751V72.879h1.751Zm-3.5,0h-1.751V72.879h1.751Zm-3.5,0h-1.751V72.879h1.751Zm-3.5,0h-1.751V72.879h1.751Zm-3.5,0h-1.751V72.879h1.751Zm-3.5,0h-1.749V72.879h1.749Zm-3.5,0h-1.751V72.879h1.751Zm-3.5,0h-1.751V72.879h1.751Zm-3.5,0h-1.751V72.879h1.751Zm-3.5,0h-1.751V72.879h1.751Zm-3.5,0h-1.751V72.879h1.751Zm-3.5,0h-1.751V72.879h1.751Zm-3.5,0H135.99V72.879h1.751Zm-3.5,0H132.49V72.879h1.751Zm-3.5,0H128.99V72.879h1.751Zm-3.5,0h-1.751V72.879h1.751Zm-3.5,0h-1.751V72.879h1.751Zm-3.5,0h-1.749V72.879h1.749Zm-3.5,0h-1.751V72.879h1.751Zm-3.5,0h-1.751V72.879h1.751Zm-3.5,0h-1.751V72.879h1.751Zm-3.5,0h-1.751V72.879h1.751Zm-3.5,0h-1.751V72.879h1.751Zm-3.5,0H97.485V72.879h1.751Zm-3.5,0H93.985V72.879h1.751Zm-3.5,0H90.484V72.879h1.751Zm-3.5,0H86.984V72.879h1.751Zm-3.5,0H83.484V72.879h1.751Zm-3.5,0H79.983V72.879h1.751Zm-3.5,0H76.483V72.879h1.751Zm-3.5,0H72.983V72.879h1.751Zm-3.5,0H69.482V72.879h1.751Zm-3.5,0H65.982V72.879h1.751Zm-3.5,0H62.482V72.879h1.751Zm-3.5,0H58.981V72.879h1.751Zm-3.5,0H55.481V72.879H57.23Zm-3.5,0H51.979V72.879H53.73Zm-3.5,0H48.478V72.879h1.751Zm-3.5,0H44.978V72.879h1.751Zm-3.5,0H41.478V72.879h1.751Zm-3.5,0H37.977V72.879h1.751Zm-3.5,0H34.477V72.879h1.751ZM248.045,73.9l-.081-1.039a9.034,9.034,0,0,0,1.607-.245l.31,1.006a10.28,10.28,0,0,1-1.836.279m3.574-.884-.528-.928a8.429,8.429,0,0,0,1.371-.791l.725.817a9.506,9.506,0,0,1-1.567.9m2.9-2.066-.891-.67a7.459,7.459,0,0,0,.92-1.206l1.023.5a8.434,8.434,0,0,1-1.051,1.377m1.775-2.915-1.114-.305a6.616,6.616,0,0,0,.319-1.43l1.16.1a7.51,7.51,0,0,1-.364,1.635m.408-3.251h-1.165V63.218H256.7Zm0-3.133h-1.165V60.086H256.7Zm0-3.133h-1.165V56.953H256.7Zm0-3.133h-1.165V53.822H256.7Zm0-3.133h-1.165V50.687H256.7Zm0-3.133h-1.165V47.555H256.7Zm0-3.133h-1.165V44.422H256.7Zm0-3.133h-1.165V41.289H256.7Zm0-3.133h-1.165V38.157H256.7Zm0-3.133h-1.165V35.024H256.7Zm0-3.133h-1.165V31.893H256.7Zm0-3.133h-1.165V28.758H256.7Zm0-3.134h-1.165V25.624H256.7Zm0-3.133h-1.165V22.491H256.7Zm0-3.133h-1.165V19.359H256.7Zm0-3.133h-1.165V16.226H256.7Z" transform="translate(50.418 9.962)" fill="#0d2380"/>
          <rect id="Rectángulo_82971" data-name="Rectángulo 82971" width="1.165" height="0.781" transform="translate(322.476 23.842)" fill="#0d2380"/>
          <path id="Trazado_193861" data-name="Trazado 193861" d="M167.385,30.9H166.22V29.277h1.165Zm0-3.254H166.22V26.024h1.165Zm0-3.254H166.22V22.77h1.165Zm0-3.252H166.22V19.518h1.165Zm0-3.254H166.22V16.264h1.165Z" transform="translate(156.256 9.986)" fill="#0d2380"/>
          <path id="Trazado_193862" data-name="Trazado 193862" d="M167.676,27.645h-1.455v-1.3h1.165v.26h.29Z" transform="translate(156.256 16.174)" fill="#0d2380"/>
          <path id="Trazado_193863" data-name="Trazado 193863" d="M208.26,73.53H207.1V71.976h1.165Zm0-3.11H207.1V68.866h1.165Zm0-3.11H207.1V65.756h1.165Zm0-3.11H207.1V62.646h1.165Zm0-3.11H207.1V59.535h1.165Zm0-3.11H207.1V56.425h1.165Zm0-3.11H207.1V53.315h1.165Zm0-3.11H207.1V50.205h1.165Zm0-3.11H207.1V47.095h1.165Zm0-3.11H207.1V43.985h1.165Zm0-3.11H207.1V40.875h1.165Zm0-3.108H207.1V37.766h1.165Zm0-3.11H207.1V34.656h1.165Zm-1.17-3.089a5.337,5.337,0,0,0-.26-1.4l1.118-.294a6.168,6.168,0,0,1,.3,1.654Zm-.893-2.708a5.964,5.964,0,0,0-.97-1.128l.83-.731a7.017,7.017,0,0,1,1.143,1.33ZM203.981,28.4a6.889,6.889,0,0,0-1.446-.589l.346-.994a8.094,8.094,0,0,1,1.708.694Zm-3.012-.842c-.124-.006-.251-.01-.377-.01h-1.327V26.5h1.327c.148,0,.3,0,.444.011Zm-3.441-.01H195.79V26.5h1.738Zm-3.475,0h-1.738V26.5h1.738Zm-3.475,0H188.84V26.5h1.738Zm-3.475,0h-1.737V26.5H187.1Zm-3.475,0h-1.737V26.5h1.737Zm-3.475,0h-1.738V26.5h1.738Zm-3.475,0h-1.737V26.5h1.737Zm-3.473,0h-1.737V26.5H173.2Zm-3.475,0h-1.738V26.5h1.738Z" transform="translate(157.678 16.273)" fill="#0d2380"/>
          <rect id="Rectángulo_82972" data-name="Rectángulo 82972" width="1.165" height="0.781" transform="translate(364.774 91.363)" fill="#0d2380"/>
          <path id="Trazado_193864" data-name="Trazado 193864" d="M168.563,18.969c.023-.268.038-.537.038-.809,0-5.707-5.167-10.331-11.542-10.331s-11.543,4.624-11.543,10.331c0,.271.014.541.038.809Z" transform="translate(139.623 4.807)" fill="#0d2380"/>
          <path id="Trazado_193865" data-name="Trazado 193865" d="M189.59,18.969c.023-.268.038-.537.038-.809,0-5.707-5.167-10.331-11.542-10.331s-11.543,4.624-11.543,10.331c0,.271.014.541.038.809Z" transform="translate(156.515 4.807)" fill="#0d2380"/>
          <path id="Trazado_193866" data-name="Trazado 193866" d="M186.966,21.221A13.6,13.6,0,0,0,187.1,19.3c0-8.359-7.571-15.134-16.908-15.134s-16.91,6.775-16.91,15.134a13.6,13.6,0,0,0,.135,1.925Z" transform="translate(145.863 2.555)" fill="#0d2380"/>
          <path id="Trazado_193867" data-name="Trazado 193867" d="M48.516,82.219H36.07a1.29,1.29,0,1,0,0,2.565H48.516a1.29,1.29,0,1,0,0-2.565" transform="translate(50.544 50.48)" fill="#d1f5ff"/>
          <path id="Trazado_193868" data-name="Trazado 193868" d="M59.128,82.219H46.683a1.29,1.29,0,1,0,0,2.565H59.128a1.29,1.29,0,1,0,0-2.565" transform="translate(59.071 50.48)" fill="#d1f5ff"/>
          <path id="Trazado_193869" data-name="Trazado 193869" d="M124.216,43.411a28.648,28.648,0,0,0,.711-12.578l1.446-.194,2.855-.383.036-.008a33.389,33.389,0,0,0-5.221-13.092l-3.762,2.006a33.459,33.459,0,0,0-9.444-9.334l2.611-3.157A41.929,41.929,0,0,0,99.411.707L98.33,4.519a39.579,39.579,0,0,0-14.052-.636L83.626,0A43.287,43.287,0,0,0,69,4.674l2.24,3.365A34.58,34.58,0,0,0,60.81,16.492L57.28,14.154a34.089,34.089,0,0,0-6.663,12.565l4.258.965a28.6,28.6,0,0,0-.711,12.578l-3.069.41-1.252.178-.016,0a33.6,33.6,0,0,0,5.221,13.092l3.762-2a33.532,33.532,0,0,0,9.46,9.337l-2.611,3.157A41.838,41.838,0,0,0,79.68,70.388l1.08-3.812a39.748,39.748,0,0,0,14.068.641l.5,3.017.15.865a43.2,43.2,0,0,0,14.613-4.677l-2.24-3.365A34.952,34.952,0,0,0,118.3,54.592l3.527,2.337a34.238,34.238,0,0,0,6.644-12.553ZM84.774,52.4c-10.405-2.36-16.694-11.808-14.057-21.12s13.19-14.924,23.6-12.565c10.389,2.356,16.678,11.8,14.045,21.1S95.164,54.754,84.774,52.4" transform="translate(62.749)" fill="#fc502d"/>
          <path id="Trazado_193870" data-name="Trazado 193870" d="M59.127,33.125a18.387,18.387,0,0,0-5.664-4.274l.37-.605.732-1.193.007-.016a22.81,22.81,0,0,0-7.794-2.213l-.26,2.05a20.913,20.913,0,0,0-7.381.568l-.646-1.985a21.928,21.928,0,0,0-7.268,3.365l1.441,1.62a17.39,17.39,0,0,0-4.775,5.068l-2.025-.991a17.546,17.546,0,0,0-2.474,6.976l2.29.232a15.131,15.131,0,0,0,.637,6.606l-2.218.578a18.089,18.089,0,0,0,3.76,6.5l1.809-1.29A18.381,18.381,0,0,0,35.332,58.4l-.786,1.281-.316.526-.007,0a22.963,22.963,0,0,0,7.8,2.213l.26-2.05a20.949,20.949,0,0,0,7.387-.573l.646,1.985a21.833,21.833,0,0,0,7.26-3.36l-1.441-1.62a17.433,17.433,0,0,0,4.783-5.073l1.573.773.453.219A17.5,17.5,0,0,0,65.4,45.754l-2.29-.232a15.265,15.265,0,0,0-.635-6.616l2.218-.579a18.2,18.2,0,0,0-3.762-6.491ZM50.769,50.783A11.048,11.048,0,0,1,36.4,49.326a8.512,8.512,0,0,1,1.632-12.854A11.047,11.047,0,0,1,52.39,37.928a8.513,8.513,0,0,1-1.621,12.855" transform="translate(41.511 15.241)" fill="#fc502d"/>
          <path id="Trazado_193871" data-name="Trazado 193871" d="M219.256,112.119a21.252,21.252,0,0,0-6.537-4.932l.427-.7.844-1.377.009-.018a26.281,26.281,0,0,0-9-2.555l-.3,2.366a24.091,24.091,0,0,0-8.517.657l-.747-2.292a25.279,25.279,0,0,0-8.386,3.883l1.664,1.869a20.028,20.028,0,0,0-5.511,5.849l-2.339-1.144a20.248,20.248,0,0,0-2.853,8.05l2.642.268a17.459,17.459,0,0,0,.734,7.623l-2.559.667a20.882,20.882,0,0,0,4.339,7.5l2.088-1.488a21.23,21.23,0,0,0,6.535,4.932l-.907,1.48-.364.607-.009,0a26.459,26.459,0,0,0,9,2.555l.3-2.366a24.123,24.123,0,0,0,8.523-.662l.747,2.292a25.2,25.2,0,0,0,8.378-3.878l-1.663-1.869a20.123,20.123,0,0,0,5.518-5.855l1.816.893.521.253a20.178,20.178,0,0,0,2.846-8.046l-2.642-.268a17.624,17.624,0,0,0-.732-7.634l2.559-.668a21,21,0,0,0-4.341-7.492ZM209.61,132.5a12.752,12.752,0,0,1-16.582-1.682c-4.058-4.558-3.217-11.2,1.885-14.832a12.748,12.748,0,0,1,16.568,1.679c4.063,4.566,3.224,11.2-1.87,14.836" transform="translate(165.733 62.956)" fill="#fc502d"/>
          <path id="Trazado_193872" data-name="Trazado 193872" d="M348.378,141.818H19.714a1.754,1.754,0,1,1,0-3.486H348.378a1.754,1.754,0,1,1,0,3.486" transform="translate(36.992 84.931)" fill="#0d2380"/>
          <path id="Trazado_193873" data-name="Trazado 193873" d="M307.771,192.953H36.508a2.557,2.557,0,0,1-2.685-2.4V37.35a2.557,2.557,0,0,1,2.685-2.4H307.771a2.557,2.557,0,0,1,2.685,2.4v153.2a2.557,2.557,0,0,1-2.685,2.4" transform="translate(49.892 21.456)" fill="#fc502d"/>
          <path id="Trazado_193874" data-name="Trazado 193874" d="M34.485,189.574V37.514a2.026,2.026,0,0,1,2.126-1.906H306.6a2.027,2.027,0,0,1,2.13,1.906v152.06a2.025,2.025,0,0,1-2.13,1.9H36.611a2.024,2.024,0,0,1-2.126-1.9" transform="translate(50.424 21.862)" fill="#0d2380"/>
          <rect id="Rectángulo_82973" data-name="Rectángulo 82973" width="258.224" height="144.495" transform="translate(93.058 62.791)" fill="#fff2bf"/>
          <path id="Trazado_193875" data-name="Trazado 193875" d="M339.4,132.845v3.848a3.872,3.872,0,0,1-.04.581A5.409,5.409,0,0,1,333.8,141.7H26.947a5.407,5.407,0,0,1-5.554-4.427,3.874,3.874,0,0,1-.04-.581v-3.848Z" transform="translate(39.874 81.562)" fill="#fc502d"/>
          <path id="Trazado_193876" data-name="Trazado 193876" d="M339.339,135.589a5.411,5.411,0,0,1-5.556,4.429H26.928a5.409,5.409,0,0,1-5.554-4.429Z" transform="translate(39.891 83.247)" fill="#fc502d"/>
          <g id="Grupo_137725" data-name="Grupo 137725" transform="translate(144.422 93.442)" opacity="0.8">
            <g id="Grupo_137724" data-name="Grupo 137724">
              <g id="Grupo_137723" data-name="Grupo 137723" clip-path="url(#clip-path)">
                <path id="Trazado_193877" data-name="Trazado 193877" d="M220.888,144.7H71.21a3.546,3.546,0,0,1-3.724-3.333V61.229A3.546,3.546,0,0,1,71.21,57.9H220.888a3.545,3.545,0,0,1,3.724,3.333v80.14a3.545,3.545,0,0,1-3.724,3.333" transform="translate(-67.486 -57.896)" fill="#fff"/>
              </g>
            </g>
          </g>
          <path id="Trazado_193878" data-name="Trazado 193878" d="M98.853,81.041v31.5c0,3.5,44.4,3.5,44.4,0v-31.5Z" transform="translate(103.863 49.756)" fill="#fc502d"/>
          <path id="Trazado_193879" data-name="Trazado 193879" d="M119.807,90.422a5.485,5.485,0,0,0-10.963,0,5.28,5.28,0,0,0,3.234,4.813v8.943a2.248,2.248,0,0,0,4.494,0V95.235a5.277,5.277,0,0,0,3.234-4.813" transform="translate(110.588 52.27)" fill="#fff"/>
          <path id="Trazado_193880" data-name="Trazado 193880" d="M137.793,87.176H133.3V85.055a13.823,13.823,0,0,0-27.629,0v2.121h-4.494V85.055c0-9.739,8.214-17.66,18.308-17.66s18.308,7.921,18.308,17.66Z" transform="translate(105.428 41.378)" fill="#fc502d"/>
          <path id="Trazado_193881" data-name="Trazado 193881" d="M148.467,79.813l1.2,5.332.218.991c.242,1.261,7.749.723,7.217-.749l-.447-1.085-2.31-5.613Z" transform="translate(141.993 27.549)" fill="#f7a58e"/>
          <path id="Trazado_193882" data-name="Trazado 193882" d="M146.034,79.319c-.076,5.781,2.346,10.483,6.135,10.463s7.459-3.583,7.59-10.537c.085-4.428-3.107-8.005-6.9-7.986s-6.768,3.629-6.828,8.059" transform="translate(140.037 20.133)" fill="#f7a58e"/>
          <path id="Trazado_193883" data-name="Trazado 193883" d="M153.454,70.464s-7.553.414-8.18,6.753c-.839,5.561,2.927,1.473,4.465,5.206,1.762,4.277-.034,7.406-2.323,8.255,2.034,3.149,13.671,3.036,16.667-2.488,2.05-6.93-.851-17.342-10.629-17.726" transform="translate(139.331 19.339)"/>
          <path id="Trazado_193884" data-name="Trazado 193884" d="M146.821,77.049a1.519,1.519,0,0,0,1.288,1.681,1.459,1.459,0,0,0,1.517-1.429,1.517,1.517,0,0,0-1.288-1.679,1.459,1.459,0,0,0-1.517,1.427" transform="translate(140.668 24.483)" fill="#f7a58e"/>
          <path id="Trazado_193885" data-name="Trazado 193885" d="M148.68,130.307c-.353-.416-2.023-.422-2.177.192s.142,1.053-.563,2.028a6.453,6.453,0,0,0,2.285,0c.44-.142.808-1.8.454-2.22" transform="translate(139.964 78.792)" fill="#fff"/>
          <path id="Trazado_193886" data-name="Trazado 193886" d="M150.929,166.943h-4.07c-.381-19.082-.307-39.856-.17-55.5.049-5.6.188-8.437,1.105-11.8,1.852-6.792,10.559-4.7,11.177,1.455.258,3.417.445,10.082-5.253,32.729,2.469,9.972-1.838,21.926-2.79,33.117" transform="translate(140.476 44.257)" fill="#fc502d"/>
          <path id="Trazado_193887" data-name="Trazado 193887" d="M146.383,132.046a4.236,4.236,0,0,0,2.263-1.117,2.3,2.3,0,0,0,2.177.454c1.154-.19,1.307-.785,2.135-.705.35,1.075,1.2,3.489.379,4.051h-8.555c-.765-.773-.745-2.424,1.6-2.682" transform="translate(138.673 79.446)" fill="#fff"/>
          <path id="Trazado_193888" data-name="Trazado 193888" d="M159.975,130.526c-.3-.35-1.7-.354-1.829.162s.119.885-.474,1.7a5.487,5.487,0,0,0,1.921,0c.37-.12.68-1.517.382-1.866" transform="translate(149.388 79.057)" fill="#fff"/>
          <path id="Trazado_193889" data-name="Trazado 193889" d="M151.621,100.689c.831-7.036,12.128-6.313,12.878-.17.27,3.305,1.1,8.281-1.023,32.833,4.478,9.368,3.212,22.813,4.55,32.709.148,1.5-3.7,1.868-4,.526-4.1-18.361-9.834-38.96-11.964-54.236-.774-5.538-.851-8.177-.44-11.663" transform="translate(144.33 44.493)" fill="#fc502d"/>
          <path id="Trazado_193890" data-name="Trazado 193890" d="M158.3,131.882a3.179,3.179,0,0,0,1.747-1.341,2.3,2.3,0,0,0,2.108.969c1.156-.192,1.307-.785,2.137-.707.348,1.077,1.2,3.491.379,4.051h-8.323c-.765-.773-.395-2.714,1.951-2.972" transform="translate(148.036 79.318)" fill="#fff"/>
          <path id="Trazado_193891" data-name="Trazado 193891" d="M131.746,95.45l-.422-2.344c1.035-.448,2.6-1.373,4.424-2.16l1,3.8c-2.018.334-3.807.576-5,.7" transform="translate(128.221 39.787)" fill="#f7a58e"/>
          <path id="Trazado_193892" data-name="Trazado 193892" d="M133.777,99.277c3.513-1.811,9.533-5.745,10.916-6.461l14.853-10.1c3.2-1.077,6.938,5.949,2.887,9.119,0,0-22.964,10.475-27.655,11.247Z" transform="translate(130.192 31.456)" fill="#0d2380"/>
          <path id="Trazado_193893" data-name="Trazado 193893" d="M131.6,96.307c-1.437-.478-1.933-2.822-1.971-3l2.972-1.2c1.446-.647,2.274,1.289,1.362,2.688,0,0-.994,1.868-2.362,1.515" transform="translate(126.862 40.815)" fill="#f7a58e"/>
          <path id="Trazado_193894" data-name="Trazado 193894" d="M131.485,93.711c-3.434.817-3.3-.116-3.3-.116s1.158-.426,3.25-1.059c1.208-.3.876.879.05,1.175" transform="translate(125.699 41.327)" fill="#f7a58e"/>
          <path id="Trazado_193895" data-name="Trazado 193895" d="M146.9,93.582c-.714-3.849-1.1-7.65,2.483-10.04,2.123-1.417,8.947-2.43,12.137-1.259,3.215,1.593,2.521,8.535,3.122,19.5,2.216,5.472,3.179,7.268,3.836,12.6,0,0-1.187,4.015-9.536,4.021-3.791,0-9.374-.372-11.915-2.514.254-3.635,1.625-7.136,2.2-12.282,0,0-2.27-9.586-2.323-10.028" transform="translate(140.355 30.627)" fill="#0d2380"/>
          <path id="Trazado_193896" data-name="Trazado 193896" d="M158.447,82.88a57.6,57.6,0,0,1,9.547,11.3c1.807,2.77,6.487,13.9,6.487,13.9l-2.979,2.432-8.054-12.162L153.607,89.4c-3.414-3.863,1.023-9.75,4.84-6.521" transform="translate(145.142 30.803)" fill="#0d2380"/>
          <path id="Trazado_193897" data-name="Trazado 193897" d="M167.658,98.642l-1.93-4.42a4.988,4.988,0,0,1-3.3,2.516s2.076,3.311,2.582,3.873,2.6-.39,2.646-1.968" transform="translate(153.211 43.058)" fill="#f7a58e"/>
          <path id="Trazado_193898" data-name="Trazado 193898" d="M163.593,97.906c.007.032,0,.078.007.11a3.176,3.176,0,0,0,1.513,2.55.164.164,0,0,0,.079.034c-1.05-.232-1.365,1.325-.831,1.685,1.545,1.159,3.746-.436,3.931-1.4.189-.981-1.569-4.227-1.569-4.227-.9-.8-3.194-.677-3.131,1.249" transform="translate(154.144 45.024)" fill="#f7a58e"/>
          <path id="Trazado_193899" data-name="Trazado 193899" d="M163.6,97.312a3.038,3.038,0,0,0,1.565,2.572c.867-.026,1.174-.084,2-.082a2.148,2.148,0,0,1-1.215-2.57,2.138,2.138,0,0,0-2.348.08" transform="translate(154.148 45.727)" fill="#e6856a"/>
          <path id="Trazado_193900" data-name="Trazado 193900" d="M163.638,97.834a12.23,12.23,0,0,0,.191,4.578s.83.05.752-1.689c-.02-.452.038-1.433.442-1.761,1.243-.909,1.443-1.745.986-2.43-.606-.911-2.323.014-2.371,1.3" transform="translate(154.082 45)" fill="#f7a58e"/>
          <path id="Trazado_193901" data-name="Trazado 193901" d="M166.953,99.511c-.674.518-2.46,1.523-2.741,1.275s1.145-1.93,2.067-2.154,1.021.613.674.879" transform="translate(154.614 47.423)" fill="#f7a58e"/>
          <path id="Trazado_193902" data-name="Trazado 193902" d="M150.055,39.921c1.928-2.5.153-10.276-8.077-12.51-6.956-1.6-10.575.363-19.981,2.655l1.4,9.855Z" transform="translate(120.728 16.471)" fill="#fc502d"/>
          <path id="Trazado_193903" data-name="Trazado 193903" d="M140.173,27.442s-16.851,3.887-23.07,6.443c-3.567,1.464-4.453,4.759-3.077,7.295,2.036,3.756,26.21,1.092,26.21,1.092,8.339-2.606,3.924-14.992-.063-14.829" transform="translate(113.829 11.71)" fill="#fc502d"/>
          <path id="Trazado_193904" data-name="Trazado 193904" d="M134.957,26.925S145.717,31,151.77,34.018c5.874.518,5.488,8.662,2.709,9.188C148.083,45.143,134,41.716,134,41.716c-8.162-3.228-3.012-15.254.958-14.791" transform="translate(126.888 11.175)" fill="#fc502d"/>
          <path id="Trazado_193905" data-name="Trazado 193905" d="M123.439,37.151s-3.392-5.766,5.028-10.233,14.083,0,12.679,5.406-6.366,9.013-6.366,9.013-8.395.046-11.341-4.185" transform="translate(121.344 9.329)" fill="#fc502d"/>
          <path id="Trazado_193906" data-name="Trazado 193906" d="M131.579,38.372c4.052-3.14,2.424-9.254,2.424-9.254l-1.535-3.271-1.277-2.721-6.761,2.908,1.23,5.589a15.475,15.475,0,0,0,1.069,2.771c.932,1.859,2.5,3.97,4.849,3.978" transform="translate(122.683 7.336)" fill="#f7a28a"/>
          <path id="Trazado_193907" data-name="Trazado 193907" d="M126.728,34.4a16.452,16.452,0,0,0,5.74-8.548l-1.279-2.723-6.761,2.908,1.23,5.591a15.538,15.538,0,0,0,1.069,2.771" transform="translate(122.682 7.336)" fill="#f0896c"/>
          <path id="Trazado_193908" data-name="Trazado 193908" d="M120.917,19.6a2.83,2.83,0,0,0-1.78,2.54,2.939,2.939,0,0,0,1.621,2.922s-1.208,2.59,1.345,3.637c5.2,2.135,4.694-10.394-1.187-9.1" transform="translate(118.416 3.668)" fill="#3d3d3d"/>
          <path id="Trazado_193909" data-name="Trazado 193909" d="M121.287,29.026c1.592,5.253,4.909,10.175,7.58,8.948,4.528-2.076,8.328-7.726,6.449-13.675s-5.917-8.68-10.2-6.993-5.643,5.746-3.829,11.72" transform="translate(119.528 0.936)" fill="#f7a28a"/>
          <path id="Trazado_193910" data-name="Trazado 193910" d="M120.1,23.811c.956.906,4.5,2.445,11.826-1.519a9.538,9.538,0,0,1,2.741,4.135c.691-.183.97-.584,1.446.077.658.912,1,2.908.188,3.643a1.827,1.827,0,0,1-.68.389c-.292,1.4-.014,2.938,1,3.281,1.558-1.4,1.369-1.724,1.944-3.337,1.818-1.426,1.823-4.554.359-5.41,1.39-1.456-.289-4.644-2.346-4.751.014-1.762-1.995-4.914-4.521-3.069.072-1.9-3.008-3.14-4.676-.348-1.344-2.046-5.421-.808-5.264,1.913-2.467-.479-3.82,3.222-2.013,5" transform="translate(118.536 -0.632)" fill="#3d3d3d"/>
          <path id="Trazado_193911" data-name="Trazado 193911" d="M113.755,35.456s-.427,4.568,7.109,5.3a135.951,135.951,0,0,0,15.828.59l.772-3.619s-15.226-5.768-18.952-6.02a4.161,4.161,0,0,0-4.757,3.748" transform="translate(114.104 16.022)" fill="#f7a28a"/>
          <path id="Trazado_193912" data-name="Trazado 193912" d="M127.319,35.219l4.808-1.122s3.1,1.656,4.063,3.807c-.705.884-2.629-.977-2.629-.977s.195,3.6-.278,4.282-2.835,1.14-3.609.4.573-1.625.573-1.625l-3.517-1.073s-1.637-2.741.588-3.69" transform="translate(124.064 18.461)" fill="#f7a28a"/>
          <path id="Trazado_193913" data-name="Trazado 193913" d="M128.371,19.481a.133.133,0,1,0-.132.118.125.125,0,0,0,.132-.118" transform="translate(125.636 11.888)" fill="#f7a28a"/>
          <path id="Trazado_193914" data-name="Trazado 193914" d="M152.064,33.042s2.539,3.613-3.493,8.713a151.742,151.742,0,0,1-13.118,9.909l-2.379-2.606S143.217,35.125,146.252,32.7c3.614-2.892,5.812.346,5.812.346" transform="translate(129.628 15.822)" fill="#f7a28a"/>
          <path id="Trazado_193915" data-name="Trazado 193915" d="M134.268,40.68l-2.683,4.6s.254,3.825,1.7,5.609c.992-.413.139-3.092.139-3.092s2.932,1.511,3.673,1.269a4.18,4.18,0,0,0,1.643-3.609c-.337-1.075-1.563,0-1.563,0l.581-3.42a1.9,1.9,0,0,0-3.49-1.357" transform="translate(128.431 24.196)" fill="#f7a28a"/>
          <path id="Trazado_193916" data-name="Trazado 193916" d="M67.791,78.606c.539,5.015-2.025,10.364-5.252,10.325-4.426-.054-10.149-3.643-10.69-8.658s2.591-9.455,6.995-9.915,8.408,3.233,8.947,8.249" transform="translate(65.944 15.553)" fill="#f7b28a"/>
          <path id="Trazado_193917" data-name="Trazado 193917" d="M46.517,130.521a39.809,39.809,0,0,1,8.274,0c3.005,1.957,4.3,1.841,4.3,1.841,1.283.332,1.856,2.07.742,2.07h-13.7Z" transform="translate(59.788 79.1)" fill="#fff"/>
          <path id="Trazado_193918" data-name="Trazado 193918" d="M56.932,130.521a39.6,39.6,0,0,1,8.274,0c3.31,1.957,4.589,1.841,4.589,1.841,1.335.332,2.178,2.07,1.064,2.07H57.166Z" transform="translate(71.549 79.1)" fill="#fff"/>
          <path id="Trazado_193919" data-name="Trazado 193919" d="M59.382,90.293,50.776,87.43l6.234-12.8L63.062,77.5Z" transform="translate(64.84 20.126)" fill="#f7b28a"/>
          <path id="Trazado_193920" data-name="Trazado 193920" d="M52.351,96.232a28.545,28.545,0,0,0-2.679,8.205c-.382,1.942.065,10.722-.063,25.512a305.618,305.618,0,0,0-3.469,38.275l8.65-1.613L68.03,97.029Z" transform="translate(59.787 43.01)" fill="#fc502d"/>
          <path id="Trazado_193921" data-name="Trazado 193921" d="M67.391,97.093c1.7,13.13,2.928,24.914,3.039,33.509l2,35.1-8.222,1.549c-1.687-10.891-4.491-24.492-4.936-37.109L50.3,97.2Z" transform="translate(64.325 43.923)" fill="#fc502d"/>
          <path id="Trazado_193922" data-name="Trazado 193922" d="M47.983,114.775c.571,3.394.88,3.623.88,3.623l21.909.478s-.652-3.427-.1-5.2a10.442,10.442,0,0,0-.019-2.885c-.207-2.2-.681-5.4-1.317-8.912C67.969,94.336,65.852,85.39,63.99,82.03l-9.563-2.261s-4.266,4.263-5.2,8.036-1.81,23.578-1.239,26.97" transform="translate(61.597 25.567)" fill="#0d2380"/>
          <path id="Trazado_193923" data-name="Trazado 193923" d="M68.645,80.855,66.794,92.64l-5.762-6.685s-5.179-5.176-9.338-.5S54.028,94.8,54.028,94.8s9.482,7.6,15.536,6.813,2.276-20.53,2.276-20.53Z" transform="translate(64.325 26.717)" fill="#0d2380"/>
          <path id="Trazado_193924" data-name="Trazado 193924" d="M59.567,85.048l-.934-4.488L61.013,77s.888-.645,1.214,1.335c.652.921,1.448,1.6,1.354,2.64s-.819,4.3-.819,4.3Z" transform="translate(73.403 22.524)" fill="#f7b28a"/>
          <path id="Trazado_193925" data-name="Trazado 193925" d="M50.971,80.656l.677-1.726L61.78,82.895l.8,4.335Z" transform="translate(65.053 24.678)" fill="#fc502d"/>
          <path id="Trazado_193926" data-name="Trazado 193926" d="M53.621,86.428a14.914,14.914,0,0,1-2.27-10.292c1.032-5.606,9.461-6.778,9.461-6.778s8.79-.509,10.755,8.306c-.932,1.172-4.757-.764-4.757-.764L60.52,82.556s.075-4.432-2.142-3.312-1.557,4.688-1.557,4.688-2.067,2.14-3.2,2.5" transform="translate(65.249 14.531)"/>
          <path id="Trazado_193927" data-name="Trazado 193927" d="M167.985,63.5h0c0-.119,0-.173,0-.184,0,.023,0,.184,0,.184" transform="translate(157.674 38.873)" fill="#d9ffff"/>
          <path id="Trazado_193928" data-name="Trazado 193928" d="M167.985,63.5h0c0-.119,0-.173,0-.184,0,.023,0,.184,0,.184" transform="translate(157.674 38.873)" fill="#d9ffff"/>
          <path id="Trazado_193929" data-name="Trazado 193929" d="M212.107,63.695s0-.161,0-.184c0,.011,0,.065,0,.184" transform="translate(193.12 38.994)" fill="#d9ffff"/>
          <path id="Trazado_193930" data-name="Trazado 193930" d="M212.107,63.695s0-.161,0-.184c0,.011,0,.065,0,.184" transform="translate(193.12 38.994)" fill="#d9ffff"/>
          <path id="Trazado_193931" data-name="Trazado 193931" d="M207.076,53.06c-8.808,8.444-22.863,15.365-37.9,18.312-.005.9-.031,5.88-.144,28.837-.153,30.623,32.412,45.588,37.467,47.885,4.9-2.019,37.874-16.96,38.026-47.583.115-22.957.141-27.938.144-28.837-15.009-3.068-28.868-10.1-37.591-18.614" transform="translate(158.513 32.577)" fill="#fc502d"/>
          <path id="Trazado_193932" data-name="Trazado 193932" d="M205.956,55.117c-9.08,7.455-21.658,13.314-35.492,16.508l-.137,27.315c-.061,12.5,5.486,23.8,16.49,33.606a79.331,79.331,0,0,0,18.692,12.231l.527-.244V55.18l-.079-.063" transform="translate(159.555 33.84)" fill="#0d2380"/>
          <path id="Trazado_193933" data-name="Trazado 193933" d="M190.127,55.157v89.351a79.452,79.452,0,0,0,18.284-11.837c11.1-9.713,16.762-20.975,16.825-33.472l.135-27.315c-13.76-3.294-26.246-9.23-35.245-16.727" transform="translate(175.462 33.865)" fill="#0d2380"/>
          <path id="Trazado_193934" data-name="Trazado 193934" d="M229.059,72.12c-10.53,1.453-24.87,10.049-33.918,20.386-1.268-4.874-6.965-9.324-9.946-10.3l-9.029,8.121c5.639,2.274,11.8,8.717,12.616,15.313L197.8,106.9c3.8-6.724,13.624-22.805,33.164-31.451a12.774,12.774,0,0,0-1.906-3.325" transform="translate(164.246 44.279)" fill="#fc502d"/>
        </g>
      </g>
    </g>
  </g>
</svg>
